<?xml version="1.0" standalone="no"?>
<!DOCTYPE svg PUBLIC "-//W3C//DTD SVG 20010904//EN"
 "http://www.w3.org/TR/2001/REC-SVG-20010904/DTD/svg10.dtd">
<svg version="1.0" xmlns="http://www.w3.org/2000/svg"
 width="662.000000pt" height="604.000000pt" viewBox="0 0 662.000000 604.000000"
 preserveAspectRatio="xMidYMid meet">
<metadata>
Created by potrace 1.16, written by Peter Selinger 2001-2019
</metadata>
<g transform="translate(0.000000,604.000000) scale(0.100000,-0.100000)"
fill="#000000" stroke="none">
<path d="M1117 6033 c-4 -3 -7 -13 -7 -22 0 -8 -10 -25 -22 -38 -19 -20 -20
-27 -10 -43 15 -24 16 -136 2 -145 -6 -4 -10 -24 -8 -46 1 -21 0 -40 -3 -42
-2 -2 -21 -14 -41 -26 -27 -16 -40 -32 -47 -59 -5 -20 -25 -101 -45 -178 -23
-91 -39 -187 -46 -265 -6 -68 -15 -153 -20 -189 -5 -36 -14 -105 -20 -155 -6
-49 -14 -119 -20 -155 -5 -36 -16 -137 -25 -225 -9 -88 -22 -223 -31 -300 -8
-77 -21 -219 -30 -315 -8 -96 -19 -200 -25 -230 -6 -30 -14 -122 -19 -205 -10
-171 -24 -324 -45 -505 -8 -69 -22 -206 -30 -305 -21 -250 -25 -274 -44 -279
-24 -7 -128 -7 -189 0 -42 5 -57 2 -72 -11 -22 -20 -120 -34 -237 -35 l-83 0
0 -1130 0 -1130 3310 0 3310 0 0 985 0 985 -24 0 c-23 0 -24 2 -14 37 6 21 17
47 24 58 12 16 14 112 14 540 -1 554 -1 555 -49 555 -26 0 -27 -14 0 -57 17
-27 19 -40 12 -69 l-8 -36 -25 38 c-23 36 -30 40 -80 45 -30 4 -72 10 -92 14
-31 6 -39 4 -44 -9 -4 -10 -2 -22 4 -28 8 -8 6 -17 -5 -34 -16 -26 -11 -44 15
-44 27 -1 53 -26 46 -44 -5 -12 0 -19 15 -23 20 -5 31 -29 29 -65 -2 -22 1
-22 -47 3 -56 29 -137 34 -181 12 -41 -21 -52 -52 -21 -60 24 -6 25 -9 10 -53
-16 -45 2 -53 57 -24 40 21 44 22 44 6 0 -21 19 -42 38 -42 20 0 50 -40 57
-75 4 -20 17 -37 38 -49 l32 -18 -30 -22 c-16 -11 -51 -42 -76 -68 -25 -27
-49 -48 -55 -48 -5 0 -39 -15 -76 -34 -63 -31 -68 -32 -68 -13 0 16 -5 19 -29
14 -25 -5 -31 -2 -37 16 -10 32 -34 57 -57 57 -11 0 -29 7 -39 17 -15 14 -22
14 -42 3 -13 -7 -30 -10 -38 -7 -9 4 -6 8 9 12 27 9 36 31 23 56 -6 11 -8 24
-4 30 3 6 3 35 -1 65 -6 48 -9 54 -30 54 -24 0 -35 -17 -35 -52 0 -11 -5 -18
-12 -16 -16 6 -24 260 -9 286 6 11 5 25 -5 44 -14 27 -13 29 17 56 25 22 30
33 24 48 -5 10 -9 33 -10 49 -4 95 -4 95 -29 95 -18 0 -25 -7 -30 -31 -6 -30
-6 -30 -27 -11 -18 18 -20 28 -16 98 3 44 8 94 12 112 6 25 3 38 -10 52 -20
22 -21 21 18 38 34 14 44 38 28 64 -8 13 -9 24 -1 38 8 15 7 27 -4 48 -8 15
-17 35 -20 45 -8 24 -41 18 -42 -8 -1 -11 -2 -26 -3 -34 -1 -11 -4 -11 -17 0
-13 10 -15 34 -13 138 2 91 0 126 -9 129 -19 6 -14 32 6 32 11 0 27 9 37 20
16 18 16 22 3 42 -11 17 -12 28 -5 39 7 11 6 30 -4 63 -11 37 -18 46 -33 44
-15 -2 -23 -15 -31 -51 -5 -27 -13 -46 -17 -42 -4 4 -4 13 -1 21 3 8 0 21 -7
29 -10 12 -11 45 -7 128 3 65 1 120 -4 130 -8 14 -4 21 21 35 25 14 30 21 25
42 -8 33 -8 41 0 66 4 13 1 27 -8 35 -8 7 -12 21 -10 30 3 9 -3 19 -12 23 -21
8 -48 -12 -41 -30 2 -6 -1 -20 -8 -30 -13 -17 -16 -16 -55 15 -22 18 -41 39
-41 47 0 8 7 45 17 81 15 60 15 68 0 97 -9 17 -21 51 -28 76 -15 59 -66 135
-130 193 l-51 47 6 53 c6 45 4 56 -14 76 -25 29 -28 106 -5 115 24 9 17 34
-12 49 -46 23 -53 13 -53 -70 0 -59 -4 -81 -20 -103 -17 -23 -18 -33 -9 -59
15 -44 5 -87 -30 -119 -66 -63 -99 -118 -111 -193 -7 -40 -19 -79 -26 -87 -17
-16 -18 -51 -3 -89 14 -36 20 -101 11 -107 -4 -2 -32 -6 -62 -10 -30 -3 -49
-3 -42 0 14 7 16 50 2 59 -5 3 -10 17 -10 31 0 19 -5 24 -25 24 -21 0 -25 -5
-25 -28 0 -15 -6 -34 -12 -40 -10 -10 -10 -17 1 -33 9 -15 10 -24 2 -32 -20
-20 -11 -42 24 -66 28 -19 34 -28 29 -45 -4 -11 -7 -92 -6 -178 0 -148 -1
-158 -19 -158 -16 0 -17 3 -7 26 9 20 9 30 0 45 -7 10 -12 28 -12 39 0 13 -7
20 -19 20 -20 0 -43 -22 -39 -36 1 -5 -1 -19 -6 -31 -4 -13 -3 -31 3 -40 7
-13 5 -23 -5 -34 -15 -17 -9 -49 9 -49 6 0 21 -9 33 -21 19 -18 20 -25 11 -61
-7 -29 -7 -46 1 -59 16 -25 16 -189 1 -189 -7 0 -10 -14 -7 -35 2 -21 0 -35
-7 -35 -7 0 -9 14 -7 34 2 18 -1 37 -7 40 -6 4 -11 18 -11 32 0 21 -4 25 -22
22 -16 -2 -24 -11 -26 -28 -2 -13 -11 -29 -19 -35 -14 -10 -14 -14 1 -37 15
-22 15 -27 1 -38 -24 -20 -18 -35 26 -65 28 -18 38 -30 31 -37 -6 -6 -8 -56
-5 -135 4 -91 2 -132 -8 -149 -17 -33 -26 -30 -36 13 -10 41 -39 57 -49 26 -3
-10 -10 -27 -15 -38 -7 -14 -7 -30 0 -48 7 -17 7 -28 1 -32 -6 -4 -10 -19 -10
-36 0 -16 -4 -29 -10 -29 -5 0 -10 -6 -10 -12 0 -7 -7 -26 -16 -43 -27 -51
-52 -130 -60 -192 -4 -32 -9 -52 -11 -45 -3 6 -13 12 -24 12 -21 0 -39 -35
-39 -75 0 -34 -43 -44 -119 -29 l-31 7 0 72 c0 53 -4 76 -15 85 -14 12 -14 15
0 30 19 21 19 34 0 50 -8 7 -15 23 -15 36 0 17 -6 24 -20 24 -14 0 -20 -7 -20
-22 0 -12 -7 -30 -17 -40 -13 -15 -14 -23 -5 -43 15 -33 -3 -42 -23 -11 -16
24 -15 26 5 48 12 14 20 33 18 48 -3 23 -7 25 -62 28 -57 3 -58 3 -40 23 14
15 15 24 6 42 -6 12 -14 32 -17 45 -5 16 -13 22 -28 20 -24 -3 -41 -54 -35
-99 4 -25 1 -28 -31 -34 -38 -7 -53 5 -91 76 -17 33 -112 119 -130 119 -4 0
-7 17 -7 39 0 49 -8 61 -41 61 -20 0 -23 3 -14 12 18 18 14 45 -10 68 -17 16
-22 30 -19 60 3 45 -18 62 -50 42 -10 -7 -28 -12 -39 -12 -21 0 -36 -36 -27
-70 3 -11 -1 -21 -9 -24 -8 -3 -14 -17 -14 -30 0 -23 4 -25 44 -24 81 1 87
-26 8 -38 -54 -8 -72 -19 -72 -45 0 -14 -7 -19 -26 -19 -28 0 -115 -54 -153
-94 -13 -14 -43 -58 -65 -98 -54 -95 -71 -99 -80 -18 -6 55 -9 60 -31 60 -19
0 -25 -6 -26 -22 0 -13 -3 -17 -6 -10 -13 33 -53 -3 -53 -47 0 -13 -6 -21 -16
-21 -15 0 -16 15 -11 142 3 78 10 144 15 146 5 1 18 9 28 16 16 12 17 18 6 37
-6 13 -11 31 -10 39 3 35 -3 50 -20 50 -24 0 -42 -19 -42 -44 0 -10 -3 -16 -7
-12 -4 4 -6 64 -5 134 3 119 4 128 26 147 22 18 23 26 19 82 -4 43 -10 64 -21
68 -22 8 -33 -7 -35 -49 -2 -39 -24 -50 -26 -13 -4 65 0 158 8 178 4 13 5 34
0 46 -6 17 -3 25 16 37 21 14 23 21 20 82 -2 36 -8 71 -13 76 -15 15 -42 2
-42 -21 0 -11 -5 -23 -11 -26 -6 -4 -8 -14 -5 -22 5 -12 1 -14 -21 -8 -52 12
-58 26 -45 100 21 110 -17 229 -95 300 -31 28 -33 35 -33 92 0 34 -4 65 -10
68 -5 3 -10 37 -10 75 0 71 -6 85 -34 74 -12 -5 -16 -21 -16 -69 0 -43 -5 -66
-15 -75 -10 -8 -15 -30 -15 -62 0 -46 -4 -53 -45 -95 -43 -42 -95 -127 -95
-154 0 -6 -8 -27 -17 -46 -13 -28 -14 -39 -5 -54 7 -10 12 -41 12 -68 0 -42
-3 -49 -22 -55 -56 -14 -67 -9 -70 37 -2 34 -7 42 -22 42 -21 0 -27 -16 -40
-92 -5 -38 -3 -46 19 -65 24 -21 25 -27 25 -130 0 -65 -4 -108 -10 -108 -5 0
-11 -12 -11 -27 l-1 -28 -8 25 c-17 59 -23 70 -41 70 -13 0 -20 -10 -24 -37
-3 -21 -8 -50 -10 -65 -4 -26 15 -58 36 -58 10 0 12 -194 3 -252 -4 -20 -13
-39 -20 -42 -10 -4 -13 1 -9 17 8 32 -9 81 -28 85 -22 4 -35 -30 -35 -96 -1
-44 3 -54 21 -63 30 -16 30 -15 17 -38 -8 -16 -8 -31 1 -61 10 -32 9 -58 -1
-125 -14 -92 -34 -113 -37 -39 -1 26 -6 51 -11 56 -13 13 -42 -2 -42 -22 0
-11 -4 -21 -9 -24 -5 -3 -8 -24 -7 -46 2 -30 9 -47 29 -64 27 -23 27 -24 27
-154 0 -106 -3 -134 -16 -147 -9 -8 -13 -22 -10 -30 3 -8 1 -15 -4 -15 -6 0
-10 11 -10 24 0 37 -18 76 -34 76 -21 0 -27 -13 -31 -75 -4 -46 -10 -59 -37
-85 -31 -29 -32 -31 -15 -44 12 -10 31 -12 55 -9 34 6 36 5 23 -11 -11 -13
-12 -22 -2 -44 11 -24 10 -28 -10 -42 -40 -26 -69 -60 -69 -80 0 -26 21 -25
54 1 20 16 26 17 26 6 0 -8 -7 -20 -15 -27 -8 -7 -15 -21 -15 -31 0 -16 -8
-19 -44 -19 -59 0 -248 39 -266 55 -8 7 -27 17 -43 20 -15 4 -30 11 -33 16 -3
5 -15 9 -27 9 -12 0 -38 8 -57 19 -54 29 -121 39 -300 46 -91 3 -180 8 -199
11 l-34 5 7 707 c4 389 12 885 17 1102 19 710 22 1164 9 1253 -6 45 -15 111
-20 147 -7 51 -14 68 -32 80 -43 28 -59 50 -53 71 4 12 0 31 -10 46 -15 22
-16 35 -6 100 6 41 18 84 26 96 20 29 19 37 -5 37 -11 0 -20 7 -20 15 0 15
-21 21 -33 8z"/>
</g>
</svg>
