<?xml version="1.0" standalone="no"?>
<!DOCTYPE svg PUBLIC "-//W3C//DTD SVG 20010904//EN"
 "http://www.w3.org/TR/2001/REC-SVG-20010904/DTD/svg10.dtd">
<svg version="1.0" xmlns="http://www.w3.org/2000/svg"
 width="605.000000pt" height="240.000000pt" viewBox="0 0 605.000000 240.000000"
 preserveAspectRatio="xMidYMid meet">
<metadata>
Created by potrace 1.16, written by Peter Selinger 2001-2019
</metadata>
<g transform="translate(0.000000,240.000000) scale(0.100000,-0.100000)"
fill="#000000" stroke="none">
<path d="M449 2189 l-264 -211 -68 -131 c-37 -72 -78 -150 -92 -173 l-25 -43
0 -429 c0 -347 3 -431 13 -435 7 -3 317 4 687 16 l675 20 125 -132 125 -132
260 -31 260 -31 165 38 c91 20 248 57 350 81 102 24 287 59 412 77 l228 34
127 -69 c102 -55 152 -75 243 -98 169 -42 183 -48 351 -152 l154 -96 175 -40
c181 -43 215 -49 460 -82 332 -45 436 -49 563 -25 171 33 397 8 655 -70 43
-14 20 11 -86 90 -59 44 -159 121 -222 170 -109 86 -187 146 -563 433 -89 68
-183 141 -209 163 -80 67 -363 374 -437 473 -90 121 -192 229 -237 251 -19 9
-124 37 -233 62 l-198 45 -159 -87 c-87 -48 -179 -101 -204 -118 -25 -17 -128
-111 -230 -209 -203 -195 -522 -460 -613 -509 l-59 -31 -296 8 -297 7 120 18
c224 33 450 80 546 115 99 36 109 44 223 171 l29 32 -51 63 c-114 142 -127
154 -207 198 -59 32 -104 69 -172 138 l-92 94 -38 -13 c-21 -7 -94 -33 -162
-59 -115 -44 -133 -55 -255 -152 -126 -101 -319 -232 -532 -363 -99 -61 -102
-63 -219 -79 -65 -8 -120 -14 -122 -12 -2 2 18 11 44 21 27 10 112 51 191 92
115 60 159 90 225 151 46 43 116 106 155 141 l73 64 -180 119 -180 119 -48 82
c-26 45 -73 113 -103 152 -31 38 -103 135 -161 213 l-104 144 -106 64 c-59 35
-116 64 -127 64 -11 0 -138 -95 -283 -211z m450 -26 c64 -65 132 -136 150
-158 19 -22 72 -79 119 -127 l85 -87 -123 39 c-117 38 -125 42 -189 102 l-66
63 -10 -105 c-10 -101 -12 -107 -49 -153 l-39 -48 -48 67 c-27 36 -51 80 -53
97 -3 18 -9 56 -13 85 l-8 53 -88 -83 -87 -83 6 45 c3 25 8 53 11 63 4 16 -1
17 -64 11 -37 -4 -110 -19 -162 -35 -52 -15 -90 -24 -85 -20 5 5 52 41 104 82
52 40 147 115 212 166 91 74 131 99 185 117 37 13 74 24 82 25 7 0 66 -52 130
-116z m3145 -535 l129 -23 44 -60 c88 -120 243 -312 305 -375 40 -41 105 -91
175 -134 62 -38 111 -71 109 -73 -6 -7 -240 49 -261 62 -11 7 -114 101 -229
209 -115 108 -213 196 -217 196 -4 0 9 -48 28 -106 24 -76 33 -120 31 -156
l-3 -50 -41 30 c-38 28 -42 35 -57 112 -9 46 -19 86 -22 88 -8 9 -125 -50
-195 -97 -72 -50 -153 -70 -285 -70 l-70 0 81 38 c45 21 104 46 131 55 40 13
62 31 109 84 32 37 62 69 66 70 8 4 11 32 4 32 -2 0 -34 -13 -72 -28 -38 -16
-126 -48 -195 -71 -134 -44 -213 -90 -332 -194 l-59 -50 58 114 57 115 145 90
c172 105 401 224 422 219 8 -2 73 -14 144 -27z m-1663 -164 c102 -42 196 -101
276 -175 41 -38 79 -69 85 -69 6 0 9 -2 6 -5 -3 -3 -39 0 -79 6 -69 10 -79 15
-136 66 -35 30 -67 52 -71 49 -5 -3 -14 -31 -21 -63 l-11 -58 -90 -36 c-49
-20 -87 -31 -83 -25 4 6 24 32 45 57 21 26 38 51 38 56 0 5 -36 24 -81 42
l-81 33 -91 -41 c-85 -38 -194 -67 -219 -59 -6 2 31 35 82 73 73 54 121 80
224 122 72 28 134 52 137 52 3 1 34 -11 70 -25z"/>
<path d="M518 703 c-10 -2 -18 -8 -18 -13 0 -5 -8 -8 -17 -8 -10 1 -123 -3
-251 -7 l-232 -8 0 -334 0 -333 2173 2 c1211 2 2180 7 2190 12 10 5 17 12 15
16 -3 9 -170 157 -238 211 -84 67 -243 138 -425 190 -118 34 -214 69 -311 115
l-142 66 -183 -40 c-101 -22 -213 -46 -249 -52 -36 -7 -211 -44 -390 -85
l-325 -72 -265 33 c-146 18 -272 33 -281 34 -9 0 -49 37 -90 82 -58 65 -66 78
-39 60 l35 -23 -30 23 c-16 13 -50 42 -74 66 l-44 42 -411 1 c-226 1 -401 4
-388 6 12 2 22 9 22 14 0 9 -4 10 -32 2z"/>
</g>
</svg>
