<?xml version="1.0" standalone="no"?>
<!DOCTYPE svg PUBLIC "-//W3C//DTD SVG 20010904//EN"
 "http://www.w3.org/TR/2001/REC-SVG-20010904/DTD/svg10.dtd">
<svg version="1.0" xmlns="http://www.w3.org/2000/svg"
 width="176.000000pt" height="111.000000pt" viewBox="0 0 176.000000 111.000000"
 preserveAspectRatio="xMidYMid meet">

<g transform="translate(0.000000,111.000000) scale(0.100000,-0.100000)"
fill="#000000" stroke="none">
<path d="M1393 1080 c-55 -33 -79 -110 -51 -163 6 -12 34 -47 61 -77 57 -63
75 -99 88 -180 25 -154 -66 -317 -207 -370 -117 -44 -243 -27 -344 46 -25 18
-198 187 -385 375 -202 202 -354 347 -374 356 -64 27 -128 -6 -157 -82 -15
-40 -15 -44 4 -81 28 -53 731 -751 804 -798 31 -19 92 -48 135 -63 103 -35
262 -38 361 -6 285 94 464 390 408 676 -26 131 -89 245 -185 332 -67 61 -103
69 -158 35z"/>
</g>
</svg>
