<?xml version="1.0" standalone="no"?>
<!DOCTYPE svg PUBLIC "-//W3C//DTD SVG 20010904//EN"
 "http://www.w3.org/TR/2001/REC-SVG-20010904/DTD/svg10.dtd">
<svg version="1.0" xmlns="http://www.w3.org/2000/svg"
 width="78.000000pt" height="78.000000pt" viewBox="0 0 78.000000 78.000000"
 preserveAspectRatio="xMidYMid meet">
<metadata>
Created by potrace 1.16, written by Peter Selinger 2001-2019
</metadata>
<g transform="translate(0.000000,78.000000) scale(0.100000,-0.100000)"
fill="#000000" stroke="none">
<path d="M55 769 c-47 -23 -48 -34 -50 -394 -1 -190 2 -348 7 -358 8 -15 21
-17 101 -15 l92 3 5 199 5 199 22 -39 c12 -21 38 -69 58 -107 l35 -67 60 0
c69 0 55 -16 166 190 12 22 14 23 15 5 0 -11 2 -97 4 -192 1 -94 6 -176 10
-182 9 -15 168 -14 183 1 9 9 12 106 12 374 0 199 -3 369 -6 378 -5 13 -23 16
-94 16 -99 0 -91 5 -145 -95 -35 -65 -105 -192 -123 -224 -16 -29 -30 -21 -57
31 -51 97 -127 233 -147 261 -17 24 -25 27 -76 26 -31 0 -66 -5 -77 -10z"/>
</g>
</svg>
