<?xml version="1.0" standalone="no"?>
<!DOCTYPE svg PUBLIC "-//W3C//DTD SVG 20010904//EN"
 "http://www.w3.org/TR/2001/REC-SVG-20010904/DTD/svg10.dtd">
<svg version="1.0" xmlns="http://www.w3.org/2000/svg"
 width="714.000000pt" height="498.000000pt" viewBox="0 0 714.000000 498.000000"
 preserveAspectRatio="xMidYMid meet">
<metadata>
Created by potrace 1.16, written by Peter Selinger 2001-2019
</metadata>
<g transform="translate(0.000000,498.000000) scale(0.100000,-0.100000)"
fill="#000000" stroke="none">
<path d="M4200 4755 c-119 -24 -224 -78 -308 -159 -54 -51 -72 -84 -72 -131 0
-72 54 -125 127 -125 39 0 63 12 111 57 101 95 215 129 333 99 113 -29 198
-106 241 -218 16 -43 19 -68 15 -129 -9 -134 -16 -144 -404 -530 -190 -189
-358 -362 -374 -383 -37 -49 -39 -105 -6 -153 28 -42 65 -57 124 -50 45 5 51
10 405 363 198 198 379 386 402 419 167 233 149 544 -42 755 -94 103 -192 157
-340 186 -87 17 -125 17 -212 -1z"/>
<path d="M2710 4744 c-174 -47 -304 -152 -385 -314 -86 -171 -84 -357 4 -535
39 -77 116 -171 170 -207 76 -51 191 15 191 110 0 43 -13 66 -67 125 -88 95
-121 219 -88 332 43 149 168 247 314 246 161 0 167 -4 588 -425 199 -198 374
-366 390 -373 38 -17 59 -16 100 4 52 24 75 67 70 127 l-4 49 -389 387 c-346
344 -397 391 -460 423 -39 20 -100 43 -135 52 -80 19 -227 18 -299 -1z"/>
<path d="M2800 4365 c-77 -24 -135 -94 -146 -177 -18 -127 81 -238 211 -238
92 0 154 39 197 124 30 59 22 151 -18 208 -55 79 -154 112 -244 83z"/>
<path d="M4253 4371 c-125 -32 -197 -180 -144 -296 37 -80 107 -126 194 -127
131 -1 226 103 215 237 -11 127 -140 217 -265 186z"/>
<path d="M2963 3658 c-579 -576 -593 -591 -643 -704 -41 -90 -54 -168 -47
-282 9 -155 64 -271 182 -385 118 -114 236 -160 410 -161 120 -1 193 17 288
72 61 35 160 119 181 154 35 57 9 145 -51 173 -58 28 -110 14 -168 -45 -90
-91 -214 -127 -334 -96 -175 45 -272 181 -258 362 10 128 17 138 421 544 200
201 369 375 375 387 6 12 11 38 11 59 0 29 -8 44 -39 75 -34 35 -44 39 -87 39
l-48 0 -193 -192z"/>
<path d="M4553 3190 c-55 -33 -79 -110 -51 -163 6 -12 34 -47 61 -77 57 -63
75 -99 88 -180 25 -154 -66 -317 -207 -370 -117 -44 -243 -27 -344 46 -25 18
-198 187 -385 375 -202 202 -354 347 -374 356 -64 27 -128 -6 -157 -82 -15
-40 -15 -44 4 -81 28 -53 731 -751 804 -798 31 -19 92 -48 135 -63 103 -35
262 -38 361 -6 285 94 464 390 408 676 -26 131 -89 245 -185 332 -67 61 -103
69 -158 35z"/>
<path d="M1410 2960 c-163 -35 -322 -109 -460 -213 -59 -45 -230 -213 -230
-226 0 -4 21 -9 48 -9 116 -5 268 -49 355 -103 110 -70 241 -226 263 -314 l6
-25 567 0 c526 1 564 2 536 17 -16 9 -55 36 -87 59 -197 152 -298 388 -270
632 l8 73 -35 19 c-67 33 -213 80 -299 95 -115 20 -296 18 -402 -5z"/>
<path d="M5355 2965 c-99 -18 -270 -73 -307 -99 -18 -13 -20 -28 -21 -167 -2
-139 -5 -161 -29 -227 -15 -41 -42 -99 -60 -130 -42 -72 -146 -178 -220 -226
-32 -20 -58 -39 -58 -41 0 -3 250 -5 555 -5 l554 0 18 38 c22 47 73 133 90
150 7 7 18 21 25 30 29 39 146 127 208 154 84 38 209 68 283 68 67 0 67 -1 -7
84 -160 182 -422 331 -652 371 -103 18 -282 18 -379 0z"/>
<path d="M2810 2927 c-86 -29 -131 -78 -149 -157 -20 -89 28 -189 113 -232 81
-42 198 -16 255 56 61 76 66 160 15 244 -47 76 -154 117 -234 89z"/>
<path d="M4245 2928 c-74 -26 -119 -73 -141 -146 -23 -76 -6 -140 51 -197 74
-74 157 -88 249 -42 46 23 68 46 96 104 49 104 -4 229 -116 272 -61 23 -93 25
-139 9z"/>
<path d="M585 2374 c-11 -3 -46 -11 -77 -20 -159 -42 -283 -172 -317 -332 -14
-68 -14 -420 0 -498 44 -241 260 -379 563 -359 154 10 257 49 343 128 108 99
133 191 133 481 0 224 -7 272 -51 363 -53 107 -181 200 -318 229 -61 13 -229
17 -276 8z m210 -265 c50 -24 75 -54 96 -114 18 -54 19 -382 1 -445 -26 -88
-89 -133 -187 -133 -96 0 -160 43 -185 126 -15 52 -16 397 -1 454 30 110 165
164 276 112z"/>
<path d="M6255 2368 c-114 -21 -238 -102 -298 -193 -57 -86 -69 -144 -74 -350
-8 -281 15 -392 103 -500 52 -64 139 -116 234 -142 90 -23 291 -23 380 1 142
39 254 124 305 233 32 67 46 170 24 184 -8 5 -73 9 -144 9 -144 0 -168 -8
-178 -57 -9 -45 -50 -97 -92 -117 -51 -25 -157 -26 -201 -3 -90 47 -107 111
-102 372 4 200 10 231 59 278 46 43 149 58 222 33 54 -20 76 -42 108 -112 26
-56 31 -62 66 -67 48 -8 198 -7 238 2 30 6 30 7 29 68 -2 119 -90 245 -216
309 -110 56 -319 80 -463 52z"/>
<path d="M1988 1944 c-10 -3 -60 -82 -114 -180 -53 -96 -99 -174 -103 -174 -3
0 -49 78 -101 173 l-95 172 -63 3 c-58 3 -65 1 -92 -27 l-30 -30 2 -348 3
-348 89 -3 c65 -2 92 1 98 10 4 7 8 101 8 208 l1 195 33 -60 c19 -33 49 -86
67 -118 l33 -58 50 3 51 3 65 115 65 115 5 -205 5 -205 90 0 90 0 3 378 2 377
-44 0 c-24 0 -56 2 -72 4 -16 2 -37 2 -46 0z"/>
<path d="M2353 1930 c-18 -11 -35 -30 -38 -42 -3 -13 -4 -176 -3 -363 l3 -340
274 -3 c193 -2 278 1 287 9 9 7 14 32 14 64 0 90 11 85 -189 85 -124 0 -181 4
-189 12 -7 7 -12 33 -12 59 0 31 -5 51 -17 60 -14 12 7 15 148 19 l164 5 0 70
0 70 -134 3 c-79 1 -140 7 -148 14 -7 6 -13 31 -13 59 0 35 -5 51 -17 58 -10
6 -13 11 -8 11 6 0 93 1 195 2 102 2 191 7 198 11 16 11 16 129 0 145 -9 9
-78 12 -247 12 -217 0 -239 -2 -268 -20z"/>
<path d="M3013 1940 c-44 -18 -73 -131 -40 -158 7 -6 56 -13 108 -14 l94 -3 3
-279 c1 -190 6 -284 14 -293 8 -10 34 -13 102 -11 l91 3 3 274 c2 243 0 276
-14 292 -16 18 -12 18 107 21 l124 3 0 85 0 85 -285 2 c-157 1 -295 -2 -307
-7z"/>
<path d="M3759 1927 l-34 -23 -3 -362 -2 -362 279 0 c192 0 282 3 287 11 9 15
13 90 7 123 l-5 26 -177 0 c-124 0 -181 4 -189 12 -7 7 -12 31 -12 54 0 25 -6
49 -15 58 -8 8 -15 17 -15 20 0 3 73 7 163 8 l162 3 0 70 0 70 -134 3 c-79 1
-140 7 -148 14 -7 6 -13 29 -13 51 0 24 -7 48 -17 59 -13 14 -13 18 -2 18 8 1
89 0 180 0 91 0 178 4 192 9 25 10 27 15 27 70 0 98 21 91 -255 91 -236 0
-243 -1 -276 -23z"/>
<path d="M4459 1921 l-29 -30 2 -353 3 -353 88 -3 c57 -2 94 1 103 9 11 9 14
40 14 129 0 138 -8 130 132 130 188 0 286 78 296 235 3 62 1 76 -25 125 -59
112 -137 140 -386 140 l-169 0 -29 -29z m358 -146 c33 -23 46 -80 28 -121 -17
-42 -47 -54 -131 -54 -60 0 -65 2 -74 26 -6 14 -10 31 -9 38 5 41 -3 97 -17
110 -14 15 -6 16 83 16 72 0 104 -4 120 -15z"/>
<path d="M5218 1933 c-14 -9 -31 -27 -37 -40 -13 -28 -15 -681 -3 -701 7 -9
71 -12 288 -10 l279 3 3 78 3 77 -179 0 c-125 0 -182 4 -190 12 -7 7 -12 31
-12 54 0 25 -6 49 -15 58 -8 8 -15 17 -15 20 0 3 73 7 163 8 l162 3 0 70 0 70
-134 3 c-79 1 -140 7 -148 14 -7 6 -13 29 -13 51 0 24 -7 48 -17 59 -16 17
-10 18 173 18 104 0 195 4 202 9 9 5 12 29 10 82 l-3 74 -245 2 c-214 2 -248
1 -272 -14z"/>
<path d="M960 810 c0 -155 8 -185 56 -210 34 -19 133 -19 165 -2 47 25 54 47
57 205 l4 147 -36 0 -36 0 0 -138 c0 -157 -6 -172 -72 -172 -61 0 -68 18 -68
173 l0 137 -35 0 -35 0 0 -140z"/>
<path d="M1940 890 c0 -33 -2 -60 -4 -60 -2 0 -17 7 -32 15 -36 19 -58 19 -92
1 -39 -20 -57 -60 -56 -123 0 -60 22 -99 70 -122 25 -12 34 -12 71 1 36 13 43
13 43 2 0 -9 11 -14 30 -14 l30 0 0 180 0 180 -30 0 -30 0 0 -60z m-30 -90
c36 -19 38 -110 4 -144 -41 -42 -94 -3 -94 69 0 69 39 102 90 75z"/>
<path d="M4060 937 c-19 -9 -26 -22 -28 -50 -3 -29 -7 -37 -23 -37 -14 0 -19
-7 -19 -25 0 -18 5 -25 20 -25 19 0 20 -7 20 -105 l0 -105 30 0 30 0 0 105 0
105 25 0 c20 0 25 5 25 25 0 20 -5 25 -26 25 -21 0 -25 4 -22 23 2 15 11 23
30 25 29 4 46 31 26 44 -19 12 -59 9 -88 -5z"/>
<path d="M5880 890 c0 -33 -2 -60 -4 -60 -2 0 -17 7 -32 15 -36 19 -58 19 -92
1 -39 -20 -57 -60 -56 -123 0 -60 22 -99 70 -122 25 -12 34 -12 71 1 36 13 43
13 43 2 0 -9 11 -14 30 -14 l30 0 0 180 0 180 -30 0 -30 0 0 -60z m-30 -90
c36 -19 38 -110 4 -144 -41 -42 -94 -3 -94 69 0 69 39 102 90 75z"/>
<path d="M6341 878 c2 -126 12 -192 30 -196 19 -3 24 23 35 171 l7 97 -37 0
-36 0 1 -72z"/>
<path d="M2828 914 c-19 -10 -28 -23 -28 -39 0 -16 -6 -25 -15 -25 -9 0 -15
-9 -15 -25 0 -16 6 -25 15 -25 12 0 15 -16 15 -85 0 -72 3 -88 20 -105 20 -20
65 -26 88 -12 18 12 4 42 -19 42 -17 0 -19 8 -19 80 0 73 2 80 20 80 15 0 20
7 20 25 0 18 -5 25 -20 25 -17 0 -20 7 -20 40 0 44 -3 46 -42 24z"/>
<path d="M1423 841 c-27 -17 -33 -18 -33 -6 0 10 -10 15 -30 15 l-30 0 0 -130
0 -130 30 0 30 0 0 83 c0 91 14 130 48 135 44 6 52 -13 52 -119 l0 -99 36 0
36 0 -4 115 c-3 128 -10 142 -69 151 -24 3 -44 -1 -66 -15z"/>
<path d="M2131 843 c-108 -57 -83 -227 37 -248 49 -8 105 15 135 56 24 34 26
109 3 143 -38 58 -116 80 -175 49z m108 -59 c59 -75 -24 -189 -89 -124 -14 14
-20 33 -20 65 0 79 66 114 109 59z"/>
<path d="M2423 853 c-27 -5 -63 -48 -63 -75 0 -32 43 -65 104 -79 63 -14 74
-23 56 -44 -18 -22 -76 -19 -92 4 -17 23 -71 18 -66 -7 6 -31 57 -57 113 -57
69 0 109 27 113 77 4 44 -15 61 -98 85 -41 12 -65 24 -65 34 0 20 62 24 83 6
11 -10 28 -13 45 -10 30 6 31 7 17 33 -17 31 -81 46 -147 33z"/>
<path d="M3040 840 c-24 -24 -30 -25 -30 -5 0 10 -10 15 -30 15 l-30 0 0 -130
0 -130 35 0 35 0 0 80 c0 97 13 130 50 130 33 0 60 44 34 54 -27 10 -43 7 -64
-14z"/>
<path d="M3201 850 c-23 -10 -50 -37 -51 -51 0 -15 55 -16 65 -2 16 22 80 14
80 -11 0 -15 -14 -23 -65 -37 -68 -18 -90 -37 -90 -79 0 -62 69 -97 131 -66
39 20 39 20 39 1 0 -10 10 -15 34 -15 34 0 35 0 25 32 -5 18 -9 69 -9 114 0
68 -3 84 -20 99 -23 21 -104 30 -139 15z"/>
<path d="M3533 841 c-27 -17 -33 -18 -33 -6 0 10 -10 15 -30 15 l-30 0 0 -130
0 -130 30 0 30 0 0 83 c0 91 14 130 48 135 44 6 52 -13 52 -119 l0 -99 36 0
36 0 -4 115 c-3 128 -10 142 -69 151 -24 3 -44 -1 -66 -15z"/>
<path d="M3783 853 c-27 -5 -63 -48 -63 -75 0 -32 43 -65 104 -79 63 -14 74
-23 56 -44 -18 -22 -76 -19 -92 4 -17 23 -71 18 -66 -7 6 -31 57 -57 113 -57
69 0 109 27 113 77 4 44 -15 61 -98 85 -41 12 -65 24 -65 34 0 20 62 24 83 6
11 -10 28 -13 45 -10 30 6 31 7 17 33 -17 31 -81 46 -147 33z"/>
<path d="M4241 843 c-108 -57 -83 -227 37 -248 49 -8 105 15 135 56 24 34 26
109 3 143 -38 58 -116 80 -175 49z m108 -59 c59 -75 -24 -189 -89 -124 -14 14
-20 33 -20 65 0 79 66 114 109 59z"/>
<path d="M4570 840 c-24 -24 -30 -25 -30 -5 0 10 -10 15 -30 15 l-30 0 0 -130
0 -130 35 0 35 0 0 80 c0 97 13 130 50 130 33 0 60 44 34 54 -27 10 -43 7 -64
-14z"/>
<path d="M4773 840 c-27 -16 -33 -17 -33 -5 0 10 -10 15 -30 15 l-30 0 0 -130
0 -130 35 0 35 0 0 94 c0 99 10 126 49 126 34 0 41 -21 41 -122 l0 -98 29 0
28 0 5 95 c6 104 17 128 57 123 26 -3 26 -3 29 -110 l3 -108 34 0 35 0 0 108
c0 123 -10 147 -65 158 -26 4 -44 1 -70 -15 -19 -11 -35 -17 -35 -12 0 10 -46
31 -68 31 -9 0 -32 -9 -49 -20z"/>
<path d="M5171 850 c-23 -10 -50 -37 -51 -51 0 -15 55 -16 65 -2 16 22 80 14
80 -11 0 -15 -14 -23 -65 -37 -68 -18 -90 -37 -90 -79 0 -62 69 -97 131 -66
39 20 39 20 39 1 0 -10 10 -15 34 -15 34 0 35 0 25 32 -5 18 -9 69 -9 114 0
68 -3 84 -20 99 -23 21 -104 30 -139 15z"/>
<path d="M5503 841 c-27 -17 -33 -18 -33 -6 0 10 -10 15 -30 15 l-30 0 0 -130
0 -130 30 0 30 0 0 83 c0 91 14 130 48 135 44 6 52 -13 52 -119 l0 -99 36 0
36 0 -4 115 c-3 128 -10 142 -69 151 -24 3 -44 -1 -66 -15z"/>
<path d="M6071 843 c-108 -57 -83 -227 37 -248 49 -8 105 15 135 56 24 34 26
109 3 143 -38 58 -116 80 -175 49z m108 -59 c59 -75 -24 -189 -89 -124 -14 14
-20 33 -20 65 0 79 66 114 109 59z"/>
<path d="M1630 720 l0 -130 30 0 30 0 0 130 0 130 -30 0 -30 0 0 -130z"/>
<path d="M827 738 c-3 -13 -9 -74 -13 -135 l-7 -113 38 0 38 0 -7 112 c-4 61
-9 122 -12 135 -8 29 -30 30 -37 1z"/>
<path d="M1375 451 c-40 -18 -60 -51 -60 -102 0 -39 5 -54 26 -74 33 -33 84
-41 132 -21 35 14 37 17 37 60 l0 46 -45 0 c-38 0 -45 -3 -45 -20 0 -15 7 -20
26 -20 33 0 29 -34 -5 -38 -60 -9 -100 34 -85 92 11 46 82 64 105 27 7 -11 19
-16 31 -13 23 6 23 14 0 42 -19 24 -84 35 -117 21z"/>
<path d="M1750 350 c0 -91 3 -110 15 -110 8 0 15 4 15 9 0 5 13 4 29 -2 78
-29 126 93 55 139 -20 14 -30 15 -49 6 -24 -11 -25 -10 -25 28 0 33 -3 40 -20
40 -19 0 -20 -7 -20 -110z"/>
<path d="M2780 350 c0 -103 1 -110 20 -110 17 0 19 8 22 83 l3 82 20 -80 c24
-93 47 -111 64 -48 5 21 16 58 23 83 l13 45 3 -82 c3 -75 5 -83 22 -83 19 0
20 7 20 111 l0 110 -32 -3 c-29 -3 -32 -7 -49 -67 -26 -92 -25 -93 -54 12 -14
53 -18 57 -45 57 l-30 0 0 -110z"/>
<path d="M4312 444 c-12 -8 -22 -21 -22 -29 0 -22 22 -29 35 -12 15 21 51 22
59 1 8 -20 -7 -47 -41 -74 -27 -21 -63 -68 -63 -82 0 -5 34 -8 75 -8 68 0 75
2 75 20 0 17 -7 20 -47 20 l-47 0 42 43 c31 32 42 51 42 74 0 35 -29 63 -65
63 -11 0 -31 -7 -43 -16z"/>
<path d="M4489 441 c-21 -17 -24 -28 -24 -91 0 -63 3 -74 24 -91 29 -24 53
-24 82 0 21 17 24 28 24 91 0 63 -3 74 -24 91 -13 10 -31 19 -41 19 -10 0 -28
-9 -41 -19z"/>
<path d="M4656 439 c-14 -11 -26 -25 -26 -30 0 -19 31 -21 44 -4 7 9 21 16 32
13 36 -6 27 -38 -25 -93 -71 -75 -68 -85 19 -85 63 0 70 2 70 20 0 17 -7 20
-46 20 l-47 0 47 43 c52 49 59 84 26 117 -26 26 -60 25 -94 -1z"/>
<path d="M4846 390 c-25 -38 -46 -79 -46 -90 0 -17 7 -20 45 -20 38 0 45 -3
45 -20 0 -13 7 -20 20 -20 13 0 20 7 20 20 0 11 5 20 10 20 6 0 10 9 10 20 0
11 -4 20 -10 20 -6 0 -10 30 -10 70 0 61 -2 70 -19 70 -11 0 -35 -25 -65 -70z"/>
<path d="M5282 444 c-12 -8 -22 -21 -22 -29 0 -22 22 -29 35 -12 15 21 51 22
59 1 8 -20 -7 -47 -41 -74 -27 -21 -63 -68 -63 -82 0 -5 34 -8 75 -8 68 0 75
2 75 20 0 17 -7 20 -47 20 l-47 0 42 43 c31 32 42 51 42 74 0 35 -29 63 -65
63 -11 0 -31 -7 -43 -16z"/>
<path d="M5450 438 c-16 -17 -20 -35 -20 -88 0 -74 21 -110 65 -110 44 0 65
36 65 110 0 74 -21 110 -65 110 -13 0 -33 -10 -45 -22z"/>
<path d="M5622 444 c-12 -8 -22 -21 -22 -29 0 -22 22 -29 35 -12 15 21 51 22
59 1 8 -20 -7 -47 -41 -74 -27 -21 -63 -68 -63 -82 0 -5 34 -8 75 -8 68 0 75
2 75 20 0 17 -7 20 -47 20 l-47 0 42 43 c31 32 42 51 42 74 0 35 -29 63 -65
63 -11 0 -31 -7 -43 -16z"/>
<path d="M1593 390 c-44 -18 -57 -81 -24 -121 27 -33 95 -33 122 0 53 66 -19
155 -98 121z"/>
<path d="M2039 381 c-18 -14 -24 -29 -24 -61 0 -32 6 -47 24 -61 26 -21 62
-24 93 -8 16 9 18 13 7 20 -8 4 -24 6 -37 2 -22 -5 -52 11 -52 28 0 5 25 9 56
9 l56 0 -6 28 c-14 57 -73 79 -117 43z"/>
<path d="M2525 378 c-57 -50 -22 -138 55 -138 34 0 73 43 73 80 0 24 -7 40
-27 57 -34 29 -68 29 -101 1z"/>
<path d="M3760 290 c0 -103 1 -110 20 -110 17 0 20 7 20 39 0 39 0 39 29 28
76 -28 123 95 54 140 -20 13 -31 14 -54 6 -16 -6 -29 -7 -29 -2 0 5 -9 9 -20
9 -19 0 -20 -7 -20 -110z"/>
<path d="M3978 393 c-9 -2 -19 -10 -22 -18 -6 -17 25 -30 34 -14 10 15 45 7
45 -11 0 -8 -14 -17 -34 -21 -44 -9 -65 -31 -56 -58 8 -26 42 -35 78 -22 17 7
27 7 27 1 0 -6 8 -10 18 -10 15 0 17 9 14 67 -4 87 -28 106 -104 86z"/>
</g>
</svg>
