<?xml version="1.0" standalone="no"?>
<!DOCTYPE svg PUBLIC "-//W3C//DTD SVG 20010904//EN"
 "http://www.w3.org/TR/2001/REC-SVG-20010904/DTD/svg10.dtd">
<svg version="1.0" xmlns="http://www.w3.org/2000/svg"
 width="59.000000pt" height="78.000000pt" viewBox="0 0 59.000000 78.000000"
 preserveAspectRatio="xMidYMid meet">
<metadata>
Created by potrace 1.16, written by Peter Selinger 2001-2019
</metadata>
<g transform="translate(0.000000,78.000000) scale(0.100000,-0.100000)"
fill="#000000" stroke="none">
<path d="M29 751 l-29 -29 0 -351 c0 -336 1 -351 19 -361 30 -16 532 -13 555
3 14 10 16 25 14 87 l-3 75 -185 5 -185 5 -3 45 c-2 25 -7 49 -13 54 -21 22
-2 26 139 26 102 0 152 4 160 12 17 17 16 132 -1 146 -8 7 -69 13 -148 14
l-134 3 -5 46 c-3 26 -12 54 -19 63 -12 15 3 16 175 16 104 0 195 4 202 9 9 5
12 29 10 82 l-3 74 -258 3 -258 2 -30 -29z"/>
</g>
</svg>
