<?xml version="1.0" standalone="no"?>
<!DOCTYPE svg PUBLIC "-//W3C//DTD SVG 20010904//EN"
 "http://www.w3.org/TR/2001/REC-SVG-20010904/DTD/svg10.dtd">
<svg version="1.0" xmlns="http://www.w3.org/2000/svg"
 width="714.000000pt" height="498.000000pt" viewBox="0 0 714.000000 498.000000"
 preserveAspectRatio="xMidYMid meet">
<metadata>
Created by potrace 1.16, written by Peter Selinger 2001-2019
</metadata>
<g transform="translate(0.000000,498.000000) scale(0.100000,-0.100000)"
fill="#000000" stroke="none">
<path d="M0 2490 l0 -2490 3570 0 3570 0 0 2490 0 2490 -3570 0 -3570 0 0
-2490z m2976 2265 c88 -19 143 -41 221 -91 63 -40 765 -730 789 -776 21 -41
18 -110 -7 -142 -40 -51 -112 -71 -162 -45 -12 6 -188 177 -392 379 -406 403
-414 409 -536 418 -86 6 -150 -10 -216 -54 -104 -68 -168 -214 -144 -331 15
-79 42 -129 103 -198 51 -57 53 -61 53 -117 0 -51 -3 -61 -31 -89 -36 -36 -97
-48 -144 -29 -48 20 -143 132 -184 214 -68 140 -83 277 -46 420 28 110 73 190
155 272 150 151 340 210 541 169z m1459 0 c217 -46 378 -194 456 -420 23 -67
19 -265 -8 -350 -42 -135 -74 -173 -473 -572 -402 -402 -405 -404 -483 -382
-55 15 -87 63 -87 129 l0 54 379 380 c355 358 380 385 400 441 32 84 36 140
17 213 -28 112 -100 193 -205 233 -44 16 -73 20 -136 17 -97 -4 -148 -26 -234
-103 -33 -29 -73 -56 -90 -60 -73 -16 -156 50 -156 124 0 56 22 91 92 154 147
130 340 182 528 142z m-1480 -394 c80 -37 126 -107 127 -194 1 -57 -21 -119
-55 -156 -29 -31 -114 -71 -152 -71 -166 0 -275 173 -200 320 52 103 177 149
280 101z m1433 3 c110 -46 164 -178 118 -289 -44 -103 -163 -159 -267 -123
-190 64 -199 333 -14 414 41 18 118 17 163 -2z m-1119 -522 c61 -30 88 -112
57 -170 -8 -15 -171 -182 -361 -372 -191 -190 -359 -363 -374 -385 -45 -65
-62 -121 -62 -202 0 -131 70 -241 191 -301 131 -64 274 -34 398 82 49 46 65
54 105 55 70 2 138 -63 136 -130 -1 -50 -9 -65 -69 -126 -215 -215 -544 -238
-793 -55 -249 184 -309 534 -139 807 38 62 756 782 797 801 41 18 74 17 114
-4z m1422 -655 c80 -54 183 -218 209 -333 16 -70 14 -219 -5 -288 -27 -101
-82 -194 -165 -277 -117 -119 -243 -169 -420 -169 -111 0 -177 16 -280 66 -70
34 -100 61 -469 429 l-394 393 5 57 c4 46 10 62 35 86 32 32 90 47 137 35 16
-4 168 -149 389 -369 204 -204 382 -374 407 -388 174 -101 393 -32 479 150 21
46 26 70 26 136 0 99 -31 172 -105 251 -27 28 -52 64 -56 78 -12 49 3 99 41
134 29 27 42 32 83 32 34 0 59 -7 83 -23z m-2901 -212 c108 -16 207 -44 297
-85 l62 -28 -6 -99 c-16 -267 92 -492 305 -634 43 -28 79 -53 81 -55 2 -2
-253 -4 -567 -4 l-572 0 -26 53 c-84 166 -207 277 -375 338 -63 23 -199 49
-256 49 -32 0 -5 40 90 134 270 269 610 386 967 331z m3920 0 c244 -37 453
-148 648 -342 56 -56 102 -106 102 -111 0 -5 -45 -14 -99 -20 -254 -29 -442
-156 -551 -370 l-31 -62 -560 0 c-330 0 -559 4 -559 9 0 5 28 28 63 51 82 56
120 92 173 167 51 71 96 165 115 243 14 59 18 247 6 292 -7 25 -3 29 40 49
109 48 217 79 363 102 59 10 202 6 290 -8z m-2747 -52 c62 -31 109 -95 121
-166 17 -93 -54 -209 -142 -235 -153 -46 -291 51 -292 207 0 158 172 266 313
194z m1440 1 c170 -87 156 -341 -22 -402 -47 -17 -115 -15 -159 4 -179 74
-174 336 8 407 33 12 142 7 173 -9z m-3520 -560 c165 -42 274 -140 324 -289
25 -77 26 -89 27 -305 0 -189 -3 -235 -18 -285 -25 -83 -49 -127 -98 -178 -53
-55 -104 -87 -188 -118 -58 -21 -82 -23 -220 -24 -126 0 -165 3 -210 19 -168
57 -256 141 -301 286 -17 57 -20 93 -20 290 -1 194 2 235 19 299 41 151 158
261 325 306 73 19 283 19 360 -1z m5772 -19 c128 -52 205 -116 252 -212 31
-64 44 -180 22 -194 -8 -5 -75 -9 -150 -9 -152 0 -156 2 -179 73 -29 91 -128
140 -238 117 -62 -14 -95 -39 -125 -93 -21 -40 -22 -54 -22 -252 0 -204 1
-211 25 -260 33 -67 82 -95 166 -95 103 0 168 42 199 130 9 24 21 48 28 52 17
11 279 10 296 -1 20 -13 9 -122 -18 -184 -29 -68 -125 -161 -203 -197 -84 -39
-189 -60 -301 -60 -292 1 -472 130 -518 374 -15 78 -11 420 6 499 35 164 152
280 335 332 41 11 93 14 205 12 138 -3 156 -6 220 -32z m-5078 -415 c17 -19
38 -56 146 -252 23 -43 45 -78 49 -78 3 0 45 71 94 158 48 86 94 165 102 175
12 13 31 17 92 17 46 0 81 -5 88 -12 9 -9 12 -107 12 -380 0 -428 11 -393
-118 -384 -42 2 -78 5 -79 5 -2 1 -4 92 -5 204 l-3 202 -32 -55 c-17 -30 -40
-71 -51 -91 -44 -80 -43 -79 -99 -79 -58 0 -62 4 -118 110 -70 133 -65 139
-65 -83 l0 -197 -26 -10 c-28 -11 -117 -13 -151 -4 l-23 6 0 350 c0 219 4 356
10 368 26 49 144 69 177 30z m1301 -59 c2 -53 -1 -77 -10 -82 -7 -5 -98 -9
-202 -9 -148 0 -187 -3 -178 -12 7 -7 12 -28 12 -48 0 -65 9 -70 153 -71 150
-1 157 -4 157 -82 0 -82 3 -80 -174 -79 -141 1 -176 -5 -146 -23 6 -3 10 -19
10 -35 0 -16 4 -40 10 -54 l10 -26 174 0 c137 0 176 -3 185 -14 7 -9 11 -41 9
-83 l-3 -68 -284 -3 c-221 -2 -286 1 -293 10 -12 19 -10 662 2 693 6 15 20 35
33 46 20 17 40 18 277 16 l255 -2 3 -74z m736 63 c8 -20 8 -128 0 -148 -5 -13
-26 -16 -132 -16 -111 0 -124 -2 -106 -14 18 -13 19 -30 22 -273 2 -142 0
-268 -3 -281 -5 -22 -8 -23 -108 -20 l-102 3 -3 287 -2 288 -23 5 c-12 3 -60
6 -107 7 l-85 3 -3 58 c-3 52 0 60 27 87 l29 30 295 0 c260 0 296 -2 301 -16z
m670 0 c11 -28 6 -130 -6 -142 -9 -9 -69 -12 -207 -12 -158 0 -192 -2 -179
-12 9 -7 18 -34 21 -61 2 -26 7 -51 10 -54 4 -3 67 -6 142 -7 109 -1 138 -4
146 -16 10 -16 7 -125 -4 -136 -3 -4 -75 -8 -159 -9 -84 -1 -155 -3 -158 -4
-2 0 1 -6 8 -13 7 -7 12 -33 12 -59 0 -33 5 -49 16 -53 9 -3 91 -6 183 -6 117
0 171 -4 179 -12 12 -12 17 -114 6 -142 -5 -14 -40 -16 -289 -16 -249 0 -284
2 -289 16 -11 27 -7 659 4 690 21 60 39 63 311 64 216 0 248 -2 253 -16z m646
-11 c90 -42 140 -120 140 -220 0 -80 -16 -128 -56 -173 -53 -58 -115 -80 -252
-88 l-117 -7 -5 -125 -5 -125 -99 -3 c-73 -2 -102 1 -108 10 -13 21 -10 675 3
701 29 56 38 58 254 54 177 -3 205 -5 245 -24z m814 11 c11 -28 6 -130 -6
-142 -8 -8 -68 -12 -202 -12 -148 0 -187 -3 -178 -12 7 -7 12 -31 12 -54 0
-23 6 -46 13 -52 8 -7 69 -13 148 -14 l134 -3 3 -74 c2 -53 -1 -77 -10 -82 -7
-5 -80 -9 -162 -9 -117 0 -147 -3 -138 -12 7 -7 12 -33 12 -59 0 -33 5 -49 16
-53 9 -3 91 -6 183 -6 117 0 171 -4 179 -12 13 -13 16 -126 4 -146 -7 -9 -72
-12 -293 -10 l-284 3 -3 353 -2 353 29 30 29 29 255 0 c223 0 256 -2 261 -16z
m-4714 -1118 c0 -109 3 -138 16 -150 22 -22 55 -29 85 -17 32 12 39 44 39 194
l0 107 35 0 35 0 0 -150 0 -150 -29 -32 c-29 -32 -32 -33 -110 -33 -73 0 -83
2 -106 26 -35 35 -44 81 -45 222 l0 117 40 0 40 0 0 -134z m980 -46 l0 -180
-35 0 c-25 0 -35 4 -35 16 0 14 -2 14 -22 0 -31 -22 -90 -20 -120 4 -37 28
-51 72 -46 137 4 48 10 61 37 85 33 30 85 37 122 18 18 -10 19 -7 19 45 l0 55
40 0 40 0 0 -180z m2148 153 c-2 -22 -8 -28 -28 -28 -18 0 -26 -6 -28 -22 -3
-19 1 -23 22 -23 21 0 26 -5 26 -25 0 -20 -5 -25 -25 -25 l-25 0 0 -105 0
-105 -40 0 -40 0 0 105 c0 98 -1 105 -20 105 -15 0 -20 7 -20 25 0 18 5 25 20
25 16 0 20 7 20 30 0 46 31 70 91 70 49 0 50 -1 47 -27z m1792 -153 l0 -180
-35 0 c-25 0 -35 4 -35 16 0 14 -2 14 -22 0 -31 -22 -90 -20 -120 4 -37 28
-51 72 -46 137 4 48 10 61 37 85 33 30 85 37 122 18 18 -10 19 -7 19 45 l0 55
40 0 40 0 0 -180z m460 122 c0 -33 -3 -93 -6 -135 -6 -71 -9 -77 -29 -77 -25
0 -29 15 -41 178 l-7 92 42 0 41 0 0 -58z m-3540 3 c0 -41 2 -45 25 -45 20 0
25 -5 25 -25 0 -20 -5 -25 -25 -25 -26 0 -26 0 -23 -77 3 -74 4 -78 26 -76 18
2 22 -2 22 -27 0 -29 -2 -30 -44 -30 -67 0 -76 15 -76 121 0 82 -1 89 -20 89
-15 0 -20 7 -20 25 0 18 5 25 20 25 15 0 20 7 20 28 0 19 8 32 28 44 40 24 42
22 42 -27z m-1334 -58 c25 -22 27 -29 32 -135 l5 -112 -42 0 -41 0 0 94 c0 73
-4 98 -16 110 -20 20 -33 20 -56 -1 -15 -13 -18 -32 -18 -110 l0 -93 -40 0
-40 0 0 130 0 130 35 0 c25 0 35 -4 35 -16 0 -13 5 -12 26 5 35 28 86 27 120
-2z m732 3 c35 -21 62 -72 62 -115 0 -43 -27 -93 -62 -115 -26 -17 -45 -20
-87 -17 -48 3 -59 9 -89 42 -32 35 -34 40 -30 96 4 61 29 101 73 119 37 16 99
11 133 -10z m294 -11 c25 -25 29 -33 17 -40 -21 -13 -47 -11 -74 7 -28 18 -79
12 -72 -9 2 -6 30 -19 63 -27 73 -20 83 -25 95 -58 13 -35 -6 -79 -42 -97 -34
-18 -108 -19 -143 -3 -36 16 -63 58 -45 69 19 12 69 11 69 -1 0 -16 41 -32 66
-26 44 11 26 33 -48 57 -81 27 -101 53 -82 106 12 36 47 53 112 53 47 0 58 -4
84 -31z m552 22 c4 -5 2 -21 -3 -34 -8 -19 -15 -24 -31 -20 -40 11 -50 -12
-50 -113 l0 -94 -40 0 -40 0 0 130 0 130 35 0 c21 0 35 -5 35 -12 0 -8 6 -6
17 5 18 18 68 23 77 8z m231 -16 c23 -22 25 -32 25 -119 0 -52 3 -101 6 -110
5 -13 -1 -16 -29 -16 -19 0 -37 5 -39 11 -3 9 -9 9 -25 0 -29 -15 -94 -14
-115 3 -29 21 -40 64 -26 94 15 30 44 47 106 62 32 8 42 15 40 28 -4 22 -51
28 -68 8 -14 -18 -47 -21 -69 -7 -12 7 -8 15 17 40 27 28 37 31 92 31 51 0 65
-4 85 -25z m301 2 c25 -22 27 -29 32 -135 l5 -112 -42 0 -41 0 0 94 c0 73 -4
98 -16 110 -20 20 -33 20 -56 -1 -15 -13 -18 -32 -18 -110 l0 -93 -40 0 -40 0
0 130 0 130 35 0 c25 0 35 -4 35 -16 0 -13 5 -12 26 5 35 28 86 27 120 -2z
m276 -8 c25 -25 29 -33 17 -40 -21 -13 -47 -11 -74 7 -28 18 -79 12 -72 -9 2
-6 30 -19 63 -27 73 -20 83 -25 95 -58 13 -35 -6 -79 -42 -97 -34 -18 -108
-19 -143 -3 -36 16 -63 58 -45 69 19 12 69 11 69 -1 0 -16 41 -32 66 -26 44
11 26 33 -48 57 -81 27 -101 53 -82 106 12 36 47 53 112 53 47 0 58 -4 84 -31z
m456 11 c35 -21 62 -72 62 -115 0 -43 -27 -93 -62 -115 -26 -17 -45 -20 -87
-17 -48 3 -59 9 -89 42 -32 35 -34 40 -30 96 4 61 29 101 73 119 37 16 99 11
133 -10z m266 11 c4 -5 2 -21 -3 -34 -8 -19 -15 -24 -31 -20 -40 11 -50 -12
-50 -113 l0 -94 -40 0 -40 0 0 130 0 130 35 0 c21 0 35 -5 35 -12 0 -8 6 -6
17 5 18 18 68 23 77 8z m234 -7 c20 -14 24 -14 44 0 35 25 90 20 119 -10 21
-23 24 -36 27 -135 l4 -109 -41 0 -40 0 -3 101 c-2 83 -6 104 -20 113 -13 8
-22 6 -37 -8 -18 -17 -21 -31 -21 -113 l0 -93 -40 0 -39 0 -3 107 c-3 116 -11
130 -53 99 -17 -12 -21 -29 -23 -110 l-4 -96 -34 0 -34 0 0 130 0 130 35 0
c19 0 35 -5 35 -11 0 -5 10 -3 22 5 12 9 36 16 53 16 17 0 41 -7 53 -16z m437
-9 c23 -22 25 -32 25 -119 0 -52 3 -101 6 -110 5 -13 -1 -16 -29 -16 -19 0
-37 5 -39 11 -3 9 -9 9 -25 0 -29 -15 -94 -14 -115 3 -29 21 -40 64 -26 94 15
30 44 47 106 62 32 8 42 15 40 28 -4 22 -51 28 -68 8 -14 -18 -47 -21 -69 -7
-12 7 -8 15 17 40 27 28 37 31 92 31 51 0 65 -4 85 -25z m301 2 c25 -22 27
-29 32 -135 l5 -112 -42 0 -41 0 0 94 c0 73 -4 98 -16 110 -20 20 -33 20 -56
-1 -15 -13 -18 -32 -18 -110 l0 -93 -40 0 -40 0 0 130 0 130 35 0 c25 0 35 -4
35 -16 0 -13 5 -12 26 5 35 28 86 27 120 -2z m592 3 c35 -21 62 -72 62 -115 0
-43 -27 -93 -62 -115 -26 -17 -45 -20 -87 -17 -48 3 -59 9 -89 42 -32 35 -34
40 -30 96 4 61 29 101 73 119 37 16 99 11 133 -10z m-4508 -120 l0 -130 -40 0
-40 0 0 130 0 130 40 0 40 0 0 -130z m-821 -73 c16 -166 18 -157 -29 -157
l-40 0 0 68 c0 37 3 97 7 135 5 61 8 67 28 67 21 0 23 -7 34 -113z m616 -219
c27 -32 27 -32 6 -42 -17 -7 -26 -4 -44 12 -28 26 -45 27 -75 6 -29 -20 -30
-76 -2 -104 21 -21 32 -23 68 -14 30 9 28 34 -3 34 -18 0 -25 5 -25 20 0 17 7
20 50 20 l50 0 0 -45 c0 -40 -3 -46 -32 -61 -47 -25 -125 -14 -155 20 -36 42
-33 118 6 157 25 24 38 29 79 29 44 0 53 -4 77 -32z m295 -2 c0 -34 1 -35 35
-29 49 8 75 -17 75 -71 0 -23 -7 -51 -15 -63 -13 -19 -25 -22 -80 -22 l-65 1
0 109 0 109 25 0 c22 0 25 -4 25 -34z m1075 -38 l19 -73 19 73 20 72 39 0 38
0 0 -110 c0 -109 0 -110 -24 -110 -21 0 -24 6 -31 63 l-8 62 -15 -62 c-13 -54
-19 -63 -38 -63 -19 0 -24 10 -40 73 l-19 72 -3 -72 c-3 -70 -4 -73 -27 -73
l-25 0 0 110 0 110 38 0 38 0 19 -72z m1545 52 c33 -33 26 -68 -26 -117 l-47
-43 47 0 c39 0 46 -3 46 -20 0 -18 -7 -20 -75 -20 -93 0 -95 10 -25 84 28 29
50 61 50 70 0 24 -30 33 -45 13 -14 -20 -55 -23 -55 -4 0 7 9 23 20 35 27 29
83 29 110 2z m170 -2 c16 -17 20 -35 20 -88 0 -77 -21 -110 -70 -110 -49 0
-70 33 -70 110 0 77 21 110 70 110 17 0 38 -9 50 -22z m172 5 c32 -28 23 -72
-24 -120 l-42 -43 47 0 c40 0 47 -3 47 -20 0 -18 -7 -20 -80 -20 -44 0 -80 3
-80 6 0 16 43 73 65 88 38 25 50 55 31 74 -14 14 -17 14 -34 -1 -40 -37 -72
-6 -35 35 20 23 80 24 105 1z m178 -53 c0 -56 3 -70 15 -70 8 0 15 -9 15 -20
0 -11 -7 -20 -15 -20 -8 0 -15 -9 -15 -20 0 -15 -7 -20 -25 -20 -18 0 -25 5
-25 20 0 17 -7 20 -45 20 -59 0 -59 13 3 107 35 55 53 73 70 73 21 0 22 -4 22
-70z m450 50 c33 -33 26 -68 -26 -117 l-47 -43 47 0 c39 0 46 -3 46 -20 0 -18
-7 -20 -75 -20 -93 0 -95 10 -25 84 28 29 50 61 50 70 0 24 -30 33 -45 13 -14
-20 -55 -23 -55 -4 0 7 9 23 20 35 27 29 83 29 110 2z m166 -1 c15 -16 19 -36
19 -89 0 -80 -19 -110 -70 -110 -51 0 -70 30 -70 110 0 80 19 110 70 110 20 0
39 -8 51 -21z m174 1 c33 -33 26 -68 -26 -117 l-47 -43 47 0 c39 0 46 -3 46
-20 0 -18 -7 -20 -75 -20 -93 0 -95 10 -25 84 28 29 50 61 50 70 0 24 -30 33
-45 13 -14 -20 -55 -23 -55 -4 0 7 9 23 20 35 27 29 83 29 110 2z m-4030 -65
c50 -53 13 -135 -62 -135 -76 0 -108 80 -55 138 29 31 86 30 117 -3z m450 5
c11 -11 20 -31 20 -45 0 -23 -3 -25 -50 -25 -36 0 -50 -4 -50 -14 0 -18 22
-26 49 -19 11 3 29 2 38 -2 17 -6 17 -7 -1 -21 -29 -21 -92 -18 -116 6 -27 27
-27 89 0 118 27 29 83 29 110 2z m307 8 c8 -7 13 -35 13 -79 0 -67 -1 -69 -25
-69 -24 0 -25 3 -25 59 0 62 -7 75 -34 65 -12 -5 -16 -20 -16 -65 0 -56 -1
-59 -25 -59 -25 0 -25 1 -25 79 l0 78 62 1 c34 1 68 -4 75 -10z m188 -13 c52
-51 15 -135 -60 -135 -46 0 -85 36 -85 80 0 44 39 80 85 80 25 0 44 -8 60 -25z
m445 -35 c0 -45 4 -62 15 -66 28 -11 45 16 45 72 0 51 1 54 25 54 25 0 25 -1
25 -79 l0 -79 -65 -1 c-80 0 -95 15 -95 101 0 55 1 58 25 58 24 0 25 -3 25
-60z m285 37 c9 -13 15 -44 15 -79 0 -55 -1 -58 -25 -58 -24 0 -25 3 -25 60 0
45 -4 62 -15 66 -28 11 -45 -16 -45 -72 0 -51 -1 -54 -25 -54 -25 0 -25 1 -25
79 l0 79 65 0 c55 0 67 -3 80 -21z m521 15 c37 -24 43 -88 13 -127 -18 -22
-28 -26 -55 -23 -33 4 -34 3 -34 -29 0 -29 -3 -33 -25 -33 l-25 0 0 109 0 108
58 1 c32 0 63 -2 68 -6z m188 -14 c10 -14 16 -44 16 -79 l0 -56 -64 -1 c-70
-1 -90 10 -84 50 2 17 14 26 48 37 55 17 57 18 42 33 -9 9 -18 8 -37 -2 -32
-17 -56 0 -35 25 20 24 95 20 114 -7z"/>
<path d="M650 2118 c-46 -13 -96 -51 -117 -91 -15 -26 -18 -66 -21 -225 -5
-262 12 -322 102 -363 97 -44 209 -13 256 71 24 43 25 54 28 240 4 211 -2 251
-45 309 -40 52 -132 79 -203 59z"/>
<path d="M4624 1768 c10 -15 16 -45 16 -85 0 -77 14 -88 104 -80 72 7 106 36
106 92 0 76 -32 95 -155 95 l-86 0 15 -22z"/>
<path d="M1854 802 c-54 -36 -36 -161 24 -162 50 0 75 123 30 154 -25 18 -37
19 -54 8z"/>
<path d="M5794 802 c-54 -36 -36 -161 24 -162 50 0 75 123 30 154 -25 18 -37
19 -54 8z"/>
<path d="M2159 791 c-34 -28 -34 -104 0 -132 30 -24 46 -24 71 1 41 41 16 150
-34 150 -8 0 -24 -9 -37 -19z"/>
<path d="M4269 791 c-19 -15 -24 -29 -24 -66 0 -37 5 -51 24 -66 30 -24 46
-24 71 1 41 41 16 150 -34 150 -8 0 -24 -9 -37 -19z"/>
<path d="M6099 791 c-19 -15 -24 -29 -24 -66 0 -37 5 -51 24 -66 30 -24 46
-24 71 1 41 41 16 150 -34 150 -8 0 -24 -9 -37 -19z"/>
</g>
</svg>
