<?xml version="1.0" standalone="no"?>
<!DOCTYPE svg PUBLIC "-//W3C//DTD SVG 20010904//EN"
 "http://www.w3.org/TR/2001/REC-SVG-20010904/DTD/svg10.dtd">
<svg version="1.0" xmlns="http://www.w3.org/2000/svg"
 width="561.000000pt" height="46.000000pt" viewBox="0 0 561.000000 46.000000"
 preserveAspectRatio="xMidYMid meet">
<metadata>
Created by potrace 1.16, written by Peter Selinger 2001-2019
</metadata>
<g transform="translate(0.000000,46.000000) scale(0.100000,-0.100000)"
fill="#000000" stroke="none">
<path d="M152 313 c3 -161 12 -188 64 -211 38 -18 141 -15 174 5 44 25 52 56
58 211 l5 142 -47 0 -46 0 0 -139 c0 -133 -1 -141 -22 -155 -32 -22 -55 -20
-83 9 -24 23 -25 29 -25 155 l0 130 -41 0 -41 0 4 -147z"/>
<path d="M1130 405 c0 -52 -1 -55 -19 -45 -30 16 -94 12 -117 -8 -34 -27 -44
-56 -44 -122 0 -57 3 -65 34 -96 28 -28 41 -34 78 -34 24 0 50 6 57 12 11 10
14 10 18 1 3 -7 20 -13 39 -13 l34 0 0 180 0 180 -40 0 -40 0 0 -55z"/>
<path d="M3242 444 c-15 -11 -22 -25 -22 -50 0 -27 -4 -34 -20 -34 -15 0 -20
-7 -20 -25 0 -18 5 -25 20 -25 19 0 20 -7 20 -105 l0 -105 40 0 40 0 0 105 0
105 25 0 c20 0 25 5 25 25 0 20 -5 25 -26 25 -21 0 -25 4 -22 23 2 17 9 22 31
20 24 -2 27 2 27 28 0 28 -2 29 -48 29 -27 0 -57 -7 -70 -16z"/>
<path d="M5070 405 c0 -52 -1 -55 -19 -45 -30 16 -94 12 -117 -8 -34 -27 -44
-56 -44 -122 0 -57 3 -65 34 -96 28 -28 41 -34 78 -34 24 0 50 6 57 12 11 10
14 10 18 1 3 -7 20 -13 39 -13 l34 0 0 180 0 180 -40 0 -40 0 0 -55z"/>
<path d="M5534 355 c9 -148 14 -165 41 -165 20 0 23 6 28 68 4 37 7 97 7 135
l0 67 -41 0 -42 0 7 -105z"/>
<path d="M2023 429 c-22 -14 -33 -29 -33 -45 0 -15 -6 -24 -15 -24 -9 0 -15
-9 -15 -25 0 -14 6 -25 14 -25 9 0 15 -24 19 -92 7 -106 15 -118 84 -118 41 0
43 1 43 30 0 25 -4 29 -22 27 -22 -2 -23 2 -26 76 -3 77 -3 77 23 77 20 0 25
5 25 25 0 20 -5 25 -25 25 -23 0 -25 4 -25 45 0 25 -3 45 -7 45 -5 0 -23 -10
-40 -21z"/>
<path d="M612 354 c-12 -8 -22 -10 -22 -5 0 6 -16 11 -35 11 l-35 0 0 -130 0
-130 40 0 40 0 0 90 c0 77 3 93 20 110 22 22 29 24 50 10 11 -7 16 -34 18
-110 l4 -100 39 0 39 0 0 94 c0 101 -12 151 -40 166 -28 15 -93 12 -118 -6z"/>
<path d="M1318 354 c-37 -20 -58 -63 -58 -119 0 -90 47 -135 140 -135 43 0 55
5 88 34 36 33 37 37 37 101 0 64 -1 68 -37 101 -33 30 -44 34 -90 34 -29 -1
-65 -7 -80 -16z m112 -54 c39 -39 17 -150 -31 -150 -44 0 -77 66 -59 116 20
54 56 68 90 34z"/>
<path d="M1586 349 c-20 -16 -26 -29 -26 -59 0 -47 21 -64 100 -85 62 -16 67
-20 50 -40 -17 -21 -46 -19 -70 5 -21 21 -55 26 -79 11 -12 -8 -12 -13 3 -36
22 -33 54 -45 122 -45 48 0 60 4 85 29 58 58 25 119 -75 142 -60 13 -77 26
-55 40 21 13 46 11 63 -6 16 -16 53 -20 74 -6 18 11 -2 45 -35 60 -42 19 -127
14 -157 -10z"/>
<path d="M2236 354 c-9 -8 -16 -11 -16 -5 0 6 -16 11 -35 11 l-35 0 0 -130 0
-130 40 0 40 0 0 89 c0 96 14 128 52 118 19 -5 38 18 38 47 0 22 -63 21 -84 0z"/>
<path d="M2368 339 c-25 -25 -29 -33 -17 -40 19 -12 69 -12 69 0 0 13 34 23
54 15 30 -11 17 -33 -26 -44 -24 -6 -55 -16 -70 -21 -51 -20 -60 -102 -15
-134 25 -17 89 -20 117 -5 13 7 21 7 25 0 3 -5 24 -10 46 -10 36 0 39 2 29 19
-5 11 -10 62 -10 115 0 90 -1 95 -26 115 -20 16 -41 21 -86 21 -53 0 -63 -3
-90 -31z"/>
<path d="M2722 354 c-12 -8 -22 -10 -22 -5 0 6 -16 11 -35 11 l-35 0 0 -130 0
-130 40 0 40 0 0 90 c0 77 3 93 20 110 22 22 29 24 50 10 11 -7 16 -34 18
-110 l4 -100 39 0 39 0 0 94 c0 101 -12 151 -40 166 -28 15 -93 12 -118 -6z"/>
<path d="M2946 349 c-20 -16 -26 -29 -26 -59 0 -47 21 -64 100 -85 62 -16 67
-20 50 -40 -17 -21 -46 -19 -70 5 -21 21 -55 26 -79 11 -12 -8 -12 -13 3 -36
22 -33 54 -45 122 -45 48 0 60 4 85 29 58 58 25 119 -75 142 -60 13 -77 26
-55 40 21 13 46 11 63 -6 16 -16 53 -20 74 -6 18 11 -2 45 -35 60 -42 19 -127
14 -157 -10z"/>
<path d="M3428 354 c-37 -20 -58 -63 -58 -119 0 -90 47 -135 140 -135 43 0 55
5 88 34 36 33 37 37 37 101 0 64 -1 68 -37 101 -33 30 -44 34 -90 34 -29 -1
-65 -7 -80 -16z m112 -54 c39 -39 17 -150 -31 -150 -44 0 -77 66 -59 116 20
54 56 68 90 34z"/>
<path d="M3766 354 c-9 -8 -16 -11 -16 -5 0 6 -16 11 -35 11 l-35 0 0 -130 0
-130 40 0 40 0 0 89 c0 96 14 128 52 118 19 -5 38 18 38 47 0 22 -63 21 -84 0z"/>
<path d="M3967 353 c-11 -11 -17 -13 -17 -5 0 7 -14 12 -35 12 l-35 0 0 -130
0 -130 35 0 35 0 0 68 c0 113 28 173 66 141 10 -8 14 -39 14 -110 l0 -99 40 0
40 0 0 90 c0 77 3 93 20 110 43 43 60 12 60 -109 l0 -91 41 0 41 0 -4 116 c-3
107 -5 117 -27 135 -29 23 -88 25 -119 3 -21 -15 -25 -15 -41 0 -24 22 -92 21
-114 -1z"/>
<path d="M4338 339 c-25 -25 -29 -33 -17 -40 19 -12 69 -12 69 0 0 13 34 23
54 15 30 -11 17 -33 -26 -44 -24 -6 -55 -16 -70 -21 -51 -20 -60 -102 -15
-134 25 -17 89 -20 117 -5 13 7 21 7 25 0 3 -5 24 -10 46 -10 36 0 39 2 29 19
-5 11 -10 62 -10 115 0 90 -1 95 -26 115 -20 16 -41 21 -86 21 -53 0 -63 -3
-90 -31z"/>
<path d="M4692 354 c-12 -8 -22 -10 -22 -5 0 6 -16 11 -35 11 l-35 0 0 -130 0
-130 40 0 40 0 0 90 c0 77 3 93 20 110 22 22 29 24 50 10 11 -7 16 -34 18
-110 l4 -100 39 0 39 0 0 94 c0 101 -12 151 -40 166 -28 15 -93 12 -118 -6z"/>
<path d="M5258 354 c-37 -20 -58 -63 -58 -119 0 -90 47 -135 140 -135 43 0 55
5 88 34 36 33 37 37 37 101 0 64 -1 68 -37 101 -33 30 -44 34 -90 34 -29 -1
-65 -7 -80 -16z m112 -54 c39 -39 17 -150 -31 -150 -44 0 -77 66 -59 116 20
54 56 68 90 34z"/>
<path d="M820 230 l0 -130 40 0 40 0 0 130 0 130 -40 0 -40 0 0 -130z"/>
<path d="M17 218 c-4 -29 -9 -90 -13 -136 l-7 -82 48 0 48 0 -7 93 c-12 162
-16 177 -41 177 -19 0 -23 -7 -28 -52z"/>
</g>
</svg>
