<?xml version="1.0" standalone="no"?>
<!DOCTYPE svg PUBLIC "-//W3C//DTD SVG 20010904//EN"
 "http://www.w3.org/TR/2001/REC-SVG-20010904/DTD/svg10.dtd">
<svg version="1.0" xmlns="http://www.w3.org/2000/svg"
 width="67.000000pt" height="78.000000pt" viewBox="0 0 67.000000 78.000000"
 preserveAspectRatio="xMidYMid meet">
<metadata>
Created by potrace 1.16, written by Peter Selinger 2001-2019
</metadata>
<g transform="translate(0.000000,78.000000) scale(0.100000,-0.100000)"
fill="#000000" stroke="none">
<path d="M63 765 c-37 -16 -51 -39 -59 -97 -9 -69 4 -78 113 -81 50 -1 95 -6
100 -10 4 -5 10 -135 13 -290 l5 -282 105 0 105 0 3 274 c2 193 -1 278 -9 287
-6 8 -10 15 -8 15 2 1 56 4 119 8 l115 6 3 80 c2 66 0 82 -14 92 -26 19 -547
18 -591 -2z"/>
</g>
</svg>
