<?xml version="1.0" standalone="no"?>
<!DOCTYPE svg PUBLIC "-//W3C//DTD SVG 20010904//EN"
 "http://www.w3.org/TR/2001/REC-SVG-20010904/DTD/svg10.dtd">
<svg version="1.0" xmlns="http://www.w3.org/2000/svg"
 width="175.000000pt" height="110.000000pt" viewBox="0 0 175.000000 110.000000"
 preserveAspectRatio="xMidYMid meet">

<g transform="translate(0.000000,110.000000) scale(0.100000,-0.100000)"
fill="#000000" stroke="none">
<path d="M440 1071 c-168 -46 -294 -151 -376 -313 -86 -171 -82 -370 11 -546
37 -70 113 -161 161 -193 88 -57 203 20 191 128 -4 35 -14 54 -56 98 -96 101
-130 223 -96 340 30 105 94 178 195 223 48 21 66 24 145 20 146 -7 147 -8 555
-416 195 -195 369 -363 385 -373 17 -11 41 -19 53 -19 38 0 93 31 114 64 24
38 20 112 -8 147 -10 13 -185 189 -389 390 -403 398 -430 419 -576 454 -86 20
-228 18 -309 -4z"/>
</g>
</svg>
