<?xml version="1.0" standalone="no"?>
<!DOCTYPE svg PUBLIC "-//W3C//DTD SVG 20010904//EN"
 "http://www.w3.org/TR/2001/REC-SVG-20010904/DTD/svg10.dtd">
<svg version="1.0" xmlns="http://www.w3.org/2000/svg"
 width="461.000000pt" height="28.000000pt" viewBox="0 0 461.000000 28.000000"
 preserveAspectRatio="xMidYMid meet">
<metadata>
Created by potrace 1.16, written by Peter Selinger 2001-2019
</metadata>
<g transform="translate(0.000000,28.000000) scale(0.100000,-0.100000)"
fill="#000000" stroke="none">
<path d="M29 251 c-42 -43 -42 -119 0 -162 24 -24 38 -29 76 -29 25 0 59 7 75
15 26 14 30 21 30 60 l0 45 -50 0 c-43 0 -50 -3 -50 -20 0 -15 7 -20 25 -20
30 0 33 -15 6 -30 -29 -15 -49 -12 -71 10 -26 26 -26 74 0 100 25 25 45 25 71
-1 21 -21 60 -23 66 -2 3 7 -7 24 -21 38 -20 20 -35 25 -76 25 -44 0 -56 -5
-81 -29z"/>
<path d="M430 171 l0 -109 64 -1 c77 0 101 18 101 79 0 54 -28 83 -77 78 -37
-3 -38 -3 -38 29 0 29 -3 33 -25 33 l-25 0 0 -109z"/>
<path d="M1460 170 l0 -110 25 0 c23 0 25 4 25 44 0 25 5 48 10 51 6 3 10 0
10 -7 0 -7 5 -30 11 -50 8 -30 15 -38 33 -38 21 0 26 8 39 58 l15 57 1 -42 c1
-57 9 -73 37 -73 24 0 24 1 24 110 l0 110 -39 0 c-43 0 -38 9 -75 -124 -1 -5
-10 21 -20 57 l-18 67 -39 0 -39 0 0 -110z"/>
<path d="M2990 260 c-11 -11 -20 -27 -20 -35 0 -20 37 -19 57 0 19 19 37 15
41 -10 3 -10 -15 -37 -46 -69 -78 -80 -76 -86 18 -86 73 0 80 2 80 20 0 17 -7
20 -41 20 l-42 0 42 45 c46 50 54 91 23 118 -26 24 -87 22 -112 -3z"/>
<path d="M3164 254 c-24 -35 -24 -132 -1 -167 14 -22 25 -27 57 -27 53 0 73
30 73 110 0 80 -20 110 -73 110 -31 0 -43 -5 -56 -26z"/>
<path d="M3343 272 c-6 -4 -16 -20 -22 -35 -10 -25 -9 -27 16 -27 14 0 31 7
38 17 14 18 35 10 35 -14 0 -9 -22 -40 -50 -69 -71 -75 -68 -84 30 -84 73 0
80 2 80 20 0 17 -7 20 -47 20 l-48 0 37 33 c60 53 72 93 38 127 -20 20 -83 27
-107 12z"/>
<path d="M3526 210 c-25 -38 -46 -79 -46 -90 0 -17 7 -20 45 -20 38 0 45 -3
45 -20 0 -15 7 -20 25 -20 18 0 25 5 25 20 0 11 7 20 15 20 8 0 15 9 15 20 0
11 -7 20 -15 20 -12 0 -15 14 -15 70 0 67 -1 70 -24 70 -18 0 -34 -16 -70 -70z"/>
<path d="M3960 260 c-11 -11 -20 -27 -20 -35 0 -20 37 -19 57 0 19 19 37 15
41 -10 3 -10 -15 -37 -46 -69 -78 -80 -76 -86 18 -86 73 0 80 2 80 20 0 17 -7
20 -41 20 l-42 0 42 45 c46 50 54 91 23 118 -26 24 -87 22 -112 -3z"/>
<path d="M4144 272 c-22 -14 -34 -51 -34 -102 0 -79 21 -110 75 -110 54 0 75
31 75 110 0 79 -21 110 -75 110 -16 0 -35 -4 -41 -8z"/>
<path d="M4300 260 c-11 -11 -20 -27 -20 -35 0 -20 37 -19 57 0 19 19 37 15
41 -10 3 -10 -15 -37 -46 -69 -78 -80 -76 -86 18 -86 73 0 80 2 80 20 0 17 -7
20 -41 20 l-42 0 42 45 c46 50 54 91 23 118 -26 24 -87 22 -112 -3z"/>
<path d="M4450 260 c0 -17 7 -20 46 -20 25 0 44 -3 42 -7 -28 -54 -48 -105
-53 -135 -7 -36 -6 -38 19 -38 20 0 27 6 32 27 13 59 26 93 50 128 40 59 35
65 -56 65 -73 0 -80 -2 -80 -20z"/>
<path d="M259 201 c-18 -14 -24 -29 -24 -61 0 -52 30 -80 85 -80 55 0 85 28
85 80 0 52 -30 80 -85 80 -22 0 -47 -8 -61 -19z"/>
<path d="M720 200 c-29 -29 -28 -103 2 -124 29 -20 102 -21 118 -1 10 12 9 16
-4 21 -9 3 -26 4 -38 1 -22 -6 -48 7 -48 24 0 5 23 9 50 9 49 0 50 1 50 29 0
56 -88 83 -130 41z"/>
<path d="M1000 139 c0 -78 0 -79 25 -79 24 0 25 3 25 54 0 35 5 58 15 66 24
20 35 2 35 -61 0 -56 1 -59 25 -59 24 0 25 2 25 69 0 44 -5 72 -13 79 -7 6
-41 11 -75 11 l-62 -1 0 -79z"/>
<path d="M1202 197 c-52 -55 -13 -137 64 -137 76 0 115 88 61 138 -33 31 -96
30 -125 -1z"/>
<path d="M1720 156 c0 -85 11 -95 95 -95 l65 1 0 79 c0 77 -1 79 -24 79 -21 0
-24 -5 -28 -56 -8 -96 -58 -94 -58 2 0 51 -1 54 -25 54 -24 0 -25 -2 -25 -64z"/>
<path d="M1910 139 c0 -78 0 -79 25 -79 23 0 25 3 25 49 0 32 6 55 16 66 26
26 44 1 44 -61 0 -51 1 -54 25 -54 24 0 25 2 25 64 0 85 -11 95 -95 95 l-65
-1 0 -79z"/>
<path d="M2200 200 c-13 -13 -20 -33 -20 -60 0 -55 26 -80 83 -80 31 0 49 6
61 19 33 36 -9 57 -47 24 -18 -17 -19 -17 -33 2 -19 25 -18 59 2 76 14 11 18
11 29 -4 13 -18 50 -23 60 -7 3 5 -3 18 -15 30 -27 27 -93 27 -120 0z"/>
<path d="M2450 109 l0 -109 25 0 c22 0 25 4 25 33 0 32 1 33 34 29 25 -3 40 2
55 17 25 25 28 86 6 119 -14 19 -25 22 -80 21 l-65 -1 0 -109z"/>
<path d="M2646 204 c-9 -8 -14 -20 -11 -25 9 -13 39 -11 53 3 9 9 15 9 24 0
15 -15 -4 -32 -37 -32 -27 0 -45 -18 -45 -46 0 -33 20 -43 90 -43 l65 0 -5 70
c-4 46 -10 73 -20 79 -24 16 -97 12 -114 -6z"/>
</g>
</svg>
