<?xml version="1.0" standalone="no"?>
<!DOCTYPE svg PUBLIC "-//W3C//DTD SVG 20010904//EN"
 "http://www.w3.org/TR/2001/REC-SVG-20010904/DTD/svg10.dtd">
<svg version="1.0" xmlns="http://www.w3.org/2000/svg"
 width="59.000000pt" height="78.000000pt" viewBox="0 0 59.000000 78.000000"
 preserveAspectRatio="xMidYMid meet">
<metadata>
Created by potrace 1.16, written by Peter Selinger 2001-2019
</metadata>
<g transform="translate(0.000000,78.000000) scale(0.100000,-0.100000)"
fill="#000000" stroke="none">
<path d="M33 756 l-28 -24 -3 -353 c-2 -244 1 -356 8 -363 13 -13 502 -19 547
-7 27 7 28 9 31 84 2 42 2 78 0 79 -2 1 -86 4 -188 7 l-185 6 -5 50 c-3 28 -9
56 -13 63 -6 9 24 12 140 12 103 0 153 4 161 12 17 17 16 132 -1 146 -8 7 -69
13 -148 14 l-134 3 -7 54 c-3 29 -12 57 -20 62 -7 5 74 10 187 11 l200 3 0 80
0 80 -257 3 -256 2 -29 -24z"/>
</g>
</svg>
