<?xml version="1.0" standalone="no"?>
<!DOCTYPE svg PUBLIC "-//W3C//DTD SVG 20010904//EN"
 "http://www.w3.org/TR/2001/REC-SVG-20010904/DTD/svg10.dtd">
<svg version="1.0" xmlns="http://www.w3.org/2000/svg"
 width="108.000000pt" height="124.000000pt" viewBox="0 0 108.000000 124.000000"
 preserveAspectRatio="xMidYMid meet">
<metadata>
Created by potrace 1.16, written by Peter Selinger 2001-2019
</metadata>
<g transform="translate(0.000000,124.000000) scale(0.100000,-0.100000)"
fill="#000000" stroke="none">
<path d="M434 1230 c-96 -13 -144 -29 -216 -71 -76 -44 -123 -95 -160 -171
-43 -90 -51 -146 -50 -369 1 -292 23 -373 130 -477 105 -103 288 -154 479
-133 267 29 431 162 459 370 10 79 7 81 -167 81 -143 0 -149 -1 -163 -22 -8
-13 -18 -35 -21 -51 -10 -38 -69 -94 -113 -107 -51 -14 -90 -13 -148 5 -39 11
-54 23 -76 56 -38 58 -40 77 -36 305 3 189 4 201 27 241 16 29 39 50 66 63 72
35 195 22 236 -25 8 -9 28 -45 44 -78 l30 -62 155 0 155 0 9 28 c12 34 -14
142 -49 203 -51 87 -165 166 -287 198 -74 19 -226 27 -304 16z"/>
</g>
</svg>
