<?xml version="1.0" standalone="no"?>
<!DOCTYPE svg PUBLIC "-//W3C//DTD SVG 20010904//EN"
 "http://www.w3.org/TR/2001/REC-SVG-20010904/DTD/svg10.dtd">
<svg version="1.0" xmlns="http://www.w3.org/2000/svg"
 width="714.000000pt" height="498.000000pt" viewBox="0 0 714.000000 498.000000"
 preserveAspectRatio="xMidYMid meet">
<metadata>
Created by potrace 1.16, written by Peter Selinger 2001-2019
</metadata>
<g transform="translate(0.000000,498.000000) scale(0.100000,-0.100000)"
fill="#000000" stroke="none">
<path d="M0 2490 l0 -2490 3570 0 3570 0 0 2490 0 2490 -3570 0 -3570 0 0
-2490z m3014 2254 c72 -18 167 -64 221 -109 89 -73 755 -748 761 -772 10 -40
-3 -103 -27 -129 -29 -31 -82 -48 -127 -39 -32 6 -90 59 -417 385 -353 350
-384 379 -438 399 -171 63 -350 -7 -429 -167 -29 -59 -33 -76 -32 -147 1 -100
28 -165 104 -248 45 -50 54 -65 57 -105 5 -56 -10 -88 -56 -119 -64 -43 -127
-27 -199 51 -227 246 -229 605 -4 832 82 83 86 86 159 123 139 69 271 83 427
45z m1414 10 c186 -38 339 -157 421 -326 84 -173 82 -353 -7 -538 -33 -70 -59
-98 -416 -458 -210 -211 -389 -388 -399 -393 -28 -16 -90 -13 -125 5 -45 23
-65 68 -59 129 l4 49 371 371 c321 322 375 380 398 431 65 143 30 302 -91 402
-65 55 -116 73 -207 73 -102 1 -171 -25 -242 -90 -71 -64 -111 -81 -161 -68
-71 20 -114 93 -94 161 18 63 159 181 263 220 123 47 224 57 344 32z m-1473
-395 c86 -40 129 -116 123 -215 -6 -103 -64 -169 -169 -194 -127 -31 -258 76
-259 211 0 57 38 135 83 171 64 50 150 61 222 27z m1428 6 c94 -39 143 -120
135 -224 -15 -216 -306 -273 -402 -79 -34 68 -34 132 -1 197 50 100 170 147
268 106z m-1112 -528 c49 -33 74 -83 65 -132 -7 -36 -49 -81 -385 -420 -354
-356 -380 -384 -401 -440 -90 -240 81 -477 333 -463 89 4 144 29 226 103 87
77 146 82 213 18 59 -56 46 -131 -35 -210 -123 -120 -255 -174 -427 -174 -372
0 -655 335 -589 697 15 80 54 178 100 244 46 67 754 775 789 789 41 16 75 12
111 -12z m1410 -645 c32 -21 63 -53 110 -112 73 -92 109 -191 116 -325 7 -127
-7 -197 -57 -301 -95 -195 -278 -319 -493 -332 -118 -7 -213 11 -317 60 -84
40 -91 46 -463 417 -208 207 -385 388 -393 403 -46 87 22 188 125 188 l44 0
377 -375 c323 -322 384 -378 434 -401 239 -109 502 67 484 324 -6 86 -35 149
-99 217 -25 28 -51 60 -58 72 -26 50 -6 122 45 162 34 27 108 28 145 3z
m-2796 -237 c51 -13 131 -39 177 -57 l83 -34 -3 -125 c-3 -101 0 -139 17 -203
52 -199 146 -318 357 -453 15 -9 -106 -12 -553 -12 l-572 -1 -31 64 c-56 118
-174 237 -297 299 -69 35 -174 63 -267 72 -54 5 -76 11 -76 21 0 22 158 176
249 243 149 109 345 189 521 210 114 14 286 4 395 -24z m3918 0 c133 -34 240
-82 359 -161 97 -64 230 -186 276 -250 l22 -32 -88 -7 c-178 -15 -314 -77
-438 -200 -61 -60 -90 -99 -119 -158 l-38 -77 -559 0 c-307 0 -558 3 -558 8 0
4 28 25 61 47 94 62 182 163 235 269 58 118 78 221 69 363 l-6 103 58 26 c232
103 495 129 726 69z m-2847 -31 c48 -20 99 -74 115 -121 6 -19 9 -63 7 -97 -3
-48 -10 -71 -33 -104 -55 -78 -173 -114 -258 -79 -176 74 -184 310 -12 400 39
21 132 21 181 1z m1437 2 c131 -56 168 -229 74 -348 -26 -33 -108 -68 -159
-68 -232 0 -301 304 -93 413 37 20 135 22 178 3z m-3531 -557 c130 -28 256
-115 311 -217 50 -92 60 -157 60 -387 0 -172 -3 -221 -17 -270 -65 -218 -210
-320 -476 -332 -252 -11 -432 73 -510 239 -46 97 -52 146 -48 401 4 214 6 237
27 290 56 141 185 244 346 277 61 12 247 11 307 -1z m5771 -18 c94 -33 156
-72 209 -130 60 -66 88 -125 95 -203 8 -86 5 -88 -151 -88 -150 0 -166 6 -184
69 -19 61 -56 98 -115 116 -91 27 -161 13 -218 -44 -52 -52 -62 -110 -57 -335
3 -171 5 -184 28 -225 39 -69 68 -85 159 -89 119 -6 170 27 207 131 8 23 20
45 27 49 17 11 279 10 296 -1 21 -13 8 -118 -22 -184 -69 -151 -228 -241 -447
-254 -312 -18 -513 108 -566 356 -16 79 -19 384 -4 481 29 181 151 312 340
365 82 22 324 14 403 -14z m-5056 -423 c13 -12 23 -25 23 -29 0 -8 158 -290
168 -301 4 -4 50 70 102 164 52 93 103 174 113 179 9 6 50 9 90 7 l72 -3 3
-382 2 -383 -95 0 -95 0 0 201 c0 130 -3 198 -10 194 -5 -3 -33 -48 -60 -100
-28 -51 -57 -98 -65 -105 -7 -6 -35 -10 -62 -8 l-48 3 -60 109 -60 108 -5
-198 -5 -199 -95 0 -95 0 -3 340 c-1 231 1 349 9 367 23 55 132 78 176 36z
m1297 6 c3 -9 6 -42 6 -74 0 -48 -4 -61 -19 -70 -12 -6 -98 -10 -208 -10 -133
-1 -183 -4 -170 -11 11 -6 17 -22 17 -44 0 -19 5 -46 12 -60 l11 -25 138 0
138 0 6 -44 c4 -24 4 -58 0 -75 l-7 -31 -159 0 c-145 0 -180 -6 -149 -25 6 -3
10 -28 10 -55 0 -36 4 -50 18 -55 9 -5 92 -9 184 -10 91 -2 171 -6 177 -9 13
-8 15 -125 3 -144 -7 -9 -71 -12 -288 -10 l-279 3 -3 345 c-1 190 0 354 2 365
3 11 18 27 33 37 24 14 64 16 274 17 216 1 248 -1 253 -15z m740 0 c10 -25 7
-124 -4 -145 -10 -17 -22 -19 -132 -19 -119 0 -121 0 -104 -19 16 -17 18 -47
18 -284 0 -146 -3 -270 -6 -276 -11 -17 -181 -14 -195 2 -7 9 -12 107 -13 293
l-3 279 -105 5 -105 5 0 63 c0 57 3 66 28 88 l28 24 293 0 c259 0 295 -2 300
-16z m670 0 c11 -28 6 -130 -6 -142 -8 -8 -69 -12 -207 -12 -138 -1 -191 -4
-178 -11 12 -7 17 -23 17 -54 0 -70 10 -75 166 -75 l135 0 -3 -72 -3 -73 -157
-3 c-87 -1 -158 -6 -158 -10 0 -5 4 -12 9 -18 6 -5 11 -31 13 -59 l3 -50 180
-5 c99 -3 186 -9 193 -13 16 -11 16 -129 0 -145 -9 -9 -87 -12 -289 -12 -243
0 -278 2 -283 16 -11 27 -7 659 4 690 21 60 39 63 311 64 216 0 248 -2 253
-16z m629 -4 c103 -36 163 -134 155 -254 -5 -77 -32 -131 -87 -173 -53 -41
-94 -52 -228 -61 l-108 -7 -5 -125 -5 -125 -94 -3 c-60 -2 -98 1 -107 9 -11 9
-14 70 -14 333 0 177 4 337 10 356 18 65 39 71 255 67 124 -3 203 -9 228 -17z
m827 1 c5 -11 10 -41 10 -66 0 -87 6 -85 -218 -85 -139 -1 -192 -4 -179 -11
11 -7 17 -22 17 -49 0 -71 -2 -70 140 -70 71 0 135 -3 144 -6 13 -5 16 -22 16
-79 l0 -73 -57 -6 c-32 -4 -104 -4 -160 -2 -98 5 -115 2 -94 -20 6 -5 11 -31
13 -59 l3 -50 183 -5 c148 -4 185 -8 192 -20 12 -18 13 -120 2 -138 -7 -9 -72
-12 -293 -10 l-284 3 -3 340 c-1 187 0 350 3 363 3 12 20 31 38 42 29 18 51
20 274 20 229 0 243 -1 253 -19z m-4710 -1114 c0 -91 4 -139 13 -150 17 -24
77 -32 102 -14 18 14 20 29 23 156 l4 141 34 0 34 0 0 -139 c0 -77 -4 -151
-10 -165 -32 -86 -215 -89 -261 -4 -8 14 -14 79 -17 166 l-5 142 42 0 41 0 0
-133z m980 -47 l0 -180 -35 0 c-25 0 -35 4 -35 16 0 14 -2 14 -22 0 -29 -21
-82 -20 -115 1 -73 48 -68 203 8 243 21 12 69 10 102 -5 15 -6 17 -1 17 49 l0
56 40 0 40 0 0 -180z m2150 155 c0 -21 -5 -25 -29 -25 -26 0 -41 -14 -41 -41
0 -5 11 -9 25 -9 20 0 25 -5 25 -25 0 -20 -5 -25 -25 -25 l-25 0 0 -105 0
-105 -35 0 -35 0 0 105 c0 98 -1 105 -20 105 -15 0 -20 7 -20 25 0 18 5 25 20
25 14 0 20 7 20 24 0 13 9 35 21 50 17 22 28 26 70 26 46 0 49 -2 49 -25z
m1790 -155 l0 -180 -35 0 c-25 0 -35 4 -35 16 0 14 -2 14 -22 0 -29 -21 -82
-20 -115 1 -73 48 -68 203 8 243 21 12 69 10 102 -5 15 -6 17 -1 17 49 l0 56
40 0 40 0 0 -180z m456 53 c-4 -70 -9 -130 -12 -135 -3 -4 -13 -8 -23 -8 -20
0 -22 12 -37 193 l-7 77 43 0 43 0 -7 -127z m-3510 27 c19 0 24 -5 24 -25 0
-20 -5 -25 -25 -25 -26 0 -26 0 -23 -77 3 -70 5 -78 23 -78 15 0 20 -7 20 -25
0 -22 -5 -25 -38 -28 -64 -5 -77 15 -77 120 0 81 -2 88 -20 88 -15 0 -20 7
-20 25 0 18 5 25 20 25 15 0 20 7 20 25 0 18 10 31 33 45 l32 20 3 -45 c3 -40
6 -45 28 -45z m-1362 -11 c25 -20 26 -23 26 -135 l0 -114 -35 0 -35 0 0 98 c0
99 -7 122 -39 122 -8 0 -23 -7 -33 -17 -15 -13 -18 -32 -18 -110 l0 -93 -40 0
-40 0 0 130 0 130 35 0 c25 0 35 -4 35 -16 0 -13 5 -12 26 5 15 12 41 21 59
21 18 0 44 -9 59 -21z m734 1 c57 -35 77 -111 45 -177 -25 -53 -67 -75 -131
-70 -43 3 -59 10 -84 34 -39 39 -49 112 -24 162 35 67 128 91 194 51z m294
-11 c25 -25 29 -33 17 -40 -21 -13 -47 -11 -74 7 -28 18 -70 15 -70 -5 0 -8
14 -18 30 -23 118 -36 144 -59 124 -116 -14 -39 -57 -62 -119 -62 -46 0 -56 4
-88 36 -29 29 -33 37 -21 45 23 15 55 10 74 -11 19 -21 51 -26 74 -11 24 16 6
34 -49 48 -64 16 -100 46 -100 83 0 52 41 79 118 80 47 0 58 -4 84 -31z m553
21 c11 -17 -15 -50 -39 -50 -37 0 -48 -24 -54 -120 l-5 -90 -33 0 -34 0 0 130
0 130 35 0 c21 0 35 -5 35 -12 0 -8 6 -6 17 5 19 18 68 23 78 7z m220 -6 c28
-18 33 -42 37 -167 l3 -87 -32 0 c-23 0 -33 5 -33 15 0 14 -3 14 -30 0 -71
-36 -140 -4 -140 66 0 46 32 75 94 84 59 9 73 19 57 39 -17 20 -55 21 -71 1
-17 -20 -59 -19 -67 2 -4 10 3 24 21 40 33 28 122 32 161 7z m309 -5 c25 -20
26 -23 26 -135 l0 -114 -35 0 -35 0 0 98 c0 99 -7 122 -39 122 -8 0 -23 -7
-33 -17 -15 -13 -18 -32 -18 -110 l0 -93 -40 0 -40 0 0 130 0 130 35 0 c25 0
35 -4 35 -16 0 -13 5 -12 26 5 15 12 41 21 59 21 18 0 44 -9 59 -21z m278 -10
c25 -25 29 -33 17 -40 -21 -13 -47 -11 -74 7 -28 18 -70 15 -70 -5 0 -8 14
-18 30 -23 118 -36 144 -59 124 -116 -14 -39 -57 -62 -119 -62 -46 0 -56 4
-88 36 -29 29 -33 37 -21 45 23 15 55 10 74 -11 19 -21 51 -26 74 -11 24 16 6
34 -49 48 -64 16 -100 46 -100 83 0 52 41 79 118 80 47 0 58 -4 84 -31z m456
11 c57 -35 77 -111 45 -177 -25 -53 -67 -75 -131 -70 -43 3 -59 10 -84 34 -39
39 -49 112 -24 162 35 67 128 91 194 51z m267 10 c11 -17 -15 -50 -39 -50 -37
0 -48 -24 -54 -120 l-5 -90 -33 0 -34 0 0 130 0 130 35 0 c21 0 35 -5 35 -12
0 -8 6 -6 17 5 19 18 68 23 78 7z m233 -6 c20 -14 24 -14 44 0 33 23 87 20
115 -6 21 -20 23 -29 23 -135 l0 -113 -35 0 -34 0 -3 101 c-2 83 -6 104 -20
113 -13 8 -22 6 -37 -8 -18 -17 -21 -31 -21 -113 l0 -93 -40 0 -39 0 -3 108
c-3 101 -4 107 -25 110 -38 5 -53 -32 -53 -130 l0 -88 -35 0 -35 0 0 130 0
130 35 0 c19 0 35 -5 35 -11 0 -5 10 -3 22 5 12 9 36 16 53 16 17 0 41 -7 53
-16z m427 0 c28 -18 33 -42 37 -167 l3 -87 -32 0 c-23 0 -33 5 -33 15 0 14 -3
14 -30 0 -71 -36 -140 -4 -140 66 0 46 32 75 94 84 59 9 73 19 57 39 -17 20
-55 21 -71 1 -17 -20 -59 -19 -67 2 -4 10 3 24 21 40 33 28 122 32 161 7z
m309 -5 c25 -20 26 -23 26 -135 l0 -114 -35 0 -35 0 0 98 c0 99 -7 122 -39
122 -8 0 -23 -7 -33 -17 -15 -13 -18 -32 -18 -110 l0 -93 -40 0 -40 0 0 130 0
130 35 0 c25 0 35 -4 35 -16 0 -13 5 -12 26 5 15 12 41 21 59 21 18 0 44 -9
59 -21z m594 1 c57 -35 77 -111 45 -177 -25 -53 -67 -75 -131 -70 -43 3 -59
10 -84 34 -39 39 -49 112 -24 162 35 67 128 91 194 51z m-4508 -120 l0 -130
-40 0 -40 0 0 130 0 130 40 0 40 0 0 -130z m-827 -27 c4 -38 7 -98 7 -135 l0
-68 -35 0 -35 0 0 58 c0 33 3 93 6 135 6 71 9 77 29 77 20 0 23 -6 28 -67z
m611 -254 c14 -11 26 -27 26 -35 0 -25 -30 -28 -51 -5 -40 43 -99 14 -99 -49
0 -49 32 -75 80 -65 37 8 41 35 5 35 -18 0 -25 5 -25 20 0 17 7 20 50 20 l50
0 0 -44 c0 -40 -3 -45 -34 -60 -64 -30 -136 -15 -162 35 -28 56 -11 128 37
155 36 20 92 17 123 -7z m306 -13 c0 -34 1 -35 34 -29 47 7 76 -22 76 -77 0
-60 -24 -79 -99 -79 l-61 1 0 109 0 109 25 0 c22 0 25 -4 25 -34z m1061 17 c0
-10 8 -43 18 -73 l17 -55 18 73 c18 72 18 72 52 72 l34 0 0 -110 c0 -103 -1
-110 -20 -110 -17 0 -20 7 -20 53 0 80 -14 87 -29 12 -12 -58 -16 -65 -36 -65
-21 0 -26 8 -42 78 l-18 77 -3 -77 c-3 -75 -4 -78 -27 -78 l-25 0 0 110 0 110
40 0 c31 0 40 -4 41 -17z m1559 -3 c34 -34 22 -73 -39 -127 l-36 -32 48 -1
c40 0 47 -3 47 -20 0 -18 -7 -20 -75 -20 -93 0 -95 10 -25 84 28 29 50 61 50
70 0 24 -30 33 -45 13 -13 -18 -40 -23 -49 -8 -3 5 4 20 15 35 26 33 79 36
109 6z m169 -6 c16 -20 21 -41 21 -84 0 -70 -25 -110 -70 -110 -45 0 -70 40
-70 110 0 70 25 110 70 110 19 0 36 -9 49 -26z m173 9 c32 -28 23 -72 -24
-120 l-42 -43 42 0 c35 0 42 -3 42 -20 0 -18 -7 -20 -75 -20 -89 0 -89 5 -13
88 29 30 48 60 46 70 -4 22 -39 28 -50 8 -13 -23 -48 -21 -48 3 0 44 85 68
122 34z m178 -53 c0 -56 3 -70 15 -70 8 0 15 -9 15 -20 0 -11 -7 -20 -15 -20
-8 0 -15 -9 -15 -20 0 -15 -7 -20 -25 -20 -18 0 -25 5 -25 20 0 17 -7 20 -45
20 -59 0 -58 11 5 105 34 51 57 75 70 75 18 0 20 -7 20 -70z m450 50 c34 -34
22 -73 -39 -127 l-36 -32 48 -1 c40 0 47 -3 47 -20 0 -18 -7 -20 -75 -20 -93
0 -95 10 -25 84 28 29 50 61 50 70 0 24 -30 33 -45 13 -13 -18 -40 -23 -49 -8
-3 5 4 20 15 35 26 33 79 36 109 6z m167 -7 c12 -18 18 -46 18 -83 0 -74 -23
-110 -69 -110 -51 0 -71 29 -71 104 0 81 21 116 70 116 27 0 39 -6 52 -27z
m173 7 c34 -34 22 -73 -39 -127 l-36 -32 48 -1 c40 0 47 -3 47 -20 0 -18 -7
-20 -75 -20 -93 0 -95 10 -25 84 28 29 50 61 50 70 0 24 -30 33 -45 13 -13
-18 -40 -23 -49 -8 -3 5 4 20 15 35 26 33 79 36 109 6z m-4033 -62 c51 -48 15
-138 -56 -138 -47 0 -81 32 -81 79 0 72 84 109 137 59z m450 0 c13 -12 23 -32
23 -45 0 -21 -4 -23 -55 -23 -53 0 -55 -1 -45 -21 10 -17 18 -19 50 -14 43 7
62 -8 31 -24 -60 -32 -131 5 -131 68 0 71 76 107 127 59z m213 10 c0 -9 3 -9
12 0 17 17 64 15 82 -4 11 -11 16 -35 16 -80 0 -61 -1 -64 -25 -64 -23 0 -24
4 -27 63 -3 54 -5 62 -23 62 -18 0 -20 -8 -23 -62 -3 -59 -4 -63 -27 -63 -24
0 -25 2 -25 80 0 73 2 80 20 80 11 0 20 -5 20 -12z m285 -13 c52 -51 15 -135
-60 -135 -46 0 -85 36 -85 80 0 44 39 80 85 80 25 0 44 -8 60 -25z m445 -35
c0 -45 4 -62 15 -66 28 -11 45 16 45 72 0 47 2 54 20 54 18 0 20 -7 20 -79 l0
-79 -62 1 c-56 2 -64 5 -75 27 -7 14 -13 49 -13 78 0 49 1 52 25 52 24 0 25
-3 25 -60z m280 45 c7 -8 15 -44 18 -80 5 -65 5 -65 -22 -65 -25 0 -26 2 -26
60 0 45 -4 62 -15 66 -28 11 -45 -16 -45 -72 0 -47 -2 -54 -20 -54 -18 0 -20
7 -20 79 l0 78 59 1 c40 1 63 -4 71 -13z m440 3 c0 -9 3 -9 12 0 21 21 65 14
87 -14 27 -34 27 -74 0 -109 -18 -22 -28 -26 -55 -23 -33 4 -34 3 -34 -29 0
-29 -3 -33 -25 -33 l-25 0 0 110 c0 103 1 110 20 110 11 0 20 -5 20 -12z m269
-2 c7 -8 14 -44 15 -79 l3 -64 -63 -1 c-68 -1 -88 11 -82 50 2 17 14 26 48 37
55 17 57 18 42 33 -9 9 -18 8 -37 -2 -32 -17 -56 0 -35 25 16 20 93 20 109 1z"/>
<path d="M640 2117 c-51 -17 -75 -37 -102 -82 -22 -39 -23 -47 -23 -267 l0
-226 30 -44 c39 -54 84 -77 157 -78 67 0 103 12 140 47 51 48 60 100 56 320
-3 182 -5 202 -26 244 -37 76 -145 117 -232 86z"/>
<path d="M4615 1776 c14 -10 20 -30 23 -82 2 -38 9 -75 14 -81 12 -15 105 -17
141 -4 42 16 57 39 57 87 0 34 -6 51 -25 69 -22 23 -31 25 -126 25 -90 0 -100
-2 -84 -14z"/>
<path d="M1846 797 c-22 -16 -31 -83 -17 -119 13 -36 55 -47 81 -23 27 25 28
115 2 138 -22 20 -42 21 -66 4z"/>
<path d="M5786 797 c-22 -16 -31 -83 -17 -119 13 -36 55 -47 81 -23 27 25 28
115 2 138 -22 20 -42 21 -66 4z"/>
<path d="M2151 784 c-12 -15 -21 -41 -21 -59 0 -38 33 -85 60 -85 10 0 28 8
41 18 32 27 32 107 0 134 -32 25 -56 23 -80 -8z"/>
<path d="M4261 784 c-12 -15 -21 -41 -21 -59 0 -38 33 -85 60 -85 10 0 28 8
41 18 18 15 22 29 22 67 0 38 -4 52 -22 67 -32 25 -56 23 -80 -8z"/>
<path d="M6091 784 c-12 -15 -21 -41 -21 -59 0 -38 33 -85 60 -85 10 0 28 8
41 18 18 15 22 29 22 67 0 38 -4 52 -22 67 -32 25 -56 23 -80 -8z"/>
</g>
</svg>
