<?xml version="1.0" standalone="no"?>
<!DOCTYPE svg PUBLIC "-//W3C//DTD SVG 20010904//EN"
 "http://www.w3.org/TR/2001/REC-SVG-20010904/DTD/svg10.dtd">
<svg version="1.0" xmlns="http://www.w3.org/2000/svg"
 width="181.000000pt" height="93.000000pt" viewBox="0 0 181.000000 93.000000"
 preserveAspectRatio="xMidYMid meet">
<metadata>
Created by potrace 1.16, written by Peter Selinger 2001-2019
</metadata>
<g transform="translate(0.000000,93.000000) scale(0.100000,-0.100000)"
fill="#000000" stroke="none">
<path d="M725 919 c-147 -22 -349 -109 -485 -209 -96 -71 -240 -215 -240 -240
0 -22 12 -26 105 -35 143 -14 287 -78 389 -174 66 -64 101 -110 146 -199 l31
-62 570 0 c347 0 569 4 569 9 0 6 -32 31 -70 57 -69 46 -140 109 -170 150 -48
66 -60 86 -87 149 -48 111 -58 166 -56 311 l2 132 -47 20 c-207 89 -444 122
-657 91z"/>
</g>
</svg>
