<?xml version="1.0" standalone="no"?>
<!DOCTYPE svg PUBLIC "-//W3C//DTD SVG 20010904//EN"
 "http://www.w3.org/TR/2001/REC-SVG-20010904/DTD/svg10.dtd">
<svg version="1.0" xmlns="http://www.w3.org/2000/svg"
 width="714.000000pt" height="498.000000pt" viewBox="0 0 714.000000 498.000000"
 preserveAspectRatio="xMidYMid meet">
<metadata>
Created by potrace 1.16, written by Peter Selinger 2001-2019
</metadata>
<g transform="translate(0.000000,498.000000) scale(0.100000,-0.100000)"
fill="#000000" stroke="none">
<path d="M2725 4755 c-196 -42 -370 -199 -436 -392 -21 -59 -24 -87 -24 -203
1 -128 2 -139 33 -215 34 -85 37 -91 119 -190 55 -66 89 -85 152 -85 53 0 96
31 116 83 23 61 9 104 -60 178 -70 77 -99 153 -93 251 13 251 279 395 497 270
25 -14 201 -182 404 -384 197 -197 370 -363 383 -369 104 -39 209 42 189 148
-6 33 -53 85 -383 416 -415 416 -439 436 -597 482 -99 28 -201 32 -300 10z"/>
<path d="M4170 4755 c-139 -34 -283 -128 -342 -223 -23 -38 -20 -104 7 -146
17 -25 80 -56 116 -56 31 0 79 28 132 77 72 67 125 88 227 88 73 0 93 -4 142
-28 69 -34 128 -91 159 -155 20 -39 24 -62 24 -143 0 -151 2 -148 -416 -567
-196 -196 -364 -372 -374 -391 -26 -52 -15 -108 29 -148 41 -38 72 -48 124
-38 32 6 85 54 406 373 214 214 384 391 406 425 21 32 51 90 67 130 26 68 28
81 27 217 0 169 -13 216 -89 330 -84 126 -213 218 -360 255 -72 18 -210 18
-285 0z"/>
<path d="M2775 4362 c-85 -41 -129 -109 -128 -202 3 -233 309 -304 420 -97 12
21 17 54 17 98 0 80 -31 140 -93 184 -55 37 -156 45 -216 17z"/>
<path d="M4201 4358 c-24 -12 -56 -39 -72 -60 -68 -94 -58 -216 23 -294 74
-72 165 -84 259 -36 77 39 113 99 113 191 0 103 -51 178 -143 209 -52 18 -130
14 -180 -10z"/>
<path d="M3135 3841 c-53 -34 -741 -733 -780 -794 -109 -168 -126 -408 -41
-592 50 -108 166 -227 272 -279 104 -51 149 -60 284 -59 108 1 134 5 194 27
100 38 152 71 230 147 l69 67 -5 61 c-3 50 -9 66 -33 91 -58 60 -142 53 -220
-20 -77 -74 -152 -105 -245 -104 -197 2 -343 161 -327 355 10 123 21 136 421
539 200 201 369 375 375 387 29 57 -2 151 -59 180 -37 19 -101 16 -135 -6z"/>
<path d="M4553 3206 c-43 -20 -73 -70 -73 -124 0 -54 10 -72 76 -146 62 -68
87 -131 86 -220 -1 -246 -250 -400 -479 -295 -37 17 -134 108 -423 395 -322
320 -380 373 -412 379 -66 12 -126 -21 -152 -85 -18 -45 -16 -72 7 -116 22
-41 721 -734 783 -776 250 -169 601 -130 794 89 228 259 205 643 -52 872 -45
39 -104 50 -155 27z"/>
<path d="M1445 2979 c-147 -22 -349 -109 -485 -209 -96 -71 -240 -215 -240
-240 0 -22 12 -26 105 -35 143 -14 287 -78 389 -174 66 -64 101 -110 146 -199
l31 -62 570 0 c347 0 569 4 569 9 0 6 -32 31 -70 57 -69 46 -140 109 -170 150
-48 66 -60 86 -87 149 -48 111 -58 166 -56 311 l2 132 -47 20 c-207 89 -444
122 -657 91z"/>
<path d="M5400 2984 c-136 -23 -229 -50 -325 -93 -64 -29 -67 -32 -60 -58 13
-51 6 -240 -10 -305 -42 -161 -155 -313 -300 -405 -25 -16 -44 -35 -42 -43 2
-13 73 -15 558 -18 l556 -2 36 72 c20 40 48 87 62 103 68 78 84 94 135 132 99
75 263 133 374 133 93 0 94 13 10 102 -185 195 -337 288 -584 358 -59 17 -109
23 -230 25 -85 2 -166 2 -180 -1z"/>
<path d="M2795 2937 c-61 -16 -131 -93 -145 -161 -30 -145 71 -272 215 -269
144 3 237 105 221 241 -17 148 -142 229 -291 189z"/>
<path d="M4235 2937 c-60 -24 -94 -51 -119 -96 -53 -99 -43 -195 29 -266 119
-119 305 -82 371 74 18 42 13 135 -11 180 -47 92 -177 144 -270 108z"/>
<path d="M585 2379 c-193 -28 -313 -118 -380 -284 -27 -67 -29 -79 -33 -270
-7 -313 18 -416 126 -528 219 -226 748 -176 881 83 48 93 55 143 56 390 0 197
-3 244 -18 290 -18 56 -63 139 -94 175 -104 116 -324 175 -538 144z m216 -282
c32 -17 50 -37 69 -72 24 -48 25 -55 25 -255 0 -192 -2 -208 -22 -247 -39 -72
-108 -110 -187 -101 -60 7 -96 27 -132 75 -41 53 -48 115 -42 328 4 136 7 158
29 201 44 89 163 122 260 71z"/>
<path d="M6304 2380 c-96 -13 -144 -29 -216 -71 -76 -44 -123 -95 -160 -171
-43 -90 -51 -146 -50 -369 1 -292 23 -373 130 -477 105 -103 288 -154 479
-133 267 29 431 162 459 370 10 79 7 81 -167 81 -143 0 -149 -1 -163 -22 -8
-13 -18 -35 -21 -51 -10 -38 -69 -94 -113 -107 -51 -14 -90 -13 -148 5 -39 11
-54 23 -76 56 -38 58 -40 77 -36 305 3 189 4 201 27 241 16 29 39 50 66 63 72
35 195 22 236 -25 8 -9 28 -45 44 -78 l30 -62 155 0 155 0 9 28 c12 34 -14
142 -49 203 -51 87 -165 166 -287 198 -74 19 -226 27 -304 16z"/>
<path d="M3013 1945 c-37 -16 -51 -39 -59 -97 -9 -69 4 -78 113 -81 50 -1 95
-6 100 -10 4 -5 10 -135 13 -290 l5 -282 105 0 105 0 3 274 c2 193 -1 278 -9
287 -6 8 -10 15 -8 15 2 1 56 4 119 8 l115 6 3 80 c2 66 0 82 -14 92 -26 19
-547 18 -591 -2z"/>
<path d="M4474 1944 c-17 -8 -36 -26 -43 -40 -12 -26 -17 -688 -5 -718 5 -13
23 -16 98 -16 58 0 98 5 109 13 14 10 17 34 19 132 l3 120 110 6 c160 10 222
34 269 106 63 95 50 260 -26 330 -67 62 -162 83 -368 83 -101 0 -143 -4 -166
-16z m331 -170 c51 -24 61 -93 20 -138 -23 -25 -29 -27 -102 -24 l-78 3 -3 70
c-2 39 -7 74 -13 80 -20 20 -6 25 67 25 48 0 88 -6 109 -16z"/>
<path d="M1435 1939 c-47 -23 -48 -34 -50 -394 -1 -190 2 -348 7 -358 8 -15
21 -17 101 -15 l92 3 5 199 5 199 22 -39 c12 -21 38 -69 58 -106 l35 -68 60 0
c69 0 55 -16 166 190 12 22 14 23 15 5 0 -11 2 -97 4 -192 1 -94 6 -176 10
-182 9 -15 168 -14 183 1 9 9 12 106 12 374 0 199 -3 369 -6 378 -5 13 -23 16
-94 16 -99 0 -91 5 -145 -95 -35 -65 -105 -192 -123 -224 -16 -29 -30 -21 -57
31 -51 97 -127 233 -147 261 -17 24 -25 27 -76 26 -31 0 -66 -5 -77 -10z"/>
<path d="M2333 1926 l-28 -24 -3 -353 c-2 -244 1 -356 8 -363 13 -13 502 -19
547 -7 27 7 28 9 31 84 2 42 2 78 0 79 -2 1 -86 4 -188 7 l-185 6 -5 50 c-3
28 -9 56 -13 63 -6 9 24 12 140 12 103 0 153 4 161 12 17 17 16 132 -1 146 -8
7 -69 13 -148 14 l-134 3 -7 54 c-3 29 -12 57 -20 62 -7 5 74 10 187 11 l200
3 0 80 0 80 -257 3 -256 2 -29 -24z"/>
<path d="M3739 1921 l-29 -29 0 -351 c0 -336 1 -351 19 -361 30 -16 532 -13
555 3 14 10 16 25 14 87 l-3 75 -185 5 -185 5 -3 45 c-2 25 -7 49 -13 54 -21
22 -2 26 139 26 102 0 152 4 160 12 17 17 16 132 -1 146 -8 7 -69 13 -148 14
l-134 3 -5 46 c-3 26 -12 54 -19 63 -12 15 3 16 175 16 104 0 195 4 202 9 9 5
12 29 10 82 l-3 74 -258 3 -258 2 -30 -29z"/>
<path d="M5203 1935 c-38 -27 -43 -74 -43 -418 l0 -327 26 -10 c39 -15 547
-13 562 2 10 10 18 153 10 160 -2 1 -86 4 -188 7 l-185 6 -5 50 c-3 28 -9 56
-13 63 -6 9 24 12 140 12 103 0 153 4 161 12 17 17 16 132 -1 146 -8 7 -69 13
-148 14 l-134 3 -6 40 c-3 22 -9 50 -13 62 l-7 23 193 2 193 3 0 80 0 80 -260
3 c-221 2 -263 0 -282 -13z"/>
<path d="M952 803 c3 -161 12 -188 64 -211 38 -18 141 -15 174 5 44 25 52 56
58 211 l5 142 -47 0 -46 0 0 -139 c0 -133 -1 -141 -22 -155 -32 -22 -55 -20
-83 9 -24 23 -25 29 -25 155 l0 130 -41 0 -41 0 4 -147z"/>
<path d="M1930 895 c0 -52 -1 -55 -19 -45 -30 16 -94 12 -117 -8 -34 -27 -44
-56 -44 -122 0 -57 3 -65 34 -96 28 -28 41 -34 78 -34 24 0 50 6 57 13 11 9
14 10 18 0 3 -7 20 -13 39 -13 l34 0 0 180 0 180 -40 0 -40 0 0 -55z"/>
<path d="M4042 934 c-15 -11 -22 -25 -22 -50 0 -27 -4 -34 -20 -34 -15 0 -20
-7 -20 -25 0 -18 5 -25 20 -25 19 0 20 -7 20 -105 l0 -105 40 0 40 0 0 105 0
105 25 0 c20 0 25 5 25 25 0 20 -5 25 -26 25 -21 0 -25 4 -22 23 2 17 9 22 31
20 24 -2 27 2 27 28 0 28 -2 29 -48 29 -27 0 -57 -7 -70 -16z"/>
<path d="M5870 895 c0 -52 -1 -55 -19 -45 -30 16 -94 12 -117 -8 -34 -27 -44
-56 -44 -122 0 -57 3 -65 34 -96 28 -28 41 -34 78 -34 24 0 50 6 57 13 11 9
14 10 18 0 3 -7 20 -13 39 -13 l34 0 0 180 0 180 -40 0 -40 0 0 -55z"/>
<path d="M6334 845 c9 -148 14 -165 41 -165 20 0 23 6 28 68 4 37 7 97 7 135
l0 67 -41 0 -42 0 7 -105z"/>
<path d="M2823 919 c-22 -14 -33 -29 -33 -45 0 -15 -6 -24 -15 -24 -9 0 -15
-9 -15 -25 0 -14 6 -25 14 -25 9 0 15 -24 19 -92 7 -106 15 -118 84 -118 41 0
43 1 43 30 0 25 -4 29 -22 27 -22 -2 -23 2 -26 76 -3 77 -3 77 23 77 20 0 25
5 25 25 0 20 -5 25 -25 25 -23 0 -25 4 -25 45 0 25 -3 45 -7 45 -5 0 -23 -10
-40 -21z"/>
<path d="M1412 844 c-12 -8 -22 -10 -22 -5 0 6 -16 11 -35 11 l-35 0 0 -130 0
-130 40 0 40 0 0 90 c0 77 3 93 20 110 22 22 29 24 50 10 11 -7 16 -34 18
-110 l4 -100 39 0 39 0 0 94 c0 101 -12 151 -40 166 -28 15 -93 12 -118 -6z"/>
<path d="M2118 844 c-37 -20 -58 -63 -58 -119 0 -90 47 -135 140 -135 43 0 55
5 88 34 36 33 37 37 37 101 0 64 -1 68 -37 101 -33 30 -44 34 -90 34 -29 -1
-65 -7 -80 -16z m112 -54 c39 -39 17 -150 -31 -150 -44 0 -77 66 -59 116 20
54 56 68 90 34z"/>
<path d="M2386 839 c-20 -16 -26 -29 -26 -59 0 -47 21 -64 100 -85 62 -16 67
-20 50 -40 -17 -21 -46 -19 -70 5 -21 21 -55 26 -79 11 -12 -8 -12 -13 3 -36
22 -33 54 -45 122 -45 48 0 60 4 85 29 58 58 25 119 -75 142 -60 13 -77 26
-55 40 21 13 46 11 63 -6 16 -16 53 -20 74 -6 18 11 -2 45 -35 60 -42 19 -127
14 -157 -10z"/>
<path d="M3036 844 c-9 -8 -16 -11 -16 -5 0 6 -16 11 -35 11 l-35 0 0 -130 0
-130 40 0 40 0 0 89 c0 96 14 128 52 118 19 -5 38 18 38 47 0 22 -63 21 -84 0z"/>
<path d="M3168 829 c-25 -25 -29 -33 -17 -40 19 -12 69 -12 69 0 0 13 34 23
54 15 30 -11 17 -33 -26 -44 -24 -6 -55 -16 -70 -21 -51 -20 -60 -102 -15
-134 25 -17 89 -20 117 -5 13 7 21 7 25 0 3 -5 24 -10 46 -10 36 0 39 2 29 19
-5 11 -10 62 -10 115 0 90 -1 95 -26 115 -20 16 -41 21 -86 21 -53 0 -63 -3
-90 -31z"/>
<path d="M3522 844 c-12 -8 -22 -10 -22 -5 0 6 -16 11 -35 11 l-35 0 0 -130 0
-130 40 0 40 0 0 90 c0 77 3 93 20 110 22 22 29 24 50 10 11 -7 16 -34 18
-110 l4 -100 39 0 39 0 0 94 c0 101 -12 151 -40 166 -28 15 -93 12 -118 -6z"/>
<path d="M3746 839 c-20 -16 -26 -29 -26 -59 0 -47 21 -64 100 -85 62 -16 67
-20 50 -40 -17 -21 -46 -19 -70 5 -21 21 -55 26 -79 11 -12 -8 -12 -13 3 -36
22 -33 54 -45 122 -45 48 0 60 4 85 29 58 58 25 119 -75 142 -60 13 -77 26
-55 40 21 13 46 11 63 -6 16 -16 53 -20 74 -6 18 11 -2 45 -35 60 -42 19 -127
14 -157 -10z"/>
<path d="M4228 844 c-37 -20 -58 -63 -58 -119 0 -90 47 -135 140 -135 43 0 55
5 88 34 36 33 37 37 37 101 0 64 -1 68 -37 101 -33 30 -44 34 -90 34 -29 -1
-65 -7 -80 -16z m112 -54 c39 -39 17 -150 -31 -150 -44 0 -77 66 -59 116 20
54 56 68 90 34z"/>
<path d="M4566 844 c-9 -8 -16 -11 -16 -5 0 6 -16 11 -35 11 l-35 0 0 -130 0
-130 40 0 40 0 0 89 c0 96 14 128 52 118 19 -5 38 18 38 47 0 22 -63 21 -84 0z"/>
<path d="M4767 843 c-11 -11 -17 -13 -17 -5 0 7 -14 12 -35 12 l-35 0 0 -130
0 -130 35 0 35 0 0 68 c0 113 28 173 66 141 10 -8 14 -39 14 -110 l0 -99 40 0
40 0 0 90 c0 77 3 93 20 110 43 43 60 12 60 -109 l0 -91 41 0 41 0 -4 116 c-3
107 -5 117 -27 135 -29 23 -88 25 -119 3 -21 -15 -25 -15 -41 0 -24 22 -92 21
-114 -1z"/>
<path d="M5138 829 c-25 -25 -29 -33 -17 -40 19 -12 69 -12 69 0 0 13 34 23
54 15 30 -11 17 -33 -26 -44 -24 -6 -55 -16 -70 -21 -51 -20 -60 -102 -15
-134 25 -17 89 -20 117 -5 13 7 21 7 25 0 3 -5 24 -10 46 -10 36 0 39 2 29 19
-5 11 -10 62 -10 115 0 90 -1 95 -26 115 -20 16 -41 21 -86 21 -53 0 -63 -3
-90 -31z"/>
<path d="M5492 844 c-12 -8 -22 -10 -22 -5 0 6 -16 11 -35 11 l-35 0 0 -130 0
-130 40 0 40 0 0 90 c0 77 3 93 20 110 22 22 29 24 50 10 11 -7 16 -34 18
-110 l4 -100 39 0 39 0 0 94 c0 101 -12 151 -40 166 -28 15 -93 12 -118 -6z"/>
<path d="M6058 844 c-37 -20 -58 -63 -58 -119 0 -90 47 -135 140 -135 43 0 55
5 88 34 36 33 37 37 37 101 0 64 -1 68 -37 101 -33 30 -44 34 -90 34 -29 -1
-65 -7 -80 -16z m112 -54 c39 -39 17 -150 -31 -150 -44 0 -77 66 -59 116 20
54 56 68 90 34z"/>
<path d="M1620 720 l0 -130 40 0 40 0 0 130 0 130 -40 0 -40 0 0 -130z"/>
<path d="M817 708 c-4 -29 -9 -90 -13 -135 l-7 -83 48 0 48 0 -7 93 c-12 162
-16 177 -41 177 -19 0 -23 -7 -28 -52z"/>
<path d="M1339 431 c-25 -25 -29 -37 -29 -81 0 -44 4 -56 29 -81 24 -24 38
-29 76 -29 25 0 59 7 75 15 26 14 30 21 30 60 l0 45 -50 0 c-43 0 -50 -3 -50
-20 0 -15 7 -20 25 -20 30 0 33 -15 6 -30 -29 -15 -49 -12 -71 10 -37 37 -13
120 35 120 8 0 24 -9 36 -21 21 -21 60 -23 66 -2 3 7 -7 24 -21 38 -20 20 -35
25 -76 25 -44 0 -56 -5 -81 -29z"/>
<path d="M1740 351 l0 -109 64 -1 c77 0 101 18 101 79 0 54 -28 83 -77 78 -37
-3 -38 -3 -38 29 0 29 -3 33 -25 33 l-25 0 0 -109z"/>
<path d="M2770 350 l0 -110 25 0 c23 0 25 4 25 44 0 25 5 48 10 51 6 3 10 0
10 -7 0 -7 5 -30 11 -50 8 -30 15 -38 33 -38 21 0 26 8 39 58 l15 57 1 -42 c1
-57 9 -73 37 -73 24 0 24 1 24 110 l0 110 -39 0 c-43 0 -38 9 -75 -124 -1 -5
-10 21 -20 57 l-18 67 -39 0 -39 0 0 -110z"/>
<path d="M4300 440 c-11 -11 -20 -27 -20 -35 0 -20 37 -19 57 0 19 19 37 15
41 -10 3 -10 -15 -37 -46 -69 -78 -80 -76 -86 18 -86 73 0 80 2 80 20 0 17 -7
20 -41 20 l-42 0 42 45 c46 50 54 91 23 118 -26 24 -87 22 -112 -3z"/>
<path d="M4474 434 c-24 -35 -24 -132 -1 -167 14 -22 25 -27 57 -27 53 0 73
30 73 110 0 80 -20 110 -73 110 -31 0 -43 -5 -56 -26z"/>
<path d="M4653 452 c-6 -4 -16 -20 -22 -35 -10 -25 -9 -27 16 -27 14 0 31 7
38 17 14 18 35 10 35 -14 0 -9 -22 -40 -50 -69 -71 -75 -68 -84 30 -84 73 0
80 2 80 20 0 17 -7 20 -47 20 l-48 0 37 33 c60 53 72 93 38 127 -20 20 -83 27
-107 12z"/>
<path d="M4836 390 c-25 -38 -46 -79 -46 -90 0 -17 7 -20 45 -20 38 0 45 -3
45 -20 0 -15 7 -20 25 -20 18 0 25 5 25 20 0 11 7 20 15 20 8 0 15 9 15 20 0
11 -7 20 -15 20 -12 0 -15 14 -15 70 0 67 -1 70 -24 70 -18 0 -34 -16 -70 -70z"/>
<path d="M5270 440 c-11 -11 -20 -27 -20 -35 0 -20 37 -19 57 0 19 19 37 15
41 -10 3 -10 -15 -37 -46 -69 -78 -80 -76 -86 18 -86 73 0 80 2 80 20 0 17 -7
20 -41 20 l-42 0 42 45 c46 50 54 91 23 118 -26 24 -87 22 -112 -3z"/>
<path d="M5454 452 c-22 -14 -34 -51 -34 -102 0 -79 21 -110 75 -110 54 0 75
31 75 110 0 79 -21 110 -75 110 -16 0 -35 -4 -41 -8z"/>
<path d="M5610 440 c-11 -11 -20 -27 -20 -35 0 -20 37 -19 57 0 19 19 37 15
41 -10 3 -10 -15 -37 -46 -69 -78 -80 -76 -86 18 -86 73 0 80 2 80 20 0 17 -7
20 -41 20 l-42 0 42 45 c46 50 54 91 23 118 -26 24 -87 22 -112 -3z"/>
<path d="M5760 440 c0 -17 7 -20 46 -20 25 0 44 -3 42 -7 -28 -54 -48 -105
-53 -135 -7 -36 -6 -38 19 -38 20 0 27 6 32 28 13 58 26 92 50 127 40 59 35
65 -56 65 -73 0 -80 -2 -80 -20z"/>
<path d="M1569 381 c-18 -14 -24 -29 -24 -61 0 -52 30 -80 85 -80 55 0 85 28
85 80 0 52 -30 80 -85 80 -22 0 -47 -8 -61 -19z"/>
<path d="M2030 380 c-29 -29 -28 -103 2 -124 29 -20 102 -21 118 -1 10 12 9
16 -4 21 -9 3 -26 4 -38 1 -22 -6 -48 7 -48 24 0 5 23 9 50 9 49 0 50 1 50 29
0 56 -88 83 -130 41z"/>
<path d="M2310 319 c0 -78 0 -79 25 -79 24 0 25 3 25 54 0 35 5 58 15 66 24
20 35 2 35 -61 0 -56 1 -59 25 -59 24 0 25 2 25 69 0 44 -5 72 -13 79 -7 6
-41 11 -75 11 l-62 -1 0 -79z"/>
<path d="M2512 377 c-52 -55 -13 -137 64 -137 76 0 115 88 61 138 -33 31 -96
30 -125 -1z"/>
<path d="M3030 336 c0 -85 11 -95 95 -95 l65 1 0 79 c0 77 -1 79 -24 79 -21 0
-24 -5 -28 -56 -8 -96 -58 -94 -58 2 0 51 -1 54 -25 54 -24 0 -25 -2 -25 -64z"/>
<path d="M3220 319 c0 -78 0 -79 25 -79 23 0 25 3 25 49 0 32 6 55 16 66 26
26 44 1 44 -61 0 -51 1 -54 25 -54 24 0 25 2 25 64 0 85 -11 95 -95 95 l-65
-1 0 -79z"/>
<path d="M3510 380 c-13 -13 -20 -33 -20 -60 0 -55 26 -80 83 -80 31 0 49 6
61 19 33 36 -9 57 -47 24 -18 -17 -19 -17 -33 2 -19 25 -18 59 2 76 14 11 18
11 29 -4 13 -18 50 -23 60 -7 3 5 -3 18 -15 30 -27 27 -93 27 -120 0z"/>
<path d="M3760 289 l0 -109 25 0 c22 0 25 4 25 33 0 32 1 33 34 29 25 -3 40 2
55 17 25 25 28 86 6 119 -14 19 -25 22 -80 21 l-65 -1 0 -109z"/>
<path d="M3956 384 c-9 -8 -14 -20 -11 -25 9 -13 39 -11 53 3 9 9 15 9 24 0
15 -15 -4 -32 -37 -32 -27 0 -45 -18 -45 -46 0 -33 20 -43 90 -43 l65 0 -5 70
c-4 46 -10 73 -20 79 -24 16 -97 12 -114 -6z"/>
</g>
</svg>
