<?xml version="1.0" standalone="no"?>
<!DOCTYPE svg PUBLIC "-//W3C//DTD SVG 20010904//EN"
 "http://www.w3.org/TR/2001/REC-SVG-20010904/DTD/svg10.dtd">
<svg version="1.0" xmlns="http://www.w3.org/2000/svg"
 width="110.000000pt" height="175.000000pt" viewBox="0 0 110.000000 175.000000"
 preserveAspectRatio="xMidYMid meet">

<g transform="translate(0.000000,175.000000) scale(0.100000,-0.100000)"
fill="#000000" stroke="none">
<path d="M703 1548 c-579 -576 -593 -591 -643 -704 -41 -90 -54 -168 -47 -282
9 -155 64 -271 182 -385 118 -114 236 -160 410 -161 120 -1 193 17 288 72 61
35 160 119 181 154 35 57 9 145 -51 173 -58 28 -110 14 -168 -45 -90 -91 -214
-127 -334 -96 -175 45 -272 181 -258 362 10 128 17 138 421 544 200 201 369
375 375 387 6 12 11 38 11 59 0 29 -8 44 -39 75 -34 35 -44 39 -87 39 l-48 0
-193 -192z"/>
</g>
</svg>
