<?xml version="1.0" standalone="no"?>
<!DOCTYPE svg PUBLIC "-//W3C//DTD SVG 20010904//EN"
 "http://www.w3.org/TR/2001/REC-SVG-20010904/DTD/svg10.dtd">
<svg version="1.0" xmlns="http://www.w3.org/2000/svg"
 width="110.000000pt" height="175.000000pt" viewBox="0 0 110.000000 175.000000"
 preserveAspectRatio="xMidYMid meet">

<g transform="translate(0.000000,175.000000) scale(0.100000,-0.100000)"
fill="#000000" stroke="none">
<path d="M390 1735 c-36 -7 -84 -20 -107 -29 -91 -32 -226 -136 -259 -198 -31
-60 -9 -145 46 -173 60 -31 118 -17 181 44 156 151 391 140 518 -25 87 -114
93 -273 16 -393 -13 -20 -175 -187 -360 -371 -185 -184 -350 -353 -366 -374
-36 -49 -39 -105 -7 -152 28 -41 56 -54 116 -54 l46 0 369 368 c203 202 386
392 406 422 161 235 142 542 -47 750 -94 103 -192 157 -340 186 -88 17 -125
17 -212 -1z"/>
</g>
</svg>
