<?xml version="1.0" standalone="no"?>
<!DOCTYPE svg PUBLIC "-//W3C//DTD SVG 20010904//EN"
 "http://www.w3.org/TR/2001/REC-SVG-20010904/DTD/svg10.dtd">
<svg version="1.0" xmlns="http://www.w3.org/2000/svg"
 width="1829.000000pt" height="83.000000pt" viewBox="0 0 1829.000000 83.000000"
 preserveAspectRatio="xMidYMid meet">
<metadata>
Created by potrace 1.16, written by Peter Selinger 2001-2019
</metadata>
<g transform="translate(0.000000,83.000000) scale(0.100000,-0.100000)"
fill="#000000" stroke="none">
<path d="M5070 814 c-14 -3 -42 -10 -62 -15 l-38 -10 0 -70 c0 -68 1 -70 23
-63 52 17 96 24 155 24 68 0 115 -18 132 -49 13 -26 13 -104 -1 -134 -6 -13
-73 -83 -149 -155 -151 -143 -190 -198 -190 -261 l0 -41 260 0 260 0 0 60 0
60 -150 0 c-120 0 -150 3 -150 14 0 7 54 64 119 125 66 62 129 127 140 145 32
52 44 126 31 190 -14 71 -44 113 -103 150 -44 27 -57 30 -150 32 -56 1 -113 0
-127 -2z"/>
<path d="M6015 806 c-106 -33 -164 -93 -198 -201 -31 -101 -31 -280 1 -383 42
-135 131 -200 287 -209 258 -17 382 120 378 417 -2 210 -73 333 -216 375 -61
18 -197 19 -252 1z m215 -144 c24 -12 43 -33 60 -67 23 -46 25 -61 25 -180 0
-120 -2 -135 -25 -179 -31 -61 -75 -86 -148 -86 -133 0 -184 73 -184 265 0
142 30 222 96 251 44 19 134 17 176 -4z"/>
<path d="M6903 804 l-63 -15 0 -70 c0 -62 2 -70 18 -65 94 27 185 36 232 21
67 -20 94 -85 66 -160 -13 -33 -48 -73 -146 -165 -146 -137 -193 -201 -194
-264 l-1 -41 260 0 260 0 3 58 3 57 -150 0 c-93 0 -152 4 -156 10 -7 11 7 25
164 174 56 53 91 95 107 130 56 120 12 260 -99 318 -55 29 -212 35 -304 12z"/>
<path d="M7805 800 c-60 -10 -116 -19 -122 -19 -9 -1 -13 -21 -13 -67 l0 -66
60 7 60 7 0 -311 0 -311 80 0 80 0 0 390 c0 365 -1 390 -17 389 -10 -1 -67 -9
-128 -19z"/>
<path d="M10183 804 l-63 -15 0 -70 c0 -38 1 -69 3 -69 1 0 27 7 57 15 73 20
173 19 215 -1 21 -10 38 -27 44 -46 25 -72 6 -122 -75 -199 -32 -30 -90 -84
-127 -119 -93 -87 -149 -172 -145 -219 l3 -36 260 0 260 0 3 58 3 57 -150 0
c-93 0 -152 4 -156 10 -4 6 31 46 76 88 178 165 208 206 217 294 10 105 -36
196 -122 241 -54 28 -211 34 -303 11z"/>
<path d="M11163 806 c-92 -30 -148 -83 -187 -180 -18 -44 -21 -72 -21 -206 0
-140 2 -161 24 -218 31 -81 91 -144 163 -169 81 -28 246 -25 313 5 118 54 169
147 181 327 16 222 -46 366 -181 426 -62 28 -226 37 -292 15z m228 -149 c19
-12 42 -39 53 -60 28 -58 41 -176 29 -257 -21 -136 -71 -190 -174 -190 -132 0
-178 58 -186 237 -5 85 -2 113 16 171 29 97 61 120 167 121 48 1 69 -4 95 -22z"/>
<path d="M12070 807 c-30 -7 -60 -16 -67 -20 -11 -7 -12 -121 -1 -132 3 -3 27
2 54 10 27 8 80 15 117 15 108 0 147 -31 147 -116 0 -52 -31 -103 -98 -162
-177 -154 -252 -248 -252 -319 l0 -43 258 2 257 3 3 58 3 57 -150 0 c-82 0
-152 4 -155 9 -4 5 50 62 119 127 156 146 179 187 173 297 -3 61 -9 83 -33
122 -45 73 -102 99 -224 102 -53 1 -121 -3 -151 -10z"/>
<path d="M12810 746 l0 -65 172 0 c94 -1 172 -2 173 -4 1 -1 -58 -141 -131
-312 -73 -171 -133 -314 -134 -318 0 -4 37 -7 82 -5 l83 3 134 315 c119 279
135 323 139 383 l4 67 -261 0 -261 0 0 -64z"/>
<path d="M7 453 c-4 -3 -7 -24 -7 -45 l0 -38 1966 0 1965 0 -3 43 -3 42 -1956
3 c-1076 1 -1959 -1 -1962 -5z"/>
<path d="M14350 415 l0 -45 1966 0 1965 0 -3 43 -3 42 -1962 3 -1963 2 0 -45z"/>
<path d="M8804 416 c-3 -7 -4 -35 -2 -62 l3 -49 228 -3 227 -2 0 65 0 65 -225
0 c-182 0 -227 -3 -231 -14z"/>
</g>
</svg>
