<?xml version="1.0" standalone="no"?>
<!DOCTYPE svg PUBLIC "-//W3C//DTD SVG 20010904//EN"
 "http://www.w3.org/TR/2001/REC-SVG-20010904/DTD/svg10.dtd">
<svg version="1.0" xmlns="http://www.w3.org/2000/svg"
 width="1608.000000pt" height="126.000000pt" viewBox="0 0 1608.000000 126.000000"
 preserveAspectRatio="xMidYMid meet">
<metadata>
Created by potrace 1.16, written by Peter Selinger 2001-2019
</metadata>
<g transform="translate(0.000000,126.000000) scale(0.100000,-0.100000)"
fill="#000000" stroke="none">
<path d="M5178 1230 c-166 -41 -255 -139 -266 -291 -13 -180 74 -282 293 -348
39 -11 111 -33 160 -47 153 -46 200 -83 211 -167 9 -67 -10 -123 -54 -151 -83
-54 -293 -59 -476 -11 -53 14 -101 25 -106 25 -6 0 -10 -35 -10 -84 l0 -83 66
-22 c90 -29 282 -44 407 -31 190 19 287 75 353 200 14 27 18 58 19 130 0 84
-3 101 -28 153 -50 101 -145 157 -369 217 -159 43 -230 78 -251 123 -32 67
-15 157 36 190 92 60 290 62 527 6 12 -3 16 11 18 79 3 97 11 90 -137 116
-127 22 -295 20 -393 -4z"/>
<path d="M7415 1234 c-281 -62 -406 -266 -392 -639 4 -91 12 -164 25 -210 69
-255 237 -369 542 -368 315 1 484 124 546 398 24 107 24 318 -1 435 -19 95
-68 198 -116 249 -48 50 -126 96 -204 121 -93 30 -297 37 -400 14z m300 -168
c90 -24 152 -70 188 -141 44 -88 66 -268 48 -402 -22 -170 -70 -252 -179 -305
-63 -30 -73 -32 -182 -32 -113 -1 -118 0 -185 34 -85 43 -126 92 -157 193 -31
96 -33 338 -4 432 49 162 151 233 336 234 47 1 108 -5 135 -13z"/>
<path d="M15325 1234 c-192 -38 -314 -155 -366 -351 -29 -106 -32 -384 -6
-483 71 -267 237 -383 547 -383 235 0 373 60 468 203 78 116 112 306 92 516
-18 197 -70 317 -174 400 -69 56 -100 71 -198 94 -98 24 -256 25 -363 4z m300
-168 c130 -34 194 -104 224 -245 42 -197 12 -435 -68 -531 -67 -82 -218 -125
-359 -103 -177 27 -259 125 -284 336 -13 111 2 290 31 368 21 55 81 124 131
149 75 39 231 51 325 26z"/>
<path d="M10 1155 l0 -75 190 0 190 0 2 -522 3 -523 97 -3 98 -3 2 523 3 523
193 3 192 2 0 75 0 75 -485 0 -485 0 0 -75z"/>
<path d="M1190 631 l0 -601 100 0 100 0 0 216 0 216 154 -4 c192 -4 183 2 255
-160 12 -27 30 -69 42 -95 12 -27 34 -76 50 -110 l28 -63 96 0 c78 0 95 3 95
15 0 27 -172 404 -196 430 -13 14 -24 28 -24 30 0 2 20 13 44 23 162 72 232
265 172 472 -25 86 -78 149 -161 190 l-69 35 -343 3 -343 3 0 -600z m640 419
c68 -38 95 -94 95 -195 0 -93 -19 -146 -67 -184 -54 -44 -91 -50 -285 -51
l-183 0 0 231 0 231 198 -4 c189 -3 199 -4 242 -28z"/>
<path d="M2704 1195 c-7 -19 -14 -37 -14 -41 0 -3 -6 -20 -14 -37 -8 -18 -73
-185 -144 -372 -188 -492 -211 -552 -243 -637 l-28 -78 103 0 104 0 36 98 c21
53 47 123 59 155 l21 57 245 0 246 0 47 -123 c26 -67 53 -137 59 -154 l11 -33
99 0 c73 0 99 3 99 13 0 6 -27 84 -61 172 -33 88 -103 273 -156 410 -52 138
-125 330 -161 428 l-66 177 -114 0 -113 0 -15 -35z m228 -413 c54 -141 99
-263 100 -270 3 -12 -35 -14 -202 -12 -112 0 -206 2 -207 4 -1 1 29 85 68 187
39 101 84 221 101 267 16 45 33 82 36 82 4 0 51 -116 104 -258z"/>
<path d="M3650 630 l0 -600 100 0 100 0 2 442 3 442 61 -85 c33 -46 90 -127
127 -179 72 -102 151 -214 328 -463 l112 -158 86 3 86 3 3 598 2 597 -100 0
-100 0 0 -442 0 -443 -20 25 c-11 14 -47 63 -80 110 -33 47 -108 153 -167 237
-60 83 -166 232 -236 332 l-128 181 -90 0 -89 0 0 -600z"/>
<path d="M6030 630 l0 -601 98 3 97 3 5 260 5 260 255 2 c140 2 261 3 268 3 8
0 12 22 12 75 l0 75 -270 0 -270 0 0 185 0 185 305 0 305 0 0 75 0 75 -405 0
-405 0 0 -600z"/>
<path d="M8410 630 l0 -601 98 3 c68 2 97 7 98 16 1 6 2 102 3 213 l1 201 148
-4 c118 -2 153 -6 174 -20 29 -19 36 -34 149 -293 24 -55 48 -103 54 -107 12
-9 195 -11 195 -2 0 9 -137 330 -162 379 -11 22 -31 52 -44 66 l-25 26 65 32
c71 35 112 79 149 158 19 41 22 65 22 163 0 108 -2 119 -31 180 -49 104 -114
156 -222 179 -33 7 -172 11 -362 11 l-310 0 0 -600z m597 435 c91 -27 133 -97
133 -223 0 -108 -44 -179 -130 -207 -37 -12 -85 -15 -224 -13 l-177 3 0 220
c0 121 0 223 1 228 0 4 78 7 173 7 126 0 187 -4 224 -15z"/>
<path d="M9592 633 l3 -598 98 -3 97 -3 0 433 c0 272 4 428 9 423 9 -9 51 -93
268 -532 l56 -113 62 0 63 0 20 48 c11 26 83 173 159 327 l138 280 5 -430 5
-430 98 -3 97 -3 0 601 0 600 -105 0 c-100 0 -106 -1 -114 -22 -5 -13 -75
-158 -156 -323 -81 -165 -160 -328 -177 -362 -16 -35 -34 -63 -38 -63 -4 0
-15 17 -23 37 -8 21 -92 194 -186 386 l-170 347 -106 0 -105 0 2 -597z"/>
<path d="M11469 1203 c-6 -16 -31 -82 -56 -148 -52 -136 -69 -182 -218 -570
-135 -352 -165 -433 -165 -445 0 -6 40 -10 95 -10 113 0 102 -11 171 177 l49
133 246 0 246 0 59 -155 59 -155 102 0 102 0 -33 92 c-19 51 -60 161 -91 243
-89 232 -325 859 -325 862 0 2 -52 3 -115 3 l-115 0 -11 -27z m139 -190 c5
-16 51 -136 101 -269 50 -133 91 -243 91 -245 0 -4 -411 -1 -415 3 -5 5 200
538 207 538 3 0 10 -12 16 -27z"/>
<path d="M12410 630 l0 -600 100 0 100 0 0 440 c0 242 4 440 8 440 4 0 15 -13
25 -29 9 -16 77 -113 150 -215 72 -102 188 -265 257 -362 69 -98 141 -199 160
-226 l35 -48 88 0 87 0 0 600 0 600 -100 0 -100 0 0 -435 c0 -239 -3 -435 -7
-435 -5 1 -75 96 -157 213 -82 117 -174 246 -203 287 -30 41 -101 140 -157
220 l-103 145 -91 3 -92 3 0 -601z"/>
<path d="M13710 630 l0 -600 274 0 c377 0 467 19 583 124 60 54 94 117 124
231 18 65 22 108 22 235 0 309 -72 475 -242 556 -99 47 -161 54 -473 54 l-288
0 0 -600z m584 430 c92 -23 133 -54 169 -125 39 -76 52 -155 51 -315 0 -205
-30 -303 -114 -373 -51 -44 -116 -56 -312 -59 l-178 -3 -2 443 c-2 244 -1 446
1 448 2 2 73 4 156 4 119 0 169 -4 229 -20z"/>
</g>
</svg>
