<?xml version="1.0" standalone="no"?>
<!DOCTYPE svg PUBLIC "-//W3C//DTD SVG 20010904//EN"
 "http://www.w3.org/TR/2001/REC-SVG-20010904/DTD/svg10.dtd">
<svg version="1.0" xmlns="http://www.w3.org/2000/svg"
 width="1830.000000pt" height="311.000000pt" viewBox="0 0 1830.000000 311.000000"
 preserveAspectRatio="xMidYMid meet">
<metadata>
Created by potrace 1.16, written by Peter Selinger 2001-2019
</metadata>
<g transform="translate(0.000000,311.000000) scale(0.100000,-0.100000)"
fill="#000000" stroke="none">
<path d="M392 3070 c-148 -39 -251 -118 -319 -246 -42 -80 -62 -160 -70 -279
-19 -316 130 -533 407 -591 116 -25 328 -14 440 21 47 15 97 34 113 43 l27 16
0 273 0 273 -230 0 -231 0 3 -72 3 -73 128 -3 127 -3 0 -128 0 -129 -32 -12
c-18 -6 -83 -14 -145 -17 -90 -5 -122 -2 -164 11 -156 51 -217 167 -207 387 9
171 57 262 165 316 52 25 70 28 189 31 122 4 205 -5 309 -34 19 -5 20 0 20 91
0 76 -3 98 -15 105 -8 5 -53 15 -99 24 -119 23 -324 21 -419 -4z"/>
<path d="M1473 3070 c-93 -24 -145 -52 -206 -108 -64 -60 -111 -159 -132 -277
-42 -244 9 -490 128 -609 184 -184 625 -182 806 3 118 122 168 362 126 607
-37 214 -156 344 -352 388 -100 22 -277 20 -370 -4z m331 -201 c69 -25 116
-78 142 -157 29 -87 26 -325 -4 -403 -44 -110 -122 -160 -262 -167 -148 -7
-245 49 -292 167 -31 78 -33 315 -4 403 40 124 123 177 278 177 65 1 102 -4
142 -20z"/>
<path d="M7430 3066 c-100 -30 -153 -59 -207 -112 -88 -89 -133 -237 -133
-441 0 -143 18 -235 65 -330 79 -161 239 -243 475 -243 284 0 460 120 520 354
28 111 28 330 0 440 -48 190 -156 297 -342 341 -99 23 -286 19 -378 -9z m328
-191 c61 -19 115 -68 143 -131 30 -71 44 -215 31 -318 -18 -139 -62 -214 -149
-257 -41 -20 -63 -23 -153 -24 -94 0 -110 3 -155 27 -62 32 -77 49 -112 123
-25 55 -28 72 -31 196 -6 238 38 336 175 385 51 18 188 17 251 -1z"/>
<path d="M13330 3076 c-116 -27 -191 -77 -235 -157 -27 -49 -30 -62 -30 -149
1 -110 17 -153 84 -213 54 -49 73 -57 257 -116 184 -58 224 -80 242 -135 28
-87 -16 -149 -115 -162 -101 -12 -270 2 -358 30 -44 14 -84 26 -88 26 -4 0 -6
-46 -5 -102 l3 -102 58 -18 c150 -45 404 -50 527 -8 129 43 200 123 221 248
17 103 -21 216 -93 278 -47 39 -157 88 -270 118 -184 50 -228 81 -228 163 0
53 28 86 86 102 66 18 251 14 339 -9 43 -11 84 -20 92 -20 10 0 13 23 13 99
l0 99 -72 18 c-94 22 -350 29 -428 10z"/>
<path d="M17550 3075 c-266 -74 -371 -250 -357 -599 7 -186 34 -275 115 -375
81 -100 206 -151 387 -158 203 -8 331 32 436 136 110 111 144 228 136 476 -5
177 -19 234 -80 336 -42 70 -131 137 -222 168 -91 31 -328 40 -415 16z m350
-221 c37 -21 64 -46 83 -76 39 -62 60 -186 53 -303 -14 -226 -96 -323 -282
-333 -129 -7 -219 29 -268 107 -49 77 -58 131 -54 289 6 183 27 244 104 301
56 41 102 51 209 48 91 -2 105 -5 155 -33z"/>
<path d="M2375 3069 c-3 -8 -4 -259 -3 -559 l3 -545 335 -3 c315 -2 339 -1
404 18 86 26 151 88 180 168 20 59 25 199 8 243 -16 40 -70 98 -112 119 l-37
19 47 49 c59 61 74 112 68 224 -5 99 -28 149 -90 202 -74 64 -103 68 -470 74
-269 3 -329 2 -333 -9z m632 -195 c54 -40 63 -163 17 -216 -37 -41 -74 -48
-249 -48 l-165 0 0 146 0 146 184 -4 c169 -3 187 -5 213 -24z m-8 -450 c55
-22 75 -56 76 -129 0 -80 -18 -121 -66 -146 -34 -17 -60 -19 -219 -19 l-180 0
0 155 0 155 175 0 c136 0 183 -3 214 -16z"/>
<path d="M3493 3074 c-10 -5 -13 -126 -13 -560 l0 -554 115 0 115 0 -2 558 -3
557 -100 2 c-55 1 -106 -1 -112 -3z"/>
<path d="M3917 3073 c-4 -3 -7 -255 -7 -560 l0 -553 405 0 406 0 -3 88 -3 87
-282 3 -283 2 0 145 0 145 250 0 251 0 -3 88 -3 87 -248 0 -247 0 0 145 0 145
261 -3 c144 -2 272 -1 284 2 20 5 22 12 24 87 2 59 -2 85 -11 90 -15 10 -782
12 -791 2z"/>
<path d="M4887 3073 c-4 -3 -7 -255 -7 -560 l0 -553 115 0 115 0 2 183 3 182
95 3 c52 2 112 -2 132 -8 34 -10 41 -18 76 -93 22 -45 56 -122 77 -170 21 -49
43 -91 50 -93 6 -3 61 -3 122 -2 l111 3 -79 180 c-43 98 -87 191 -99 207 -11
15 -20 29 -20 32 0 2 21 17 48 32 62 36 103 80 133 140 21 43 24 63 23 154 0
84 -5 116 -22 161 -46 117 -134 181 -272 199 -84 11 -593 14 -603 3z m582
-211 c61 -30 76 -62 76 -157 0 -94 -14 -123 -76 -160 -29 -17 -56 -20 -196
-23 l-163 -4 0 181 0 181 163 0 c134 0 168 -3 196 -18z"/>
<path d="M5962 3068 c-9 -9 -12 -139 -12 -560 l0 -548 120 0 120 0 2 367 3
367 30 -41 c17 -23 102 -143 190 -268 88 -125 193 -271 232 -326 l73 -99 100
0 100 0 -2 558 -3 557 -110 0 -110 0 -5 -370 -5 -370 -43 60 c-134 185 -329
459 -367 515 -25 36 -62 88 -83 115 l-38 50 -90 3 c-61 2 -93 -1 -102 -10z"/>
<path d="M8728 3074 c-5 -4 -8 -256 -8 -561 l0 -553 283 0 c306 0 375 8 463
53 110 57 172 141 211 287 23 88 23 337 0 432 -43 178 -137 275 -312 325 -55
16 -624 32 -637 17z m568 -209 c64 -19 116 -72 140 -145 27 -79 27 -330 1
-410 -24 -71 -58 -115 -110 -142 -38 -21 -56 -23 -202 -23 -88 0 -161 3 -162
8 -2 4 -3 169 -3 367 l0 360 143 0 c97 0 159 -5 193 -15z"/>
<path d="M9873 3073 c-10 -4 -13 -125 -13 -559 l0 -554 405 0 406 0 -3 88 -3
87 -282 3 -283 2 0 145 0 145 250 0 251 0 -3 88 -3 87 -248 0 -247 0 0 145 0
145 252 -3 c139 -2 268 0 286 3 l33 6 -3 87 -3 87 -390 2 c-214 1 -396 -1
-402 -4z"/>
<path d="M10836 3072 c-3 -3 -6 -254 -6 -559 l0 -553 395 0 396 0 -3 88 -3 87
-277 3 -278 2 -2 468 -3 467 -107 2 c-58 0 -109 -1 -112 -5z"/>
<path d="M12137 3074 c-4 -4 -7 -256 -7 -561 l0 -553 400 0 400 0 0 90 0 90
-285 0 -286 0 3 143 3 142 253 3 253 2 -3 88 -3 87 -245 2 c-135 2 -248 3
-252 3 -5 0 -8 63 -8 140 l0 140 283 2 282 3 0 90 0 90 -391 3 c-214 1 -393
-1 -397 -4z"/>
<path d="M13944 3066 c-3 -7 -4 -48 -2 -92 l3 -79 168 -3 167 -2 0 -465 0
-465 120 0 120 0 0 465 0 465 168 2 167 3 0 90 0 90 -453 2 c-356 1 -454 -1
-458 -11z"/>
<path d="M15231 3062 c-9 -17 -49 -121 -273 -707 -44 -115 -95 -250 -114 -299
-19 -48 -34 -90 -34 -92 0 -3 55 -3 122 -2 l121 3 51 130 52 130 200 3 c154 2
203 -1 211 -10 5 -7 31 -68 58 -135 l48 -123 119 0 c65 0 118 4 118 9 0 5 -14
45 -31 88 -18 43 -42 105 -54 138 -22 60 -252 664 -306 806 l-30 77 -124 1
c-111 2 -125 0 -134 -17z m217 -434 c45 -116 81 -213 79 -214 -2 -2 -77 -4
-167 -4 -132 -1 -164 1 -162 12 8 37 156 418 162 418 4 0 44 -95 88 -212z"/>
<path d="M16093 3074 c-10 -5 -13 -126 -13 -560 l0 -554 283 0 c301 0 375 8
458 51 140 70 206 184 229 391 27 247 -26 460 -139 560 -110 97 -167 109 -521
114 -157 1 -291 1 -297 -2z m588 -217 c87 -39 128 -128 136 -297 6 -126 -9
-234 -42 -300 -49 -96 -112 -120 -315 -120 l-137 0 -7 53 c-8 68 -8 635 1 665
l6 24 161 -4 c120 -4 170 -9 197 -21z"/>
<path d="M5070 814 c-14 -3 -42 -10 -62 -15 l-38 -10 0 -70 c0 -68 1 -70 23
-63 52 17 96 24 155 24 68 0 115 -18 132 -49 13 -26 13 -104 -1 -134 -6 -13
-73 -83 -149 -155 -151 -143 -190 -198 -190 -261 l0 -41 260 0 260 0 0 60 0
60 -150 0 c-120 0 -150 3 -150 14 0 7 54 64 119 125 66 62 129 127 140 145 32
52 44 126 31 190 -14 71 -44 113 -103 150 -44 27 -57 30 -150 32 -56 1 -113 0
-127 -2z"/>
<path d="M6015 806 c-106 -33 -164 -93 -198 -201 -31 -101 -31 -280 1 -383 42
-135 131 -200 287 -209 258 -17 382 120 378 417 -2 210 -73 333 -216 375 -61
18 -197 19 -252 1z m215 -144 c24 -12 43 -33 60 -67 23 -46 25 -61 25 -180 0
-120 -2 -135 -25 -179 -31 -61 -75 -86 -148 -86 -133 0 -184 73 -184 265 0
142 30 222 96 251 44 19 134 17 176 -4z"/>
<path d="M6903 804 l-63 -15 0 -70 c0 -62 2 -70 18 -65 94 27 185 36 232 21
67 -20 94 -85 66 -160 -13 -33 -48 -73 -146 -165 -146 -137 -193 -201 -194
-264 l-1 -41 260 0 260 0 3 58 3 57 -150 0 c-93 0 -152 4 -156 10 -7 11 7 25
164 174 56 53 91 95 107 130 56 120 12 260 -99 318 -55 29 -212 35 -304 12z"/>
<path d="M7805 800 c-60 -10 -116 -19 -122 -19 -9 -1 -13 -21 -13 -67 l0 -66
60 7 60 7 0 -311 0 -311 80 0 80 0 0 390 c0 365 -1 390 -17 389 -10 -1 -67 -9
-128 -19z"/>
<path d="M10183 804 l-63 -15 0 -70 c0 -38 1 -69 3 -69 1 0 27 7 57 15 73 20
173 19 215 -1 21 -10 38 -27 44 -46 25 -72 6 -122 -75 -199 -32 -30 -90 -84
-127 -119 -93 -87 -149 -172 -145 -219 l3 -36 260 0 260 0 3 58 3 57 -150 0
c-93 0 -152 4 -156 10 -4 6 31 46 76 88 178 165 208 206 217 294 10 105 -36
196 -122 241 -54 28 -211 34 -303 11z"/>
<path d="M11163 806 c-92 -30 -148 -83 -187 -180 -18 -44 -21 -72 -21 -206 0
-140 2 -161 24 -218 31 -81 91 -144 163 -169 81 -28 246 -25 313 5 118 54 169
147 181 327 16 222 -46 366 -181 426 -62 28 -226 37 -292 15z m228 -149 c19
-12 42 -39 53 -60 28 -58 41 -176 29 -257 -21 -136 -71 -190 -174 -190 -132 0
-178 58 -186 237 -5 85 -2 113 16 171 29 97 61 120 167 121 48 1 69 -4 95 -22z"/>
<path d="M12070 807 c-30 -7 -60 -16 -67 -20 -11 -7 -12 -121 -1 -132 3 -3 27
2 54 10 27 8 80 15 117 15 108 0 147 -31 147 -116 0 -52 -31 -103 -98 -162
-177 -154 -252 -248 -252 -319 l0 -43 258 2 257 3 3 58 3 57 -150 0 c-82 0
-152 4 -155 9 -4 5 50 62 119 127 156 146 179 187 173 297 -3 61 -9 83 -33
122 -45 73 -102 99 -224 102 -53 1 -121 -3 -151 -10z"/>
<path d="M12810 746 l0 -65 172 0 c94 -1 172 -2 173 -4 1 -1 -58 -141 -131
-312 -73 -171 -133 -314 -134 -318 0 -4 37 -7 82 -5 l83 3 134 315 c119 279
135 323 139 383 l4 67 -261 0 -261 0 0 -64z"/>
<path d="M7 453 c-4 -3 -7 -24 -7 -45 l0 -38 1966 0 1965 0 -3 43 -3 42 -1956
3 c-1076 1 -1959 -1 -1962 -5z"/>
<path d="M14350 415 l0 -45 1966 0 1965 0 -3 43 -3 42 -1962 3 -1963 2 0 -45z"/>
<path d="M8804 416 c-3 -7 -4 -35 -2 -62 l3 -49 228 -3 227 -2 0 65 0 65 -225
0 c-182 0 -227 -3 -231 -14z"/>
</g>
</svg>
