<?xml version="1.0" standalone="no"?>
<!DOCTYPE svg PUBLIC "-//W3C//DTD SVG 20010904//EN"
 "http://www.w3.org/TR/2001/REC-SVG-20010904/DTD/svg10.dtd">
<svg version="1.0" xmlns="http://www.w3.org/2000/svg"
 width="1942.000000pt" height="2432.000000pt" viewBox="0 0 1942.000000 2432.000000"
 preserveAspectRatio="xMidYMid meet">
<metadata>
Created by potrace 1.16, written by Peter Selinger 2001-2019
</metadata>
<g transform="translate(0.000000,2432.000000) scale(0.100000,-0.100000)"
fill="#000000" stroke="none">
<path d="M6848 8870 c-166 -41 -255 -139 -266 -291 -13 -180 74 -282 293 -348
39 -11 111 -33 160 -47 153 -46 200 -83 211 -167 9 -67 -10 -123 -54 -151 -83
-54 -293 -59 -476 -11 -53 14 -101 25 -106 25 -6 0 -10 -35 -10 -84 l0 -83 66
-22 c90 -29 282 -44 407 -31 190 19 287 75 353 200 14 27 18 58 19 130 0 84
-3 101 -28 153 -50 101 -145 157 -369 217 -159 43 -230 78 -251 123 -32 67
-15 157 36 190 92 60 290 62 527 6 12 -3 16 11 18 79 3 97 11 90 -137 116
-127 22 -295 20 -393 -4z"/>
<path d="M9085 8874 c-281 -62 -406 -266 -392 -639 4 -91 12 -164 25 -210 69
-255 237 -369 542 -368 315 1 484 124 546 398 24 107 24 318 -1 435 -19 95
-68 198 -116 249 -48 50 -126 96 -204 121 -93 30 -297 37 -400 14z m300 -168
c90 -24 152 -70 188 -141 44 -88 66 -268 48 -402 -22 -170 -70 -252 -179 -305
-63 -30 -73 -32 -182 -32 -113 -1 -118 0 -185 34 -85 43 -126 92 -157 193 -31
96 -33 338 -4 432 49 162 151 233 336 234 47 1 108 -5 135 -13z"/>
<path d="M16995 8874 c-192 -38 -314 -155 -366 -351 -29 -106 -32 -384 -6
-483 71 -267 237 -383 547 -383 235 0 373 60 468 203 78 116 112 306 92 516
-18 197 -70 317 -174 400 -69 56 -100 71 -198 94 -98 24 -256 25 -363 4z m300
-168 c130 -34 194 -104 224 -245 42 -197 12 -435 -68 -531 -67 -82 -218 -125
-359 -103 -177 27 -259 125 -284 336 -13 111 2 290 31 368 21 55 81 124 131
149 75 39 231 51 325 26z"/>
<path d="M1680 8795 l0 -75 190 0 190 0 2 -522 3 -523 97 -3 98 -3 2 523 3
523 193 3 192 2 0 75 0 75 -485 0 -485 0 0 -75z"/>
<path d="M2860 8271 l0 -601 100 0 100 0 0 216 0 216 154 -4 c192 -4 183 2
255 -160 12 -27 30 -69 42 -95 12 -27 34 -76 50 -110 l28 -63 96 0 c78 0 95 3
95 15 0 27 -172 404 -196 430 -13 14 -24 28 -24 30 0 2 20 13 44 23 162 72
232 265 172 472 -25 86 -78 149 -161 190 l-69 35 -343 3 -343 3 0 -600z m640
419 c68 -38 95 -94 95 -195 0 -93 -19 -146 -67 -184 -54 -44 -91 -50 -285 -51
l-183 0 0 231 0 231 198 -4 c189 -3 199 -4 242 -28z"/>
<path d="M4374 8835 c-7 -19 -14 -37 -14 -41 0 -3 -6 -20 -14 -37 -8 -18 -73
-185 -144 -372 -188 -492 -211 -552 -243 -637 l-28 -78 103 0 104 0 36 98 c21
53 47 123 59 155 l21 57 245 0 246 0 47 -123 c26 -67 53 -137 59 -154 l11 -33
99 0 c73 0 99 3 99 13 0 6 -27 84 -61 172 -33 88 -103 273 -156 410 -52 138
-125 330 -161 428 l-66 177 -114 0 -113 0 -15 -35z m228 -413 c54 -141 99
-263 100 -270 3 -12 -35 -14 -202 -12 -112 0 -206 2 -207 4 -1 1 29 85 68 187
39 101 84 221 101 267 16 45 33 82 36 82 4 0 51 -116 104 -258z"/>
<path d="M5320 8270 l0 -600 100 0 100 0 2 442 3 442 61 -85 c33 -46 90 -127
127 -179 72 -102 151 -214 328 -463 l112 -158 86 3 86 3 3 598 2 597 -100 0
-100 0 0 -442 0 -443 -20 25 c-11 14 -47 63 -80 110 -33 47 -108 153 -167 237
-60 83 -166 232 -236 332 l-128 181 -90 0 -89 0 0 -600z"/>
<path d="M7700 8270 l0 -601 98 3 97 3 5 260 5 260 255 2 c140 2 261 3 268 3
8 0 12 22 12 75 l0 75 -270 0 -270 0 0 185 0 185 305 0 305 0 0 75 0 75 -405
0 -405 0 0 -600z"/>
<path d="M10080 8270 l0 -601 98 3 c68 2 97 7 98 16 1 6 2 102 3 213 l1 201
148 -4 c118 -2 153 -6 174 -20 29 -19 36 -34 149 -293 24 -55 48 -103 54 -107
12 -9 195 -11 195 -2 0 9 -137 330 -162 379 -11 22 -31 52 -44 66 l-25 26 65
32 c71 35 112 79 149 158 19 41 22 65 22 163 0 108 -2 119 -31 180 -49 104
-114 156 -222 179 -33 7 -172 11 -362 11 l-310 0 0 -600z m597 435 c91 -27
133 -97 133 -223 0 -108 -44 -179 -130 -207 -37 -12 -85 -15 -224 -13 l-177 3
0 220 c0 121 0 223 1 228 0 4 78 7 173 7 126 0 187 -4 224 -15z"/>
<path d="M11262 8273 l3 -598 98 -3 97 -3 0 433 c0 272 4 428 9 423 9 -9 51
-93 268 -532 l56 -113 62 0 63 0 20 48 c11 26 83 173 159 327 l138 280 5 -430
5 -430 98 -3 97 -3 0 601 0 600 -105 0 c-100 0 -106 -1 -114 -22 -5 -13 -75
-158 -156 -323 -81 -165 -160 -328 -177 -362 -16 -35 -34 -63 -38 -63 -4 0
-15 17 -23 38 -8 20 -92 193 -186 385 l-170 347 -106 0 -105 0 2 -597z"/>
<path d="M13139 8843 c-6 -16 -31 -82 -56 -148 -52 -136 -69 -182 -218 -570
-135 -352 -165 -433 -165 -445 0 -6 40 -10 95 -10 113 0 102 -11 171 177 l49
133 246 0 246 0 59 -155 59 -155 102 0 102 0 -33 93 c-19 50 -60 160 -91 242
-89 232 -325 859 -325 862 0 2 -52 3 -115 3 l-115 0 -11 -27z m139 -190 c5
-16 51 -136 101 -269 50 -133 91 -243 91 -245 0 -4 -411 -1 -415 3 -5 5 200
538 207 538 3 0 10 -12 16 -27z"/>
<path d="M14080 8270 l0 -600 100 0 100 0 0 440 c0 242 4 440 8 440 4 0 15
-13 25 -29 9 -16 77 -113 150 -215 72 -102 188 -265 257 -362 69 -98 141 -199
160 -226 l35 -48 88 0 87 0 0 600 0 600 -100 0 -100 0 0 -435 c0 -239 -3 -435
-7 -435 -5 1 -75 96 -157 213 -82 117 -174 246 -203 287 -30 41 -101 140 -157
220 l-103 145 -91 3 -92 3 0 -601z"/>
<path d="M15380 8270 l0 -600 274 0 c377 0 467 19 583 124 60 54 94 117 124
231 18 65 22 108 22 235 0 309 -72 475 -242 556 -99 47 -161 54 -473 54 l-288
0 0 -600z m584 430 c92 -23 133 -54 169 -125 39 -76 52 -155 51 -315 0 -205
-30 -303 -114 -373 -51 -44 -116 -56 -312 -59 l-178 -3 -2 443 c-2 244 -1 446
1 448 2 2 73 4 156 4 119 0 169 -4 229 -20z"/>
<path d="M1185 6774 c-278 -29 -508 -104 -689 -227 -131 -88 -266 -249 -348
-412 -155 -309 -189 -796 -81 -1155 126 -419 426 -677 895 -772 102 -21 141
-23 398 -23 254 0 299 3 408 23 145 26 316 83 439 144 l88 43 0 625 0 625
-532 3 -533 2 0 -195 0 -195 270 0 270 0 0 -245 0 -244 -42 -12 c-104 -28
-182 -39 -303 -45 -410 -21 -652 120 -743 431 -33 110 -44 258 -31 414 30 371
179 572 484 652 210 55 713 27 943 -52 30 -10 59 -19 64 -19 10 0 11 527 0
534 -20 12 -257 67 -352 81 -101 15 -517 28 -605 19z"/>
<path d="M17930 6771 c-480 -52 -799 -274 -940 -655 -119 -324 -128 -884 -18
-1216 125 -379 387 -602 813 -691 142 -30 484 -38 642 -15 152 22 248 48 357
96 447 196 644 595 623 1260 -10 312 -49 495 -145 685 -141 281 -388 445 -782
520 -98 19 -433 28 -550 16z m405 -546 c223 -47 351 -187 406 -446 19 -88 22
-135 22 -304 0 -171 -3 -215 -22 -300 -45 -202 -134 -331 -275 -400 -188 -94
-492 -85 -671 20 -61 35 -142 127 -175 197 -85 182 -111 484 -64 759 48 285
185 437 432 479 80 13 272 11 347 -5z"/>
<path d="M2612 5848 l3 -893 28 -90 c112 -358 357 -566 774 -657 141 -30 478
-37 624 -13 308 51 530 166 685 353 67 81 137 220 163 322 38 150 41 233 41
1063 l0 807 -315 0 -315 0 0 -781 c0 -524 -4 -804 -11 -852 -31 -198 -132
-314 -324 -374 -93 -28 -327 -25 -415 6 -88 31 -140 63 -193 120 -52 56 -67
81 -98 176 l-23 70 -4 818 -3 817 -310 0 -310 0 3 -892z"/>
<path d="M5310 5478 l0 -1263 932 2 933 3 0 237 0 238 -617 3 -618 2 0 265 0
265 543 2 542 3 3 243 2 242 -545 0 -545 0 2 268 3 267 618 3 617 2 -2 238 -3
237 -932 3 -933 2 0 -1262z"/>
<path d="M7480 5480 c0 -1001 3 -1260 13 -1260 6 0 148 -1 314 -3 l303 -2 2
400 3 400 190 -1 c216 0 246 -9 302 -81 16 -21 78 -148 137 -283 59 -135 126
-287 149 -338 l42 -92 315 -1 c173 0 320 0 327 1 11 0 -47 137 -244 585 -88
200 -113 247 -161 297 -20 21 -34 39 -31 42 2 2 24 14 49 26 82 41 156 98 221
168 79 85 131 172 167 277 25 76 27 89 27 275 0 175 -3 204 -24 280 -84 298
-267 476 -562 546 -66 16 -149 18 -806 21 l-733 4 0 -1261z m1294 751 c117
-47 172 -124 196 -277 14 -84 -2 -210 -35 -274 -26 -52 -85 -110 -142 -139
-66 -33 -147 -41 -420 -41 l-263 0 0 381 0 380 303 -3 c290 -3 304 -4 361 -27z"/>
<path d="M9940 5478 l0 -1263 37 2 c21 1 163 2 316 2 l277 1 0 401 0 402 193
-5 c282 -7 285 -8 416 -310 121 -277 212 -483 215 -486 8 -7 651 -1 649 6 -3
16 -284 657 -322 737 -21 44 -58 102 -81 128 -23 26 -41 49 -39 51 2 2 24 14
49 26 78 39 153 96 215 161 74 79 115 141 154 239 46 116 54 179 48 362 -4
138 -9 177 -31 253 -36 120 -76 198 -144 284 -97 121 -215 194 -392 242 -85
23 -88 23 -822 27 l-738 3 0 -1263z m1294 753 c77 -31 147 -99 170 -166 41
-121 40 -274 -3 -370 -24 -54 -84 -121 -131 -145 -84 -43 -144 -50 -429 -50
l-271 0 0 381 0 380 303 -3 c290 -3 304 -4 361 -27z"/>
<path d="M12400 5480 l0 -1260 930 0 930 0 0 240 0 240 -615 0 -615 0 2 265 3
266 526 -1 c290 0 534 2 543 6 14 5 16 34 16 245 l0 239 -542 2 -543 3 -3 268
-2 267 615 0 615 0 0 240 0 240 -930 0 -930 0 0 -1260z"/>
<path d="M14570 5481 l0 -1260 303 -3 c166 -2 308 -1 315 1 9 2 12 92 12 403
l0 400 188 -4 c280 -6 285 -10 403 -274 39 -87 82 -183 95 -212 13 -29 39 -88
56 -130 18 -42 44 -101 58 -130 l25 -53 323 -2 c239 -1 322 1 322 10 0 6 -43
109 -96 230 -53 120 -125 286 -161 368 -74 172 -101 222 -151 277 -19 21 -33
40 -31 42 2 2 29 16 59 31 174 88 307 246 377 447 27 80 28 91 28 268 0 217
-16 291 -92 450 -39 80 -59 108 -132 181 -98 97 -191 149 -341 190 -85 23 -88
23 -822 27 l-738 3 0 -1260z m1291 751 c116 -46 180 -137 198 -281 19 -151
-18 -281 -101 -356 -93 -83 -120 -89 -460 -93 l-298 -4 0 382 0 381 303 -3
c285 -3 305 -5 358 -26z"/>
<path d="M962 3070 c-148 -39 -251 -118 -319 -246 -42 -80 -62 -160 -70 -279
-19 -316 130 -533 407 -591 116 -25 328 -14 440 21 47 15 97 34 113 43 l27 16
0 273 0 273 -230 0 -231 0 3 -72 3 -73 128 -3 127 -3 0 -128 0 -129 -32 -12
c-18 -6 -83 -14 -145 -17 -90 -5 -122 -2 -164 11 -156 51 -217 167 -207 387 9
171 57 262 165 316 52 25 70 28 189 31 122 4 205 -5 309 -34 19 -5 20 0 20 91
0 76 -3 98 -15 105 -8 5 -53 15 -99 24 -119 23 -324 21 -419 -4z"/>
<path d="M2043 3070 c-93 -24 -145 -52 -206 -108 -64 -60 -111 -159 -132 -277
-42 -244 9 -490 128 -609 184 -184 625 -182 806 3 118 122 168 362 126 607
-37 214 -156 344 -352 388 -100 22 -277 20 -370 -4z m331 -201 c69 -25 116
-78 142 -157 29 -87 26 -325 -4 -403 -44 -110 -122 -160 -262 -167 -148 -7
-245 49 -292 167 -31 78 -33 315 -4 403 40 124 123 177 278 177 65 1 102 -4
142 -20z"/>
<path d="M8000 3066 c-100 -30 -153 -59 -207 -112 -88 -89 -133 -237 -133
-441 0 -143 18 -235 65 -330 79 -161 239 -243 475 -243 284 0 460 120 520 354
28 111 28 330 0 440 -48 190 -156 297 -342 341 -99 23 -286 19 -378 -9z m328
-191 c61 -19 115 -68 143 -131 30 -71 44 -215 31 -318 -18 -139 -62 -214 -149
-257 -41 -20 -63 -23 -153 -24 -94 0 -110 3 -155 27 -62 32 -77 49 -112 123
-25 55 -28 72 -31 196 -6 238 38 336 175 385 51 18 188 17 251 -1z"/>
<path d="M13900 3076 c-116 -27 -191 -77 -235 -157 -27 -49 -30 -62 -30 -149
1 -110 17 -153 84 -213 54 -49 73 -57 257 -116 184 -58 224 -80 242 -135 28
-87 -16 -149 -115 -162 -101 -12 -270 2 -358 30 -44 14 -84 26 -88 26 -4 0 -6
-46 -5 -102 l3 -102 58 -18 c150 -45 404 -50 527 -8 129 43 200 123 221 248
17 103 -21 216 -93 278 -47 39 -157 88 -270 118 -184 50 -228 81 -228 163 0
53 28 86 86 102 66 18 251 14 339 -9 43 -11 84 -20 92 -20 10 0 13 23 13 99
l0 99 -72 18 c-94 22 -350 29 -428 10z"/>
<path d="M18120 3075 c-266 -74 -371 -250 -357 -599 7 -186 34 -275 115 -375
81 -100 206 -151 387 -158 203 -8 331 32 436 136 110 111 144 228 136 476 -5
177 -19 234 -80 336 -42 70 -131 137 -222 168 -91 31 -328 40 -415 16z m350
-221 c37 -21 64 -46 83 -76 39 -62 60 -186 53 -303 -14 -226 -96 -323 -282
-333 -129 -7 -219 29 -268 107 -49 77 -58 131 -54 289 6 183 27 244 104 301
56 41 102 51 209 48 91 -2 105 -5 155 -33z"/>
<path d="M2945 3069 c-3 -8 -4 -259 -3 -559 l3 -545 335 -3 c315 -2 339 -1
404 18 86 26 151 88 180 168 20 59 25 199 8 243 -16 40 -70 98 -112 119 l-37
19 47 49 c59 61 74 112 68 224 -5 99 -28 149 -90 202 -74 64 -103 68 -470 74
-269 3 -329 2 -333 -9z m632 -195 c54 -40 63 -163 17 -216 -37 -41 -74 -48
-249 -48 l-165 0 0 146 0 146 184 -4 c169 -3 187 -5 213 -24z m-8 -450 c55
-22 75 -56 76 -129 0 -80 -18 -121 -66 -146 -34 -17 -60 -19 -219 -19 l-180 0
0 155 0 155 175 0 c136 0 183 -3 214 -16z"/>
<path d="M4063 3074 c-10 -5 -13 -126 -13 -560 l0 -554 115 0 115 0 -2 558 -3
557 -100 2 c-55 1 -106 -1 -112 -3z"/>
<path d="M4487 3073 c-4 -3 -7 -255 -7 -560 l0 -553 405 0 406 0 -3 88 -3 87
-282 3 -283 2 0 145 0 145 250 0 251 0 -3 88 -3 87 -248 0 -247 0 0 145 0 145
261 -3 c144 -2 272 -1 284 2 20 5 22 12 24 87 2 59 -2 85 -11 90 -15 10 -782
12 -791 2z"/>
<path d="M5457 3073 c-4 -3 -7 -255 -7 -560 l0 -553 115 0 115 0 2 183 3 182
95 3 c52 2 112 -2 132 -8 34 -10 41 -18 76 -93 22 -45 56 -122 77 -170 21 -49
43 -91 50 -93 6 -3 61 -3 122 -2 l111 3 -79 180 c-43 98 -87 191 -99 207 -11
15 -20 29 -20 32 0 2 21 17 48 32 62 36 103 80 133 140 21 43 24 63 23 154 0
84 -5 116 -22 161 -46 117 -134 181 -272 199 -84 11 -593 14 -603 3z m582
-211 c61 -30 76 -62 76 -157 0 -94 -14 -123 -76 -160 -29 -17 -56 -20 -196
-23 l-163 -4 0 181 0 181 163 0 c134 0 168 -3 196 -18z"/>
<path d="M6532 3068 c-9 -9 -12 -139 -12 -560 l0 -548 120 0 120 0 2 367 3
367 30 -41 c17 -23 102 -143 190 -268 88 -125 193 -271 232 -326 l73 -99 100
0 100 0 -2 558 -3 557 -110 0 -110 0 -5 -370 -5 -370 -43 60 c-134 185 -329
459 -367 515 -25 36 -62 88 -83 115 l-38 50 -90 3 c-61 2 -93 -1 -102 -10z"/>
<path d="M9298 3074 c-5 -4 -8 -256 -8 -561 l0 -553 283 0 c306 0 375 8 463
53 110 57 172 141 211 287 23 88 23 337 0 432 -43 178 -137 275 -312 325 -55
16 -624 32 -637 17z m568 -209 c64 -19 116 -72 140 -145 27 -79 27 -330 1
-410 -24 -71 -58 -115 -110 -142 -38 -21 -56 -23 -202 -23 -88 0 -161 3 -162
8 -2 4 -3 169 -3 367 l0 360 143 0 c97 0 159 -5 193 -15z"/>
<path d="M10443 3073 c-10 -4 -13 -125 -13 -559 l0 -554 405 0 406 0 -3 88 -3
87 -282 3 -283 2 0 145 0 145 250 0 251 0 -3 88 -3 87 -248 0 -247 0 0 145 0
145 252 -3 c139 -2 268 0 286 3 l33 6 -3 87 -3 87 -390 2 c-214 1 -396 -1
-402 -4z"/>
<path d="M11406 3072 c-3 -3 -6 -254 -6 -559 l0 -553 395 0 396 0 -3 88 -3 87
-277 3 -278 2 -2 468 -3 467 -107 2 c-58 0 -109 -1 -112 -5z"/>
<path d="M12707 3074 c-4 -4 -7 -256 -7 -561 l0 -553 400 0 400 0 0 90 0 90
-285 0 -286 0 3 143 3 142 253 3 253 2 -3 88 -3 87 -245 2 c-135 2 -248 3
-252 3 -5 0 -8 63 -8 140 l0 140 283 2 282 3 0 90 0 90 -391 3 c-214 1 -393
-1 -397 -4z"/>
<path d="M14514 3066 c-3 -7 -4 -48 -2 -92 l3 -79 168 -3 167 -2 0 -465 0
-465 120 0 120 0 0 465 0 465 168 2 167 3 0 90 0 90 -453 2 c-356 1 -454 -1
-458 -11z"/>
<path d="M15801 3062 c-9 -17 -49 -121 -273 -707 -44 -115 -95 -250 -114 -299
-19 -48 -34 -90 -34 -92 0 -3 55 -3 122 -2 l121 3 51 130 52 130 200 3 c154 2
203 -1 211 -10 5 -7 31 -68 58 -135 l48 -123 119 0 c65 0 118 4 118 9 0 5 -14
45 -31 88 -18 43 -42 105 -54 138 -22 60 -252 664 -306 806 l-30 77 -124 1
c-111 2 -125 0 -134 -17z m217 -434 c45 -116 81 -213 79 -214 -2 -2 -77 -4
-167 -4 -132 -1 -164 1 -162 12 8 37 156 418 162 418 4 0 44 -95 88 -212z"/>
<path d="M16663 3074 c-10 -5 -13 -126 -13 -560 l0 -554 283 0 c301 0 375 8
458 51 140 70 206 184 229 391 27 247 -26 460 -139 560 -110 97 -167 109 -521
114 -157 1 -291 1 -297 -2z m588 -217 c87 -39 128 -128 136 -297 6 -126 -9
-234 -42 -300 -49 -96 -112 -120 -315 -120 l-137 0 -7 53 c-8 68 -8 635 1 665
l6 24 161 -4 c120 -4 170 -9 197 -21z"/>
<path d="M5640 814 c-14 -3 -42 -10 -62 -15 l-38 -10 0 -70 c0 -68 1 -70 23
-63 52 17 96 24 155 24 68 0 115 -18 132 -49 13 -26 13 -104 -1 -134 -6 -13
-73 -83 -149 -155 -151 -143 -190 -198 -190 -261 l0 -41 260 0 260 0 0 60 0
60 -150 0 c-120 0 -150 3 -150 14 0 7 54 64 119 125 66 62 129 127 140 145 32
52 44 126 31 190 -14 71 -44 113 -103 150 -44 27 -57 30 -150 32 -56 1 -113 0
-127 -2z"/>
<path d="M6585 806 c-106 -33 -164 -93 -198 -201 -31 -101 -31 -280 1 -383 42
-135 131 -200 287 -209 258 -17 382 120 378 417 -2 210 -73 333 -216 375 -61
18 -197 19 -252 1z m215 -144 c24 -12 43 -33 60 -67 23 -46 25 -61 25 -180 0
-120 -2 -135 -25 -179 -31 -61 -75 -86 -148 -86 -133 0 -184 73 -184 265 0
142 30 222 96 251 44 19 134 17 176 -4z"/>
<path d="M7473 804 l-63 -15 0 -70 c0 -62 2 -70 18 -65 94 27 185 36 232 21
67 -20 94 -85 66 -160 -13 -33 -48 -73 -146 -165 -146 -137 -193 -201 -194
-264 l-1 -41 260 0 260 0 3 58 3 57 -150 0 c-93 0 -152 4 -156 10 -7 11 7 25
164 174 56 53 91 95 107 130 56 120 12 260 -99 318 -55 29 -212 35 -304 12z"/>
<path d="M8375 800 c-60 -10 -116 -19 -122 -19 -9 -1 -13 -21 -13 -67 l0 -66
60 7 60 7 0 -311 0 -311 80 0 80 0 0 390 c0 365 -1 390 -17 389 -10 -1 -67 -9
-128 -19z"/>
<path d="M10753 804 l-63 -15 0 -70 c0 -38 1 -69 3 -69 1 0 27 7 57 15 73 20
173 19 215 -1 21 -10 38 -27 44 -46 25 -72 6 -122 -75 -199 -32 -30 -90 -84
-127 -119 -93 -87 -149 -172 -145 -219 l3 -36 260 0 260 0 3 58 3 57 -150 0
c-93 0 -152 4 -156 10 -4 6 31 46 76 88 178 165 208 206 217 294 10 105 -36
196 -122 241 -54 28 -211 34 -303 11z"/>
<path d="M11733 806 c-92 -30 -148 -83 -187 -180 -18 -44 -21 -72 -21 -206 0
-140 2 -161 24 -218 31 -81 91 -144 163 -169 81 -28 246 -25 313 5 118 54 169
147 181 327 16 222 -46 366 -181 426 -62 28 -226 37 -292 15z m228 -149 c19
-12 42 -39 53 -60 28 -58 41 -176 29 -257 -21 -136 -71 -190 -174 -190 -132 0
-178 58 -186 237 -5 85 -2 113 16 171 29 97 61 120 167 121 48 1 69 -4 95 -22z"/>
<path d="M12640 807 c-30 -7 -60 -16 -67 -20 -11 -7 -12 -121 -1 -132 3 -3 27
2 54 10 27 8 80 15 117 15 108 0 147 -31 147 -116 0 -52 -31 -103 -98 -162
-177 -154 -252 -248 -252 -319 l0 -43 258 2 257 3 3 58 3 57 -150 0 c-82 0
-152 4 -155 9 -4 5 50 62 119 127 156 146 179 187 173 297 -3 61 -9 83 -33
122 -45 73 -102 99 -224 102 -53 1 -121 -3 -151 -10z"/>
<path d="M13380 746 l0 -65 172 0 c94 -1 172 -2 173 -4 1 -1 -58 -141 -131
-312 -73 -171 -133 -314 -134 -318 0 -4 37 -7 82 -5 l83 3 134 315 c119 279
135 323 139 383 l4 67 -261 0 -261 0 0 -64z"/>
<path d="M577 453 c-4 -3 -7 -24 -7 -45 l0 -38 1966 0 1965 0 -3 43 -3 42
-1956 3 c-1076 1 -1959 -1 -1962 -5z"/>
<path d="M14920 415 l0 -45 1966 0 1965 0 -3 43 -3 42 -1962 3 -1963 2 0 -45z"/>
<path d="M9374 416 c-3 -7 -4 -35 -2 -62 l3 -49 228 -3 227 -2 0 65 0 65 -225
0 c-182 0 -227 -3 -231 -14z"/>
</g>
</svg>
