<?xml version="1.0" standalone="no"?>
<!DOCTYPE svg PUBLIC "-//W3C//DTD SVG 20010904//EN"
 "http://www.w3.org/TR/2001/REC-SVG-20010904/DTD/svg10.dtd">
<svg version="1.0" xmlns="http://www.w3.org/2000/svg"
 width="1942.000000pt" height="350.000000pt" viewBox="0 0 1942.000000 350.000000"
 preserveAspectRatio="xMidYMid meet">
<metadata>
Created by potrace 1.16, written by Peter Selinger 2001-2019
</metadata>
<g transform="translate(0.000000,350.000000) scale(0.100000,-0.100000)"
fill="#000000" stroke="none">
<path d="M1185 2604 c-278 -29 -508 -104 -689 -227 -131 -88 -266 -249 -348
-412 -155 -309 -189 -796 -81 -1155 126 -419 426 -677 895 -772 102 -21 141
-23 398 -23 254 0 299 3 408 23 145 26 316 83 439 144 l88 43 0 625 0 625
-532 3 -533 2 0 -195 0 -195 270 0 270 0 0 -245 0 -244 -42 -12 c-104 -28
-182 -39 -303 -45 -410 -21 -652 120 -743 431 -33 110 -44 258 -31 414 30 371
179 572 484 652 210 55 713 27 943 -52 30 -10 59 -19 64 -19 10 0 11 527 0
534 -20 12 -257 67 -352 81 -101 15 -517 28 -605 19z"/>
<path d="M17930 2601 c-480 -52 -799 -274 -940 -655 -119 -324 -128 -884 -18
-1216 125 -379 387 -602 813 -691 142 -30 484 -38 642 -15 152 22 248 48 357
96 447 196 644 595 623 1260 -10 312 -49 495 -145 685 -141 281 -388 445 -782
520 -98 19 -433 28 -550 16z m405 -546 c223 -47 351 -187 406 -446 19 -88 22
-135 22 -304 0 -171 -3 -215 -22 -300 -45 -202 -134 -331 -275 -400 -188 -94
-492 -85 -671 20 -61 35 -142 127 -175 197 -85 182 -111 484 -64 759 48 285
185 437 432 479 80 13 272 11 347 -5z"/>
<path d="M2612 1678 l3 -893 28 -90 c112 -358 357 -566 774 -657 141 -30 478
-37 624 -13 308 51 530 166 685 353 67 81 137 220 163 322 38 150 41 233 41
1063 l0 807 -315 0 -315 0 0 -781 c0 -524 -4 -804 -11 -852 -31 -198 -132
-314 -324 -374 -93 -28 -327 -25 -415 6 -88 31 -140 63 -193 120 -52 56 -67
81 -98 176 l-23 70 -4 818 -3 817 -310 0 -310 0 3 -892z"/>
<path d="M5310 1308 l0 -1263 932 2 933 3 0 237 0 238 -617 3 -618 2 0 265 0
265 543 2 542 3 3 243 2 242 -545 0 -545 0 2 268 3 267 618 3 617 2 -2 238 -3
237 -932 3 -933 2 0 -1262z"/>
<path d="M7480 1310 c0 -1001 3 -1260 13 -1260 6 0 148 -1 314 -3 l303 -2 2
400 3 400 190 -1 c216 0 246 -9 302 -81 16 -21 78 -148 137 -283 59 -135 126
-287 149 -338 l42 -92 315 -1 c173 0 320 0 327 1 11 0 -47 137 -244 585 -88
200 -113 247 -161 297 -20 21 -34 39 -31 42 2 2 24 14 49 26 82 41 156 98 221
168 79 85 131 172 167 277 25 76 27 89 27 275 0 175 -3 204 -24 280 -84 298
-267 476 -562 546 -66 16 -149 18 -806 21 l-733 4 0 -1261z m1294 751 c117
-47 172 -124 196 -277 14 -84 -2 -210 -35 -274 -26 -52 -85 -110 -142 -139
-66 -33 -147 -41 -420 -41 l-263 0 0 381 0 380 303 -3 c290 -3 304 -4 361 -27z"/>
<path d="M9940 1308 l0 -1263 37 2 c21 1 163 2 316 2 l277 1 0 401 0 402 193
-5 c282 -7 285 -8 416 -310 121 -277 212 -483 215 -486 8 -7 651 -1 649 6 -3
16 -284 657 -322 737 -21 44 -58 102 -81 128 -23 26 -41 49 -39 51 2 2 24 14
49 26 78 39 153 96 215 161 74 79 115 141 154 239 46 116 54 179 48 362 -4
138 -9 177 -31 253 -36 120 -76 198 -144 284 -97 121 -215 194 -392 242 -85
23 -88 23 -822 27 l-738 3 0 -1263z m1294 753 c77 -31 147 -99 170 -166 41
-121 40 -274 -3 -370 -24 -54 -84 -121 -131 -145 -84 -43 -144 -50 -429 -50
l-271 0 0 381 0 380 303 -3 c290 -3 304 -4 361 -27z"/>
<path d="M12400 1310 l0 -1260 930 0 930 0 0 240 0 240 -615 0 -615 0 2 265 3
266 526 -1 c290 0 534 2 543 6 14 5 16 34 16 245 l0 239 -542 2 -543 3 -3 268
-2 267 615 0 615 0 0 240 0 240 -930 0 -930 0 0 -1260z"/>
<path d="M14570 1311 l0 -1260 303 -3 c166 -2 308 -1 315 1 9 2 12 92 12 403
l0 400 188 -4 c280 -6 285 -10 403 -274 39 -87 82 -183 95 -212 13 -29 39 -88
56 -130 18 -42 44 -101 58 -130 l25 -53 323 -2 c239 -1 322 1 322 10 0 6 -43
109 -96 230 -53 120 -125 286 -161 368 -74 172 -101 222 -151 277 -19 21 -33
40 -31 42 2 2 29 16 59 31 174 88 307 246 377 447 27 80 28 91 28 268 0 217
-16 291 -92 450 -39 80 -59 108 -132 181 -98 97 -191 149 -341 190 -85 23 -88
23 -822 27 l-738 3 0 -1260z m1291 751 c116 -46 180 -137 198 -281 19 -151
-18 -281 -101 -356 -93 -83 -120 -89 -460 -93 l-298 -4 0 382 0 381 303 -3
c285 -3 305 -5 358 -26z"/>
</g>
</svg>
