<?xml version="1.0" standalone="no"?>
<!DOCTYPE svg PUBLIC "-//W3C//DTD SVG 20010904//EN"
 "http://www.w3.org/TR/2001/REC-SVG-20010904/DTD/svg10.dtd">
<svg version="1.0" xmlns="http://www.w3.org/2000/svg"
 width="285.000000pt" height="318.000000pt" viewBox="0 0 285.000000 318.000000"
 preserveAspectRatio="xMidYMid meet">
<metadata>
Created by potrace 1.16, written by Peter Selinger 2001-2019
</metadata>
<g transform="translate(0.000000,318.000000) scale(0.100000,-0.100000)"
fill="#000000" stroke="none">
<path d="M1120 3169 c0 -7 16 -31 35 -55 32 -39 46 -76 28 -73 -32 5 -63 -3
-63 -17 0 -17 65 -48 85 -40 18 6 40 -20 65 -77 16 -36 20 -59 15 -97 -6 -54
-23 -109 -24 -77 -1 24 -56 119 -83 143 -36 32 -72 51 -85 47 -18 -6 -16 -30
1 -36 8 -3 31 -40 51 -81 28 -59 44 -80 73 -96 37 -21 37 -22 37 -85 l1 -64
-26 44 c-25 43 -54 73 -98 103 -52 35 -47 -32 10 -115 37 -54 74 -83 108 -83
21 0 30 -7 40 -30 7 -18 22 -33 36 -36 19 -5 23 -11 19 -33 l-5 -26 12 25 c24
48 29 52 43 40 19 -16 31 -6 38 27 3 16 20 44 37 63 17 19 52 60 76 92 44 54
65 68 110 68 14 0 21 -6 20 -16 -2 -25 29 -41 48 -25 37 31 0 84 -59 84 l-34
0 32 41 c53 68 110 106 100 66 -7 -27 36 -38 54 -14 32 44 0 78 -68 70 -32 -4
-49 -2 -51 6 -3 7 -17 13 -32 14 -23 1 -31 -5 -42 -32 -18 -42 -18 -43 5 -52
17 -6 14 -13 -28 -69 -25 -34 -47 -60 -48 -59 -1 1 -4 13 -7 28 -2 14 -9 36
-16 47 -6 12 -7 21 -3 20 4 -1 22 2 40 6 27 6 32 12 36 44 5 46 -23 78 -70 79
-26 1 -33 -3 -33 -19 0 -11 -7 -22 -15 -25 -24 -9 -18 -33 10 -40 14 -3 25
-13 25 -21 0 -12 -3 -12 -21 1 -42 29 -103 -31 -62 -61 9 -7 12 -13 5 -13 -36
0 -132 -124 -132 -172 0 -17 7 -9 24 27 20 43 116 152 116 132 0 -3 -9 -31
-21 -61 -27 -74 -127 -161 -130 -113 0 6 -2 23 -4 37 -6 48 6 100 24 100 18 0
62 42 78 75 6 11 13 35 17 54 3 19 13 43 22 52 9 10 14 25 12 34 -2 14 -10 11
-46 -15 l-43 -31 17 33 c32 61 38 138 10 138 -14 0 -66 -91 -66 -116 0 -10 12
6 27 36 29 59 40 55 23 -8 -12 -48 -49 -98 -50 -69 0 11 -7 32 -17 47 -15 27
-15 29 5 55 21 26 40 91 30 101 -3 2 -13 2 -22 -2 -18 -7 -51 -62 -42 -71 2
-3 12 9 21 26 8 17 18 31 21 31 9 0 -8 -44 -24 -63 -14 -16 -16 -16 -32 10
-16 27 -16 29 7 63 12 19 23 45 23 58 0 20 -3 21 -20 12 -11 -6 -20 -15 -20
-21 0 -6 5 -7 11 -3 8 4 8 0 0 -15 -14 -25 -23 -28 -14 -4 4 11 3 14 -5 9 -8
-5 -12 0 -12 12 0 11 -7 22 -15 26 -8 3 -15 1 -15 -4 0 -15 -19 -12 -36 5 -18
18 -44 20 -44 4z m369 -396 c7 -15 15 -48 18 -73 5 -42 2 -49 -38 -100 -24
-30 -49 -61 -56 -68 -7 -7 -13 -19 -13 -25 -1 -7 -11 -24 -23 -39 l-22 -27
-20 41 -20 41 25 16 c58 37 90 79 116 151 17 49 23 75 15 78 -13 4 -15 32 -3
32 5 0 14 -12 21 -27z"/>
<path d="M874 2868 c-17 -21 -63 -140 -68 -173 -2 -16 -5 -31 -5 -33 -1 -1
-11 4 -24 12 -20 14 -26 14 -52 -3 -17 -10 -42 -21 -57 -24 -50 -13 -50 -69 1
-156 l30 -49 -29 9 c-40 14 -92 18 -112 8 -14 -8 -40 -85 -38 -114 0 -5 2 -57
4 -115 9 -206 19 -249 80 -319 l21 -24 -41 23 c-29 17 -52 43 -79 89 -34 59
-38 73 -38 131 0 36 6 83 12 105 16 59 14 115 -4 115 -8 0 -15 -5 -15 -12 0
-6 -8 -4 -20 7 -24 22 -54 13 -45 -14 5 -16 2 -18 -15 -14 -14 4 -20 1 -20
-11 0 -9 -4 -16 -10 -16 -16 0 -12 -32 7 -52 16 -18 16 -18 0 -12 -9 3 -24 3
-33 0 -15 -6 -15 -8 2 -28 11 -12 13 -18 7 -14 -20 11 -15 -13 9 -47 12 -17
17 -28 12 -24 -5 3 -16 2 -24 -3 -11 -7 -7 -15 20 -39 19 -17 29 -31 23 -31
-20 0 -15 -19 11 -45 20 -20 21 -24 8 -27 -10 -2 -27 9 -39 26 -28 37 -139
101 -148 85 -4 -6 7 -33 24 -61 l31 -50 -33 21 c-46 28 -64 15 -39 -30 11 -19
23 -43 26 -55 6 -19 2 -20 -44 -19 -54 2 -82 20 -95 63 -5 17 -2 22 10 22 11
0 15 -5 12 -15 -8 -20 8 -28 23 -10 12 15 5 54 -11 56 -35 5 -45 1 -57 -23
-16 -35 -8 -68 24 -93 14 -11 43 -36 65 -56 l39 -37 -25 -16 c-13 -9 -31 -16
-38 -16 -23 0 -41 -26 -25 -36 7 -5 15 -9 18 -10 69 -13 70 -32 3 -65 -63 -30
-37 -50 76 -58 11 -1 11 -5 -2 -19 -32 -35 -15 -82 29 -82 25 0 49 24 39 40
-4 7 -12 7 -25 0 -25 -13 -30 -13 -30 5 0 12 46 45 70 50 47 11 110 35 175 66
43 21 86 39 95 39 20 0 40 19 40 40 0 16 -66 77 -107 99 -28 14 -52 54 -28 45
8 -4 15 -10 15 -15 0 -5 19 -6 43 -2 23 4 51 6 62 5 11 -1 33 -3 49 -4 36 -4
45 29 15 50 -29 20 -64 81 -78 135 -19 79 -13 366 9 392 17 20 88 6 157 -32
35 -19 63 -38 63 -42 0 -9 -138 -51 -168 -51 -17 0 -22 -6 -22 -26 0 -31 17
-64 32 -64 7 0 25 12 40 27 15 15 28 21 28 15 0 -16 27 -15 33 1 3 6 6 0 6
-15 1 -21 -4 -28 -18 -28 -20 0 -37 -32 -26 -50 8 -13 42 -13 47 1 2 5 11 7
21 3 12 -4 16 -12 12 -23 -11 -28 -10 -33 4 -39 8 -2 11 0 8 5 -3 5 -2 14 2
21 7 12 52 -8 113 -51 9 -6 20 -8 25 -4 13 14 -13 41 -73 77 -47 28 -55 35
-37 38 29 4 33 20 21 76 -5 26 -7 50 -4 53 7 7 47 -19 96 -64 29 -25 45 -33
60 -28 11 4 20 2 20 -4 0 -6 12 -8 30 -4 19 3 30 1 30 -6 0 -6 5 -11 12 -11 6
0 3 9 -7 20 -10 11 -25 20 -34 20 -21 0 -173 82 -178 96 -2 5 21 18 51 28 56
17 82 36 50 36 -14 0 -14 3 -4 15 27 33 -1 25 -53 -14 -29 -23 -56 -41 -59
-41 -8 0 10 86 34 161 26 85 56 107 89 66 11 -15 25 -27 30 -27 5 0 20 21 33
48 25 49 29 47 40 -19 7 -39 28 -58 110 -99 51 -26 100 -68 128 -110 13 -19
17 -21 17 -8 1 31 -58 86 -144 134 -74 41 -86 52 -95 83 -5 20 -10 43 -10 52
0 42 -35 30 -50 -17 -13 -39 -29 -43 -56 -13 -12 13 -27 19 -44 17 l-26 -4 18
35 c19 36 23 127 6 137 -4 3 -8 13 -8 23 0 9 -6 25 -13 35 -11 15 -15 15 -23
4z m-84 -269 c6 -20 13 -81 16 -135 l6 -98 -33 28 c-50 42 -84 90 -109 152
-23 55 -23 57 -5 70 10 8 26 14 35 14 9 0 25 9 36 21 17 19 19 19 31 2 8 -9
18 -34 23 -54z m-467 -768 c32 -11 92 -40 134 -63 l75 -43 -48 -3 c-98 -7
-222 38 -304 109 l-35 31 60 -6 c33 -3 86 -14 118 -25z"/>
<path d="M2009 2749 c-25 -25 -24 -55 1 -69 15 -8 24 -6 39 9 18 18 19 18 24
1 6 -24 -9 -47 -43 -65 -24 -12 -30 -13 -30 -2 0 22 -23 47 -47 52 -24 4 -43
-18 -43 -49 0 -19 36 -22 44 -3 3 6 3 1 0 -13 -8 -29 -27 -45 -33 -27 -11 36
-66 49 -76 17 -5 -15 -10 -17 -23 -11 -9 5 -44 15 -77 22 -86 18 -85 18 -85 9
0 -5 19 -11 42 -15 23 -4 57 -13 75 -19 l34 -12 -61 -39 c-93 -60 -116 -124
-88 -244 6 -28 16 -51 21 -51 5 0 7 10 4 23 -27 107 -28 117 -17 155 12 48 67
106 116 124 18 6 34 17 34 23 0 5 5 3 10 -5 8 -12 13 -13 30 -2 24 15 25 10 5
-29 -13 -23 -20 -28 -39 -23 -15 3 -29 -1 -40 -11 -20 -21 -20 -29 0 -50 12
-11 20 -13 29 -5 15 13 22 5 35 -40 8 -26 5 -31 -23 -45 -29 -14 -32 -14 -52
5 -20 19 -24 20 -38 6 -8 -9 -13 -25 -10 -36 3 -10 0 -34 -6 -52 -10 -30 -9
-31 4 -14 8 11 15 34 15 52 0 76 47 33 96 -88 18 -46 39 -83 46 -83 7 0 16 18
22 40 5 22 13 43 19 46 5 4 5 9 -2 13 -6 4 -11 24 -11 45 0 30 6 42 25 55 14
9 25 21 25 26 0 18 -41 52 -56 46 -21 -8 -29 23 -11 41 15 15 15 14 10 -5 -4
-17 -1 -22 15 -22 12 0 24 5 27 11 11 17 -4 59 -21 59 -14 0 -14 3 -4 15 7 8
18 15 24 15 16 0 54 -68 63 -114 5 -20 12 -35 18 -34 12 4 7 45 -10 81 -13 26
-13 28 4 22 26 -8 54 22 48 52 -4 20 0 23 30 23 46 0 59 -32 37 -96 -8 -25
-13 -48 -10 -51 2 -3 18 17 35 43 59 95 62 97 108 67 15 -10 40 -22 57 -28 16
-5 31 -15 33 -21 4 -13 -81 -103 -142 -151 -22 -17 -37 -34 -33 -38 7 -8 65
35 141 103 39 35 53 43 80 40 28 -3 32 -7 38 -41 3 -21 11 -43 18 -50 6 -6 11
-17 11 -25 0 -18 -111 -67 -185 -82 -83 -16 -96 -20 -90 -30 6 -10 130 13 180
34 46 19 99 21 113 3 6 -7 11 -39 11 -71 -1 -31 2 -60 5 -63 10 -10 -25 -43
-45 -43 -20 0 -190 72 -227 97 -13 8 -26 12 -29 9 -11 -11 13 -30 75 -58 80
-36 128 -72 148 -109 14 -28 10 -59 -8 -59 -5 0 -24 -16 -42 -35 l-32 -36 -25
20 c-14 11 -48 56 -75 100 -27 44 -52 77 -57 72 -5 -5 9 -35 29 -67 42 -66 66
-126 58 -147 -3 -10 -25 -13 -75 -13 -77 1 -99 15 -99 63 0 25 -7 28 -30 13
-13 -9 -13 -11 0 -20 8 -5 11 -10 6 -10 -6 0 -5 -5 2 -12 19 -19 14 -30 -7
-18 -11 5 -23 10 -28 10 -12 0 30 -27 55 -35 25 -7 112 -94 144 -143 16 -24
25 -62 14 -62 -2 0 -20 7 -39 15 -43 18 -47 18 -47 5 0 -5 10 -10 23 -10 13 0
32 -6 42 -14 24 -17 45 -10 45 15 0 25 -45 95 -89 137 -42 41 -30 53 41 45 47
-6 48 -5 54 25 6 27 9 30 25 21 29 -15 52 -7 78 28 13 18 32 35 42 38 11 4 20
12 20 18 1 7 3 22 4 35 1 12 -6 33 -16 46 -17 22 -17 22 11 18 40 -6 80 34 74
74 -3 16 -4 49 -4 73 1 45 -20 81 -48 81 -13 0 -13 3 1 18 21 23 21 41 2 66
-8 11 -15 30 -15 43 0 35 -33 63 -67 57 -15 -3 -25 -2 -21 1 10 10 -11 62 -25
63 -28 2 -54 11 -89 32 l-37 21 -21 -21 -21 -21 -24 25 c-18 20 -34 26 -67 27
-38 0 -41 2 -20 11 12 6 22 15 22 19 0 5 13 15 29 23 24 13 31 13 47 1 18 -13
18 -14 -2 -9 -26 7 -40 -29 -18 -46 35 -30 86 29 63 73 -16 29 -26 35 -60 33
-21 -2 -29 3 -33 18 -9 34 -21 46 -55 56 -26 7 -36 5 -52 -11z"/>
<path d="M2544 1986 c-8 -22 31 -103 66 -136 l31 -29 -20 -38 c-18 -34 -20
-36 -21 -13 0 31 -25 69 -67 105 -27 21 -34 24 -39 12 -12 -32 52 -185 75
-179 9 2 9 -3 1 -17 -10 -20 -57 -61 -70 -61 -4 0 -5 21 -3 48 4 48 -21 117
-42 117 -9 0 -18 -81 -18 -162 0 -34 -3 -43 -17 -43 -9 0 -20 -3 -24 -7 -8 -9
-78 -12 -73 -4 58 104 66 161 25 198 -16 14 -21 15 -28 4 -14 -24 -33 -128
-28 -164 4 -39 8 -38 -85 -16 -55 13 -80 2 -57 -26 7 -8 17 -15 22 -15 5 0 24
-11 42 -25 18 -14 39 -25 47 -25 8 0 -4 11 -26 25 -38 24 -38 25 -10 19 17 -4
39 -10 50 -14 40 -13 112 -11 154 6 28 11 45 13 49 7 4 -6 24 -18 46 -27 43
-18 176 -22 176 -6 0 6 -20 23 -45 39 -35 22 -54 28 -89 26 l-44 -3 34 30 c18
16 38 27 44 23 15 -9 44 -14 106 -16 30 -1 57 -6 60 -11 6 -10 34 9 34 23 0 5
-17 17 -37 27 -43 21 -139 31 -129 13 4 -6 28 -11 54 -11 26 0 54 -5 62 -11
11 -7 -4 -9 -53 -7 -85 5 -94 16 -61 80 l24 48 33 -16 c58 -30 184 -17 151 16
-15 15 -97 37 -136 36 -35 -1 -35 -1 -27 33 9 39 3 55 -16 48 -7 -3 -22 11
-34 33 -28 50 -78 88 -87 66z"/>
<path d="M344 1539 c-26 -42 -45 -83 -59 -128 -7 -22 -5 -23 21 -18 29 5 29 5
7 -10 -13 -9 -23 -21 -23 -29 0 -14 52 -27 107 -27 l31 0 -25 -34 c-42 -54
-53 -56 -85 -12 -29 41 -74 69 -108 69 -26 0 -25 -9 5 -44 14 -16 25 -35 25
-41 0 -7 7 -18 15 -25 17 -14 13 -23 -11 -26 -8 -1 -23 15 -35 39 -24 48 -52
77 -77 82 -9 2 -24 5 -32 7 -23 5 -21 -2 32 -117 6 -14 3 -13 -11 5 -47 56
-73 80 -91 80 -30 0 -31 -15 -5 -40 30 -29 31 -36 4 -43 -33 -9 -17 -29 35
-44 l48 -14 -23 -25 c-12 -13 -25 -21 -28 -18 -3 3 2 11 12 18 9 7 17 17 17
21 0 5 -13 -4 -30 -20 -27 -26 -40 -55 -24 -55 19 0 75 35 89 56 13 20 23 24
48 22 30 -3 32 -6 35 -46 2 -30 -3 -53 -17 -75 l-21 -32 0 33 c0 18 7 47 16
63 8 17 13 36 11 42 -8 21 -37 -60 -39 -107 -2 -53 5 -64 27 -46 28 23 53 84
51 124 -2 43 -1 44 50 52 22 3 46 10 55 15 13 6 18 3 23 -14 11 -41 6 -72 -19
-112 l-24 -40 -1 48 c0 26 7 61 15 77 9 18 11 30 5 30 -20 0 -36 -65 -39 -165
-1 -17 -8 -20 -53 -21 -34 -1 -54 -7 -59 -17 -5 -8 -19 -17 -31 -21 -21 -5
-41 -30 -77 -95 -39 -71 -42 -80 -31 -100 6 -11 8 -36 6 -55 -4 -36 5 -46 45
-46 10 0 19 -7 19 -15 0 -8 12 -21 28 -29 15 -8 36 -23 46 -35 22 -24 46 -27
65 -8 10 10 14 9 22 -5 6 -10 16 -18 24 -18 25 0 85 44 91 67 3 13 12 23 19
23 8 0 17 10 21 23 3 12 15 34 25 49 21 29 25 58 8 58 -6 0 -3 7 6 16 11 11
14 24 10 38 -4 12 -8 32 -8 46 -2 27 -24 50 -42 44 -6 -3 -11 7 -10 23 0 20
-6 29 -20 31 -11 2 -29 13 -41 23 -11 11 -24 16 -28 12 -5 -5 6 15 23 42 33
54 45 109 29 138 -8 15 -3 25 21 49 l31 30 -5 -56 c-5 -72 14 -76 43 -8 29 68
35 93 34 129 -1 27 4 36 29 49 23 11 30 21 26 35 -3 10 -1 17 4 13 5 -3 9 -1
9 4 0 5 -17 14 -39 20 -44 14 -68 15 -57 5 8 -8 13 -10 46 -12 11 0 20 -6 20
-12 0 -5 -4 -8 -9 -5 -5 4 -22 -5 -38 -18 -26 -22 -32 -23 -58 -12 -17 7 -56
12 -87 10 -44 -1 -58 2 -58 13 0 23 29 85 56 121 14 18 24 36 21 39 -3 3 -18
-14 -33 -38z"/>
<path d="M2125 1210 c3 -5 0 -10 -7 -12 -18 -6 18 -129 55 -185 17 -25 33 -41
35 -35 2 6 -8 26 -21 44 -26 34 -59 119 -50 128 2 3 10 -3 17 -12 7 -10 32
-26 55 -36 35 -16 39 -20 22 -25 -28 -7 -27 -42 1 -61 28 -20 57 -5 65 34 l5
30 30 -18 c17 -9 41 -30 54 -45 25 -29 32 -67 13 -67 -6 0 -8 8 -4 19 7 24
-21 53 -48 49 -31 -4 -50 -47 -33 -73 45 -70 136 -46 136 35 0 29 -7 46 -30
69 -17 17 -26 32 -20 36 19 11 12 63 -10 70 -23 7 -60 -10 -60 -30 0 -11 -12
-10 -67 6 -37 10 -70 24 -75 31 -5 7 -13 20 -18 29 -5 9 -19 19 -30 22 -11 3
-18 1 -15 -3z"/>
<path d="M2542 1198 c-7 -7 -12 -19 -12 -27 0 -13 -2 -13 -9 -3 -11 19 -15 19
-33 4 -23 -19 -21 -109 2 -122 9 -5 20 -7 22 -4 3 3 8 -7 12 -21 7 -28 43 -35
53 -10 5 14 7 14 22 1 18 -17 30 -12 49 21 15 27 16 60 2 68 -6 3 -7 17 -4 31
6 25 0 29 -41 24 -11 -1 -17 1 -12 6 7 7 -20 44 -33 44 -3 0 -11 -5 -18 -12z"/>
<path d="M1983 1024 c4 -4 13 -9 20 -10 10 -3 40 -10 72 -18 36 -9 55 -19 50
-26 -6 -10 97 -100 116 -100 10 0 10 -3 1 -12 -7 -7 -12 -17 -12 -24 0 -14 39
-57 66 -72 18 -11 18 -11 -3 -12 -27 0 -27 2 -8 -43 18 -44 59 -74 113 -82 37
-5 42 -4 42 13 0 20 -40 60 -93 92 l-32 20 40 -6 c22 -3 44 -7 49 -7 6 -1 11
5 13 13 1 8 -20 33 -47 54 -35 27 -46 42 -38 47 9 6 6 13 -10 26 -61 51 -111
83 -149 97 -104 39 -120 44 -158 51 -22 4 -36 3 -32 -1z"/>
<path d="M1945 978 c2 -24 7 -68 10 -99 10 -106 70 -190 250 -345 70 -61 68
-76 -14 -69 -120 10 -324 85 -385 142 -14 13 -26 19 -26 13 0 -16 -18 -3 -32
23 -10 20 -10 21 5 8 10 -8 17 -9 17 -3 0 25 -58 38 -67 15 -3 -8 4 -36 15
-61 28 -63 37 -96 24 -88 -14 8 -56 -37 -93 -99 -31 -54 -39 -101 -15 -92 9 4
3 -13 -15 -41 -33 -54 -42 -96 -19 -97 26 -1 62 28 93 75 21 32 28 38 23 20
-3 -14 -6 -38 -6 -53 0 -16 -4 -26 -8 -23 -20 12 -88 -158 -75 -190 10 -25 27
-9 28 27 2 34 32 105 42 96 2 -3 -5 -27 -16 -52 -24 -55 -24 -55 -11 -55 5 0
15 18 21 40 14 45 16 46 23 8 3 -18 -2 -32 -15 -44 -29 -26 -24 -31 36 -33 46
-1 53 2 48 15 -5 13 -2 15 18 9 13 -4 28 -11 33 -16 6 -5 19 -9 30 -9 20 0 20
0 0 19 -21 19 -56 34 -92 40 -4 0 -8 13 -9 29 -1 15 1 21 4 14 3 -7 22 -21 43
-32 31 -16 40 -17 49 -6 9 10 1 23 -34 55 -24 22 -51 41 -60 41 -11 0 -15 11
-15 45 0 53 11 58 28 12 6 -18 27 -48 46 -66 34 -33 56 -35 56 -4 0 29 -51
109 -82 127 -26 16 -29 23 -24 48 3 17 6 39 6 50 0 10 5 16 10 13 6 -3 10 -15
10 -25 0 -10 12 -32 26 -49 29 -35 64 -42 64 -12 0 32 -37 107 -63 127 -13 11
-26 34 -29 52 -6 40 7 51 23 21 17 -33 63 -69 73 -58 14 12 -15 69 -61 121
l-38 43 40 -31 c22 -16 60 -38 85 -48 25 -10 56 -23 70 -29 32 -13 38 -15 79
-22 19 -4 44 -10 55 -14 32 -12 133 -14 140 -3 3 6 7 22 8 36 1 14 5 26 9 26
7 0 32 -56 36 -79 1 -7 6 -18 11 -23 13 -13 36 27 26 45 -5 9 -4 9 5 1 20 -18
40 -88 30 -100 -21 -26 30 -84 69 -78 6 1 16 2 21 3 11 1 41 75 41 101 0 58
-89 172 -189 240 -52 36 -55 40 -129 200 -16 36 -39 74 -50 85 -30 31 -62 55
-62 49 0 -4 -11 1 -25 10 -13 9 -40 16 -60 16 -28 0 -35 -4 -35 -20 0 -14 7
-20 23 -20 35 -1 107 -37 131 -67 43 -54 56 -86 31 -77 -10 4 -15 0 -15 -12 0
-11 -8 -2 -19 21 -27 58 -76 108 -90 91 -28 -34 72 -224 107 -202 8 5 33 -64
36 -99 1 -5 10 -11 21 -13 12 -2 26 -15 32 -32 10 -27 10 -29 -7 -20 -17 9
-159 149 -186 182 -49 62 -71 135 -73 246 -1 28 -5 52 -11 52 -5 0 -8 -18 -5
-42z"/>
<path d="M862 993 c-27 -5 -59 -47 -101 -130 -34 -69 -35 -82 -2 -30 11 17 21
26 21 20 0 -7 7 -13 15 -13 8 0 15 6 15 14 0 17 47 56 67 56 10 0 9 -9 -7 -40
-12 -23 -26 -40 -33 -39 -45 6 -102 -40 -91 -73 3 -10 2 -18 -3 -19 -4 0 -16
-2 -25 -5 -54 -13 -79 -24 -73 -33 2 -4 -1 -8 -8 -8 -7 -1 -48 -17 -92 -37
-84 -37 -102 -34 -67 13 27 38 64 112 58 118 -3 3 -12 -11 -20 -31 -8 -20 -26
-51 -40 -69 -15 -19 -26 -44 -26 -56 0 -20 3 -22 33 -16 17 4 41 12 52 18 42
24 89 36 100 27 7 -6 16 -5 24 3 11 10 12 8 3 -8 -5 -11 -13 -39 -17 -62 -5
-33 -11 -43 -26 -44 -10 -1 -23 -3 -29 -4 -5 -1 -14 -3 -19 -4 -13 -2 -61 -49
-61 -61 0 -10 20 -9 95 3 11 2 8 -33 -4 -45 -4 -4 -20 -4 -36 0 -33 10 -95 -3
-95 -18 0 -6 0 -13 0 -17 0 -8 5 -10 43 -12 16 -1 18 -4 8 -10 -14 -9 -64 -1
-98 17 -38 21 -44 65 -10 83 21 12 22 11 4 -8 -15 -18 -16 -22 -3 -32 34 -28
77 19 55 60 -29 55 -119 12 -119 -57 0 -68 120 -134 184 -101 18 9 18 7 -2
-26 -23 -35 -29 -67 -13 -67 21 0 99 90 106 122 3 18 11 46 17 61 14 36 28 18
28 -35 0 -45 14 -56 34 -26 24 33 21 109 -5 142 -17 22 -20 35 -15 70 4 24 13
52 21 62 12 17 13 15 10 -25 -3 -52 11 -101 31 -101 8 0 14 1 15 3 0 1 3 34 6
73 3 47 1 74 -6 78 -16 10 -14 26 3 26 8 0 28 12 45 26 26 21 32 23 37 10 5
-14 -35 -100 -43 -92 -2 2 3 21 12 41 17 43 13 59 -6 24 -21 -39 -29 -92 -17
-107 9 -10 18 -1 45 45 31 55 46 132 23 118 -6 -4 -5 5 2 19 17 38 25 32 31
-24 7 -61 18 -82 35 -71 14 8 31 108 32 180 0 53 -10 50 -12 -4 -1 -37 -1 -37
-14 -12 -10 18 -11 34 -4 58 6 19 10 46 10 61 0 24 -4 28 -27 27 -16 -1 -38
-4 -51 -6z"/>
<path d="M1087 864 c-29 -23 -56 -55 -71 -87 l-24 -51 -16 34 c-16 34 -16 34
-10 5 3 -16 12 -36 19 -44 13 -13 17 -9 31 25 19 47 61 104 76 104 18 0 2
-106 -22 -145 -29 -47 -93 -70 -88 -32 2 16 -2 22 -17 22 -15 0 -21 -8 -23
-32 -3 -26 2 -34 23 -45 l26 -14 -25 -27 c-14 -15 -31 -27 -37 -27 -7 0 -4 6
7 14 15 12 17 19 8 32 -16 27 -43 25 -58 -4 -17 -33 -5 -72 24 -79 24 -6 23
-2 5 -47 -22 -52 -85 -86 -85 -45 0 6 4 8 9 4 14 -8 23 12 16 35 -8 24 -50 27
-59 4 -22 -56 7 -107 56 -102 17 2 30 0 29 -4 -1 -5 -1 -19 -1 -33 0 -28 -32
-65 -56 -65 -14 0 -14 1 0 16 20 19 20 29 0 48 -18 19 -63 21 -66 4 0 -7 -2
-20 -3 -28 -2 -24 28 -70 50 -76 12 -3 32 -3 46 -1 20 4 29 -1 42 -22 9 -15
27 -33 41 -40 22 -12 29 -12 51 3 28 19 34 60 9 70 -20 8 -34 -1 -34 -20 0
-19 -13 -18 -26 3 -11 18 -16 116 -7 140 4 9 10 10 23 3 21 -11 45 5 55 37 5
19 1 25 -22 35 -15 7 -29 13 -31 13 -1 1 3 16 9 34 9 25 14 29 25 20 20 -16
61 -3 67 22 8 31 -3 51 -24 46 -18 -5 -18 -3 2 24 11 16 26 32 33 36 23 15 55
82 67 141 14 65 8 95 -16 86 -22 -9 -18 13 4 26 16 8 22 6 30 -7 6 -10 11 -13
11 -7 0 6 -6 17 -13 23 -11 8 -25 3 -60 -25z"/>
<path d="M1497 773 c-4 -3 -7 -25 -7 -48 0 -68 -41 -134 -135 -220 -87 -78
-120 -129 -145 -225 l-12 -45 -20 25 c-32 38 -66 120 -77 180 l-10 55 4 -65
c5 -67 25 -120 68 -177 22 -31 25 -32 39 -15 8 9 22 43 32 74 18 60 71 139
115 172 91 69 150 161 153 241 1 39 3 43 17 32 19 -14 35 -38 36 -52 2 -12
-34 -74 -53 -94 -7 -7 -11 -20 -8 -28 3 -8 6 -17 6 -19 0 -8 49 -4 75 6 15 6
33 17 41 25 8 8 21 18 27 22 23 15 79 94 72 101 -4 4 -10 0 -13 -8 -8 -26
-107 -116 -139 -127 -50 -18 -61 -1 -30 45 42 64 44 88 11 123 -29 30 -36 34
-47 22z"/>
<path d="M1425 500 c-3 -5 -15 -10 -25 -10 -30 0 -42 -31 -22 -54 9 -11 12
-17 7 -14 -6 4 -19 0 -30 -8 -15 -12 -17 -18 -9 -32 6 -9 20 -17 30 -17 10 0
22 -8 26 -18 6 -14 11 -16 28 -7 11 6 20 15 20 20 0 5 7 7 16 3 24 -9 46 24
34 48 -7 12 -7 20 0 24 5 3 10 17 10 31 0 17 -5 24 -19 24 -11 0 -23 5 -26 10
-3 6 -12 10 -20 10 -8 0 -17 -4 -20 -10z"/>
</g>
</svg>
