<?xml version="1.0" standalone="no"?>
<!DOCTYPE svg PUBLIC "-//W3C//DTD SVG 20010904//EN"
 "http://www.w3.org/TR/2001/REC-SVG-20010904/DTD/svg10.dtd">
<svg version="1.0" xmlns="http://www.w3.org/2000/svg"
 width="314.000000pt" height="135.000000pt" viewBox="0 0 314.000000 135.000000"
 preserveAspectRatio="xMidYMid meet">
<metadata>
Created by potrace 1.16, written by Peter Selinger 2001-2019
</metadata>
<g transform="translate(0.000000,135.000000) scale(0.100000,-0.100000)"
fill="#000000" stroke="none">
<path d="M120 1186 c-24 -63 1 -179 41 -189 28 -8 43 26 30 65 -6 17 -11 44
-11 59 0 35 15 37 113 10 l67 -18 0 28 c0 25 -5 29 -57 45 -32 9 -84 19 -115
22 -55 4 -58 3 -68 -22z"/>
<path d="M1135 1186 c-38 -12 -70 -28 -69 -34 1 -7 2 -19 3 -28 0 -8 6 -12 11
-9 23 14 142 44 156 38 17 -6 18 -29 2 -86 -14 -54 -7 -77 22 -70 41 11 68
105 50 173 -11 40 -11 40 -58 39 -26 -1 -78 -11 -117 -23z"/>
<path d="M537 1183 c-20 -19 -3 -55 48 -104 30 -29 64 -71 75 -94 18 -37 23
-41 53 -37 27 3 37 11 56 48 13 24 43 62 67 84 52 48 68 75 56 96 -7 13 -17 9
-62 -25 -30 -23 -69 -59 -86 -81 l-32 -40 -27 40 c-23 33 -122 120 -137 120
-2 0 -8 -3 -11 -7z"/>
<path d="M427 1113 c-4 -3 -7 -52 -7 -107 l0 -101 90 -90 91 -90 -3 -85 -3
-85 -192 -3 -193 -2 0 -28 0 -27 71 3 c39 2 87 1 105 -3 l34 -6 -22 -29 c-15
-21 -42 -36 -92 -53 -72 -24 -82 -32 -67 -56 8 -12 23 -10 94 13 71 22 91 33
119 66 43 50 82 70 135 70 32 0 45 -5 53 -20 16 -29 6 -50 -43 -97 -35 -34
-62 -47 -157 -78 -63 -21 -117 -39 -119 -41 -2 -2 1 -10 8 -17 8 -11 21 -12
54 -6 113 24 103 26 118 -20 13 -37 21 -45 73 -68 42 -20 62 -24 74 -17 29 19
23 30 -28 58 -58 31 -73 65 -45 96 10 11 23 20 30 20 6 0 22 11 35 25 13 14
27 25 32 25 4 0 8 -28 8 -63 l0 -63 36 4 37 4 -6 59 c-3 33 -3 59 0 59 3 0 21
-14 40 -30 18 -16 39 -30 46 -30 7 0 18 -9 24 -20 19 -30 1 -63 -51 -91 -45
-24 -57 -41 -35 -55 6 -3 38 4 71 17 54 21 63 29 79 68 17 37 22 42 42 36 50
-15 117 -17 133 -4 13 11 -2 19 -107 55 -102 36 -129 50 -165 85 -46 46 -59
91 -28 103 53 20 120 -5 172 -65 26 -31 49 -43 121 -67 l89 -29 11 23 c12 28
11 28 -73 54 -47 15 -71 29 -85 49 l-21 29 27 7 c14 3 60 5 102 4 76 -2 76 -2
79 24 l3 27 -195 0 -196 0 0 93 0 92 85 85 85 85 0 106 c0 103 -1 107 -20 102
-36 -9 -50 -43 -50 -118 l-1 -70 -50 -39 c-60 -46 -83 -38 -40 15 29 35 34 48
32 82 -2 31 -27 18 -84 -42 l-57 -60 0 -184 c0 -101 -3 -187 -7 -190 -3 -4
-12 -2 -20 4 -10 9 -13 54 -13 198 l0 187 -53 52 c-29 29 -58 52 -65 52 -20 0
-26 -48 -8 -73 9 -12 23 -32 32 -45 28 -38 8 -36 -45 4 -53 42 -61 62 -61 145
0 59 -38 108 -63 82z"/>
<path d="M221 929 c-19 -7 -22 -14 -17 -37 16 -63 68 -100 149 -101 35 -1 37
1 37 29 0 39 -51 97 -98 110 -43 12 -40 12 -71 -1z"/>
<path d="M1135 928 c-57 -20 -116 -96 -102 -132 5 -12 14 -13 63 -1 72 17 107
42 118 89 14 54 -11 68 -79 44z"/>
<path d="M1440 797 c-52 -26 -74 -121 -39 -163 18 -21 85 -36 135 -28 l44 6 0
55 0 54 -42 -3 c-31 -2 -44 -8 -46 -20 -2 -13 3 -18 17 -18 14 0 21 -6 21 -20
0 -15 -7 -20 -29 -20 -36 0 -55 22 -55 65 0 51 19 67 76 63 44 -3 48 -1 46 17
-3 17 -12 20 -53 23 -27 1 -61 -4 -75 -11z"/>
<path d="M1607 803 c-4 -3 -7 -39 -7 -79 0 -97 16 -118 92 -118 35 -1 63 5 81
17 26 17 27 21 27 103 l0 85 -27 -3 c-27 -3 -28 -5 -33 -83 -5 -74 -7 -80 -28
-83 -41 -6 -52 14 -52 94 0 71 -1 74 -23 74 -13 0 -27 -3 -30 -7z"/>
<path d="M1830 707 l0 -102 80 -3 c75 -3 80 -2 80 18 0 17 -6 20 -50 20 -43 0
-50 3 -50 20 0 21 32 34 66 28 11 -2 20 4 22 15 3 14 -4 17 -42 17 -42 0 -46
2 -46 25 0 23 3 25 50 25 43 0 50 3 50 20 0 18 -7 20 -80 20 l-80 0 0 -103z"/>
<path d="M2010 707 l0 -104 30 0 c26 0 30 4 30 29 0 36 25 37 43 2 10 -19 24
-28 46 -30 36 -4 36 -3 15 37 -14 28 -14 32 2 50 25 28 22 78 -5 101 -18 13
-40 18 -92 18 l-69 0 0 -103z"/>
<path d="M2219 806 c-2 -2 -3 -49 -1 -104 3 -98 4 -99 28 -99 20 0 24 4 24 28
0 40 37 41 51 2 7 -23 16 -28 44 -31 l36 -2 -17 32 c-15 29 -15 34 0 59 22 37
20 75 -4 99 -16 16 -33 20 -88 20 -38 0 -71 -2 -73 -4z"/>
<path d="M2427 804 c-4 -4 -7 -51 -7 -104 l0 -97 79 -1 c60 -2 80 1 84 12 8
21 -2 26 -55 26 -41 0 -48 3 -48 20 0 22 37 36 70 27 15 -4 20 0 20 14 0 16
-7 19 -45 19 -41 0 -45 2 -45 24 0 23 4 25 53 28 38 2 52 7 52 18 0 12 -16 16
-75 18 -42 1 -79 0 -83 -4z"/>
<path d="M2604 797 c-3 -8 -4 -54 -2 -103 l3 -89 28 -2 c24 -2 27 2 27 28 0
39 33 40 49 2 8 -21 19 -29 42 -30 27 -2 29 0 23 20 -3 12 -11 27 -16 34 -7 9
-3 21 11 39 26 34 27 64 1 92 -18 19 -32 22 -91 22 -49 0 -71 -4 -75 -13z"/>
<path d="M2829 781 c-24 -25 -29 -37 -29 -80 0 -63 21 -87 82 -96 96 -14 155
49 129 136 -15 50 -44 69 -104 69 -40 0 -53 -5 -78 -29z"/>
<path d="M305 703 c-33 -6 -79 -48 -73 -65 10 -25 94 -41 149 -28 59 14 77 33
58 57 -27 32 -81 47 -134 36z"/>
<path d="M1035 696 c-16 -7 -38 -22 -48 -33 -22 -25 -10 -37 55 -54 40 -11 52
-10 99 7 60 21 67 37 28 66 -33 25 -96 32 -134 14z"/>
<path d="M1442 488 c-7 -7 -12 -21 -12 -33 0 -12 5 -26 12 -33 15 -15 60 -16
75 -1 8 8 13 8 17 0 13 -20 64 -12 80 11 l16 22 0 -22 c0 -18 6 -22 33 -22 18
0 39 6 46 13 11 10 14 9 18 -1 9 -24 23 0 23 39 0 50 -27 55 -33 7 l-4 -33 -1
33 c-2 30 -4 32 -42 32 -31 0 -40 -4 -40 -17 -1 -17 -1 -17 -11 0 -14 24 -65
22 -86 -3 -10 -11 -25 -20 -35 -20 -21 0 -24 -16 -5 -23 6 -2 9 -8 4 -13 -11
-12 -41 22 -34 40 4 9 15 16 26 16 11 0 23 5 26 10 9 14 -58 13 -73 -2z"/>
<path d="M1760 455 l0 -45 38 1 c21 1 28 3 17 6 -31 7 -42 23 -18 23 12 0 25
5 28 10 3 6 -3 10 -14 10 -29 0 -26 17 4 22 23 5 25 2 25 -33 0 -43 6 -48 26
-21 12 16 13 16 19 0 10 -24 34 -23 28 1 -3 10 0 22 6 25 7 5 11 -3 11 -18 0
-14 5 -26 10 -26 6 0 10 9 10 20 0 23 15 27 24 5 7 -18 32 -20 40 -2 3 8 8 7
16 -5 13 -22 63 -24 79 -4 7 8 11 27 9 43 -3 24 -8 28 -38 31 -24 3 -38 -2
-47 -14 -12 -16 -13 -16 -13 -1 0 26 -30 21 -31 -5 l0 -23 -16 23 c-16 23 -43
30 -43 10 0 -9 -3 -9 -12 0 -7 7 -42 12 -85 12 l-73 0 0 -45z"/>
<path d="M2160 455 c0 -45 0 -45 34 -45 25 0 39 7 50 22 l16 22 0 -22 c0 -19
5 -22 38 -21 30 2 32 3 10 6 -32 5 -38 23 -9 23 11 0 23 5 26 10 3 6 -3 10
-14 10 -11 0 -23 5 -26 10 -3 6 0 10 9 10 8 0 21 3 30 6 13 5 16 -1 16 -34 0
-37 2 -40 30 -44 17 -3 33 -1 36 4 3 4 -4 8 -15 8 -18 0 -21 6 -21 40 l0 40
-55 0 c-46 0 -55 -3 -55 -17 -1 -17 -1 -17 -14 0 -8 11 -27 17 -50 17 l-36 0
0 -45z"/>
</g>
</svg>
