<?xml version="1.0" standalone="no"?>
<!DOCTYPE svg PUBLIC "-//W3C//DTD SVG 20010904//EN"
 "http://www.w3.org/TR/2001/REC-SVG-20010904/DTD/svg10.dtd">
<svg version="1.0" xmlns="http://www.w3.org/2000/svg"
 width="234.000000pt" height="97.000000pt" viewBox="0 0 234.000000 97.000000"
 preserveAspectRatio="xMidYMid meet">
<metadata>
Created by potrace 1.16, written by Peter Selinger 2001-2019
</metadata>
<g transform="translate(0.000000,97.000000) scale(0.100000,-0.100000)"
fill="#000000" stroke="none">
<path d="M454 955 c-10 -8 -33 -15 -51 -15 -46 0 -63 -9 -74 -39 l-10 -26 -17
22 c-22 28 -131 63 -198 63 -78 0 -97 -20 -102 -108 -5 -79 8 -129 42 -164 13
-12 26 -38 29 -56 4 -19 16 -47 28 -63 19 -27 19 -32 6 -47 -29 -33 -38 -150
-19 -253 13 -71 27 -99 52 -99 11 0 20 -7 20 -15 0 -9 11 -27 25 -40 19 -20
34 -25 73 -25 33 0 52 -5 55 -14 3 -7 26 -25 51 -40 49 -29 116 -37 139 -17
10 8 16 8 24 0 20 -20 90 -12 139 17 25 15 48 33 51 40 3 9 22 14 53 14 53 0
100 28 100 60 0 12 8 20 22 22 29 4 48 42 48 95 0 23 4 45 10 48 13 8 13 112
0 120 -5 3 -10 23 -10 44 0 21 -6 44 -14 50 -12 10 -11 18 10 48 13 20 24 49
24 65 0 17 6 31 15 35 39 14 72 123 60 199 -9 63 -33 84 -96 84 -67 0 -186
-36 -200 -61 -11 -22 -29 -25 -29 -5 0 26 -31 47 -64 45 -18 -2 -42 4 -56 14
-30 21 -109 22 -136 2z m13 -131 l56 -55 28 35 c26 31 87 76 103 76 19 0 0
-37 -38 -76 -25 -25 -51 -58 -58 -74 -10 -23 -20 -30 -40 -30 -18 0 -28 5 -28
15 0 8 -25 42 -55 75 -55 59 -61 71 -48 83 13 14 25 6 80 -49z m-133 -10 c11
-10 16 -34 16 -69 0 -51 2 -55 42 -88 51 -43 69 -38 34 8 -25 32 -35 75 -18
75 4 0 27 -19 50 -43 l41 -42 3 -145 c3 -121 5 -145 18 -145 13 0 15 24 18
145 l3 145 41 42 c23 24 46 43 50 43 17 0 7 -43 -18 -75 -34 -45 -18 -51 34
-12 39 30 41 35 42 82 0 49 20 95 41 95 5 0 9 -36 9 -79 l0 -79 -65 -63 -65
-62 0 -73 0 -73 148 -3 c144 -3 147 -3 150 -25 3 -22 1 -23 -77 -23 -45 0 -81
-3 -81 -7 0 -18 39 -45 87 -59 29 -8 53 -17 53 -19 0 -15 -15 -35 -26 -35 -35
0 -110 35 -139 66 -36 38 -71 54 -121 54 -28 0 -34 -4 -34 -22 0 -42 57 -85
157 -119 81 -27 92 -33 81 -46 -12 -15 -61 -14 -99 2 -12 4 -20 -2 -29 -24
-10 -26 -95 -90 -105 -79 -15 15 -5 40 25 60 33 22 54 68 31 68 -6 0 -26 13
-44 30 -19 16 -38 30 -42 30 -3 0 -5 -21 -4 -47 3 -43 1 -48 -19 -51 -20 -3
-22 1 -22 47 0 28 -4 51 -8 51 -5 0 -19 -11 -32 -25 -13 -14 -30 -25 -37 -25
-8 0 -16 -6 -19 -14 -9 -22 12 -52 46 -66 31 -13 36 -25 21 -48 -14 -23 -90
22 -107 64 -11 27 -19 34 -32 29 -39 -15 -82 -17 -98 -4 -14 11 -4 17 79 45
102 34 156 76 157 122 0 19 -5 22 -34 22 -49 0 -86 -16 -126 -55 -32 -31 -103
-65 -135 -65 -7 0 -15 8 -18 19 -3 15 5 21 48 35 28 9 62 27 75 41 l23 25 -87
0 c-76 0 -87 2 -82 16 3 9 6 20 6 25 0 5 65 9 148 9 l147 0 -2 71 -3 71 -65
62 -65 61 0 83 c0 83 6 95 34 66z"/>
<path d="M1113 780 c-19 -8 -23 -17 -23 -54 0 -25 5 -48 10 -51 17 -11 11 -25
-10 -25 -35 0 -79 -29 -96 -62 -22 -42 -16 -148 11 -178 14 -16 18 -33 16 -81
-1 -33 2 -66 9 -74 7 -9 8 -15 0 -20 -14 -9 -13 -92 3 -102 6 -4 77 -9 157 -9
80 -1 154 -5 165 -10 19 -8 65 -10 275 -7 47 1 135 1 197 1 61 0 120 2 130 6
10 4 87 8 170 10 102 1 157 6 165 14 6 6 11 26 11 44 -3 158 1 212 20 238 12
18 17 44 17 96 0 81 -20 118 -69 129 -26 5 -29 11 -33 56 -9 90 32 84 -571 86
-305 1 -542 -2 -554 -7z m1160 -212 c27 -32 23 -92 -9 -117 -34 -27 -88 -27
-114 -1 -22 22 -27 78 -9 111 22 42 98 46 132 7z m-623 3 c14 -27 13 -47 -5
-65 -14 -14 -14 -18 0 -46 15 -30 15 -30 -10 -30 -18 0 -26 7 -31 25 -4 16
-13 25 -25 25 -14 0 -19 -7 -19 -25 0 -18 -5 -25 -20 -25 -18 0 -20 7 -20 80
l0 80 60 0 c48 0 61 -4 70 -19z m164 -13 c8 -22 6 -32 -8 -47 -14 -15 -15 -24
-7 -40 16 -29 14 -41 -7 -41 -11 0 -24 11 -30 25 -6 14 -18 25 -27 25 -9 0
-15 -9 -15 -25 0 -18 -5 -25 -20 -25 -18 0 -20 7 -20 80 l0 81 62 -3 c58 -3
63 -5 72 -30z m284 20 c15 -15 16 -64 1 -73 -6 -4 -8 -12 -6 -19 18 -48 18
-56 -1 -56 -10 0 -24 11 -30 25 -6 14 -18 25 -27 25 -9 0 -15 -9 -15 -25 0
-18 -5 -25 -20 -25 -18 0 -20 7 -20 80 l0 80 53 0 c29 0 58 -5 65 -12z"/>
</g>
</svg>
