<?xml version="1.0" standalone="no"?>
<!DOCTYPE svg PUBLIC "-//W3C//DTD SVG 20010904//EN"
 "http://www.w3.org/TR/2001/REC-SVG-20010904/DTD/svg10.dtd">
<svg version="1.0" xmlns="http://www.w3.org/2000/svg"
 width="178.000000pt" height="123.000000pt" viewBox="0 0 178.000000 123.000000"
 preserveAspectRatio="xMidYMid meet">
<metadata>
Created by potrace 1.16, written by Peter Selinger 2001-2019
</metadata>
<g transform="translate(0.000000,123.000000) scale(0.100000,-0.100000)"
fill="#000000" stroke="none">
<path d="M614 1211 c-22 -10 -50 -31 -62 -46 -64 -81 -49 -237 28 -284 l30
-18 -26 -24 c-14 -13 -33 -36 -42 -51 -13 -22 -19 -25 -39 -17 -33 12 -169 11
-215 -1 -54 -15 -131 -71 -148 -108 -8 -17 -21 -32 -28 -32 -28 0 -89 -40
-100 -65 -18 -39 -16 -245 3 -271 18 -26 74 -54 109 -54 25 0 25 -1 28 -82 l3
-83 39 -3 c21 -2 43 1 49 7 18 18 24 13 31 -24 5 -27 13 -36 34 -42 23 -6 808
-10 927 -5 22 1 67 -1 100 -3 33 -3 82 -2 108 1 44 6 49 9 64 45 14 36 18 39
55 39 67 0 78 12 78 84 l0 63 39 12 c22 6 51 25 65 41 24 29 25 37 25 145 0
107 -1 116 -25 144 -13 16 -40 35 -59 41 -19 6 -35 18 -35 25 0 23 -98 102
-147 119 -52 18 -187 22 -227 6 -23 -8 -28 -6 -41 21 -9 16 -27 35 -41 41
l-25 11 30 31 c103 109 86 283 -33 337 -83 38 -212 14 -251 -45 l-17 -26 -36
31 c-20 17 -50 38 -68 45 -47 20 -131 17 -180 -5z m149 -5 c18 -8 79 -61 136
-119 90 -91 103 -108 91 -121 -7 -9 -20 -16 -28 -16 -9 0 -62 45 -117 100
-117 115 -143 124 -196 71 -35 -36 -37 -67 -4 -110 19 -26 22 -38 14 -52 -28
-54 -99 21 -99 106 0 113 103 184 203 141z m373 -2 c47 -22 76 -67 82 -124 6
-64 -8 -87 -126 -204 -100 -99 -123 -111 -139 -70 -4 11 24 46 97 119 92 92
102 106 103 140 2 71 -79 109 -136 65 -30 -24 -50 -25 -67 -5 -27 33 49 94
118 95 19 0 49 -7 68 -16z m-312 -236 c9 -15 -5 -33 -91 -120 -57 -57 -105
-115 -108 -129 -8 -31 16 -83 40 -93 34 -13 82 -6 100 14 22 25 58 23 63 -3 5
-24 -24 -56 -65 -73 -96 -41 -203 29 -203 133 0 66 21 101 125 202 95 93 116
104 139 69z m106 -243 c94 -94 108 -105 141 -105 72 0 106 78 61 140 -26 34
-27 43 -7 60 22 18 49 4 73 -39 44 -78 19 -169 -58 -208 -54 -28 -82 -29 -135
-3 -41 20 -225 198 -225 218 0 12 28 42 38 42 4 0 54 -47 112 -105z m-435 31
c33 -14 35 -18 35 -61 0 -55 18 -93 60 -129 l32 -26 -136 0 -136 0 -48 50
c-37 38 -57 50 -90 56 -23 4 -42 10 -42 14 0 14 75 69 121 90 53 24 154 27
204 6z m1000 -10 c28 -13 66 -40 84 -60 34 -36 35 -36 10 -36 -44 -1 -108 -37
-130 -75 l-21 -35 -140 0 -139 0 35 33 c42 40 56 73 56 131 0 40 3 44 33 54
61 19 157 14 212 -12z m-1271 -140 c57 -24 76 -59 76 -140 0 -87 -21 -128 -75
-146 -77 -25 -155 4 -182 68 -23 54 -13 155 18 189 42 44 101 55 163 29z
m1453 -6 c62 -38 71 -92 14 -94 -25 -1 -38 5 -49 21 -16 25 -60 31 -80 11 -7
-7 -12 -39 -12 -73 0 -68 10 -85 52 -85 21 0 32 7 40 25 9 20 18 25 50 25 34
0 38 -3 38 -26 0 -35 -48 -81 -93 -89 -80 -15 -146 17 -168 82 -15 47 -5 140
19 172 36 49 133 65 189 31z m-1269 -135 l27 -44 24 44 c18 34 30 45 48 45 24
0 24 0 21 -97 -3 -90 -5 -98 -23 -98 -17 0 -21 8 -25 50 -5 48 -5 49 -17 22
-16 -35 -40 -35 -56 0 -12 27 -12 26 -17 -22 -4 -42 -8 -50 -25 -50 -18 0 -20
8 -23 84 -2 46 -1 90 2 98 10 25 36 13 64 -32z m302 25 c0 -17 -7 -20 -49 -20
-44 0 -49 -2 -44 -19 4 -14 15 -21 42 -23 53 -4 49 -31 -6 -38 -56 -7 -44 -27
17 -32 33 -2 46 -8 48 -20 3 -16 -6 -18 -72 -18 l-76 0 0 88 c0 49 3 92 7 95
3 4 35 7 70 7 56 0 63 -2 63 -20z m188 -2 c-2 -17 -11 -24 -30 -26 -28 -3 -28
-4 -28 -73 0 -67 -1 -69 -25 -69 -24 0 -25 2 -25 70 0 68 -1 70 -24 70 -28 0
-40 14 -32 35 4 12 25 15 86 15 79 0 81 -1 78 -22z m170 0 c3 -15 -4 -18 -47
-18 -44 0 -51 -3 -51 -20 0 -17 7 -20 41 -20 33 0 40 -3 37 -17 -2 -13 -14
-19 -41 -21 -24 -2 -37 -8 -37 -18 0 -10 13 -14 50 -14 43 0 50 -3 50 -20 0
-18 -7 -20 -75 -20 l-75 0 0 88 c0 49 3 92 7 96 4 4 37 6 72 4 53 -2 66 -6 69
-20z m162 9 c17 -8 26 -22 28 -42 4 -43 -17 -65 -66 -72 -38 -5 -42 -8 -42
-34 0 -24 -4 -29 -25 -29 -25 0 -25 1 -25 88 0 49 3 92 7 95 11 12 97 7 123
-6z m200 -7 c0 -17 -7 -20 -49 -20 -44 0 -49 -2 -44 -20 4 -15 14 -20 39 -20
27 0 34 -4 34 -20 0 -17 -7 -20 -40 -20 -30 0 -38 -3 -34 -14 4 -10 23 -16 52
-18 34 -2 47 -7 47 -18 0 -12 -16 -16 -75 -18 l-75 -3 1 84 c0 46 4 89 8 95 4
7 33 12 72 12 57 0 64 -2 64 -20z"/>
<path d="M132 538 c-16 -16 -16 -130 0 -146 7 -7 25 -12 40 -12 32 0 48 28 48
85 0 57 -16 85 -48 85 -15 0 -33 -5 -40 -12z"/>
</g>
</svg>
