<?xml version="1.0" standalone="no"?>
<!DOCTYPE svg PUBLIC "-//W3C//DTD SVG 20010904//EN"
 "http://www.w3.org/TR/2001/REC-SVG-20010904/DTD/svg10.dtd">
<svg version="1.0" xmlns="http://www.w3.org/2000/svg"
 width="214.000000pt" height="158.000000pt" viewBox="0 0 214.000000 158.000000"
 preserveAspectRatio="xMidYMid meet">
<metadata>
Created by potrace 1.16, written by Peter Selinger 2001-2019
</metadata>
<g transform="translate(0.000000,158.000000) scale(0.100000,-0.100000)"
fill="#000000" stroke="none">
<path d="M824 1361 c-52 -24 -84 -74 -84 -132 0 -53 31 -109 60 -109 11 0 23
0 28 -1 16 -1 12 32 -9 60 -40 54 0 141 65 141 26 0 46 -15 116 -86 99 -100
170 -141 170 -96 0 9 -46 63 -103 120 -126 126 -161 140 -243 103z"/>
<path d="M1200 1369 c-35 -14 -70 -49 -70 -71 0 -15 5 -17 28 -12 15 4 34 13
43 21 22 18 74 20 94 3 28 -23 47 -70 40 -99 -4 -14 -52 -72 -107 -128 -55
-56 -98 -108 -95 -115 2 -8 16 -12 33 -10 35 4 198 159 220 209 51 119 -69
249 -186 202z"/>
<path d="M858 1042 c-112 -113 -124 -135 -115 -204 8 -62 49 -98 118 -104 94
-9 175 34 136 73 -16 16 -18 16 -46 -5 -32 -23 -80 -29 -110 -12 -25 13 -45
64 -37 95 4 15 51 72 106 128 82 84 97 104 89 119 -5 10 -15 18 -22 18 -7 0
-61 -48 -119 -108z"/>
<path d="M1306 974 c-15 -15 -15 -18 -1 -38 29 -40 38 -65 31 -91 -10 -41 -41
-65 -84 -65 -34 0 -46 9 -137 100 -101 102 -135 120 -143 76 -6 -28 160 -191
215 -212 52 -20 136 -13 165 13 65 59 60 176 -8 220 -19 12 -24 12 -38 -3z"/>
<path d="M483 914 c-24 -9 -64 -35 -90 -59 l-48 -44 44 1 c42 1 48 -2 90 -49
l46 -50 100 -2 c55 -1 116 -4 135 -8 l35 -5 -27 26 c-40 38 -61 85 -61 133 0
35 -4 43 -26 53 -42 20 -150 22 -198 4z"/>
<path d="M1475 915 c-22 -8 -41 -15 -42 -15 -2 0 -3 -18 -3 -40 0 -55 -21
-100 -61 -134 l-34 -29 45 6 c25 4 87 7 139 9 l94 2 48 48 c42 42 53 48 90 48
l43 0 -30 31 c-69 73 -202 107 -289 74z"/>
<path d="M283 766 c-17 -8 -39 -25 -48 -39 -22 -34 -29 -113 -15 -165 9 -35
18 -46 45 -58 75 -31 186 -9 205 41 14 36 12 135 -3 164 -30 58 -120 86 -184
57z m83 -44 c39 -25 48 -138 14 -172 -24 -24 -29 -24 -58 -4 -19 13 -22 24
-22 81 0 82 27 121 66 95z"/>
<path d="M1723 769 c-56 -16 -73 -50 -73 -145 0 -70 3 -87 19 -103 57 -57 229
-30 239 38 3 18 -1 21 -33 21 -25 0 -42 -7 -54 -21 -20 -24 -69 -29 -82 -8 -5
8 -9 44 -9 80 0 51 4 70 18 82 25 23 39 21 65 -6 12 -13 39 -27 60 -30 31 -5
37 -3 37 12 0 30 -38 70 -78 81 -43 12 -65 12 -109 -1z"/>
<path d="M527 664 c-4 -4 -7 -47 -7 -94 l0 -87 26 0 c25 0 26 1 21 43 -4 42 7
60 19 29 9 -23 51 -19 59 6 10 32 19 13 16 -35 -2 -41 -1 -43 23 -43 l26 0 0
93 c0 87 -1 94 -20 94 -13 0 -30 -16 -49 -46 l-28 -46 -24 43 c-23 42 -47 58
-62 43z"/>
<path d="M757 663 c-4 -3 -7 -45 -7 -92 l0 -86 70 -2 c64 -2 70 -1 70 17 0 17
-7 20 -44 20 -31 0 -46 5 -50 16 -9 24 -9 24 34 24 29 0 40 4 40 15 0 10 -10
15 -34 15 -22 0 -36 6 -40 16 -9 24 -2 27 49 27 37 0 45 4 45 19 0 16 -9 18
-63 18 -35 0 -67 -3 -70 -7z"/>
<path d="M1107 663 c-4 -3 -7 -45 -7 -92 l0 -86 73 0 c57 0 72 3 72 15 0 11
-13 16 -46 18 -36 2 -48 7 -52 22 -4 16 1 19 37 22 51 4 54 22 5 26 -26 2 -38
9 -42 22 -4 14 2 20 28 24 18 4 40 4 49 0 12 -4 16 0 16 15 0 19 -6 21 -63 21
-35 0 -67 -3 -70 -7z"/>
<path d="M1287 663 c-4 -3 -7 -45 -7 -93 0 -83 1 -87 23 -86 16 1 23 8 27 31
4 25 11 31 49 40 24 6 49 18 54 26 16 25 0 69 -29 79 -29 11 -107 13 -117 3z"/>
<path d="M1477 663 c-4 -3 -7 -45 -7 -92 l0 -86 70 -3 c64 -2 70 -1 70 18 0
17 -7 20 -44 20 -31 0 -46 5 -50 16 -9 24 -9 24 34 24 29 0 40 4 40 15 0 11
-11 15 -35 15 -23 0 -38 6 -42 15 -8 23 2 28 52 28 37 0 45 4 45 19 0 16 -9
18 -63 18 -35 0 -67 -3 -70 -7z"/>
</g>
</svg>
